STARTFONT 2.1
COMMENT
COMMENT Converted from OpenType font "FreeMonoBoldOblique.ttf" by "otf2bdf 3.0".
COMMENT
FONT -FreeType-FreeMono-Bold-I-Normal--50-120-300-300-P-256-ISO10646-1
SIZE 12 300 300
FONTBOUNDINGBOX 74 51 -32 -10
STARTPROPERTIES 19
FOUNDRY "FreeType"
FAMILY_NAME "FreeMono"
WEIGHT_NAME "Bold"
SLANT "I"
SETWIDTH_NAME "Normal"
ADD_STYLE_NAME ""
PIXEL_SIZE 50
POINT_SIZE 120
RESOLUTION_X 300
RESOLUTION_Y 300
SPACING "P"
AVERAGE_WIDTH 256
CHARSET_REGISTRY "ISO10646"
CHARSET_ENCODING "1"
FONT_ASCENT 40
FONT_DESCENT 10
COPYRIGHT "Copyright 2002, 2003, 2005, 2008, 2009, 2010, 2012 GNU Freefont contributors."
_OTF_FONTFILE "FreeMonoBoldOblique.ttf"
_OTF_PSNAME "FreeMonoBoldOblique"
ENDPROPERTIES
CHARS 1792
STARTCHAR 0020
ENCODING 32
SWIDTH 600 0
DWIDTH 30 0
BBX 0 0 0 0
BITMAP
ENDCHAR
STARTCHAR 0021
ENCODING 33
SWIDTH 600 0
DWIDTH 30 0
BBX 13 33 12 -1
BITMAP
00F0
01F8
03F8
03F8
07F8
07F8
07F8
07F0
07F0
07F0
07F0
07E0
07E0
0FE0
0FE0
0FC0
0FC0
0FC0
0FC0
0F80
0F80
0F80
0E00
0000
0000
0000
0800
7E00
7F00
FF00
FE00
FE00
7800
ENDCHAR
STARTCHAR 0022
ENCODING 34
SWIDTH 600 0
DWIDTH 30 0
BBX 17 15 12 16
BITMAP
7F1F80
7E1F80
7E1F80
7E1F00
7C1F00
7C1F00
7C1E00
783E00
783E00
F83C00
F03C00
F03C00
F03800
E03800
E03000
ENDCHAR
STARTCHAR 0023
ENCODING 35
SWIDTH 600 0
DWIDTH 30 0
BBX 26 37 5 -3
BITMAP
000F0F80
001F0F80
001F1F00
001F1F00
003E1F00
003E1F00
003E3E00
007E3E00
007C3E00
007C7E00
007C7E00
0FFFFFC0
1FFFFFC0
1FFFFFC0
1FFFFF80
03F0F800
01F1F800
01F1F000
03E1F000
03E1F000
03E3E000
7FFFFC00
FFFFFE00
FFFFFE00
FFFFFE00
7FFFFC00
0F87C000
0F8F8000
1F8F8000
1F0F8000
1F0F8000
1F1F0000
3E1F0000
3E1F0000
3E3E0000
3C3E0000
381C0000
ENDCHAR
STARTCHAR 0024
ENCODING 36
SWIDTH 600 0
DWIDTH 30 0
BBX 25 40 5 -6
BITMAP
0001E000
0001E000
0003E000
0003E000
0007E000
003FFF80
007FFF80
00FFFF80
01FFFF80
03F83F80
03E00F80
07C00F00
07C00E00
07C00000
07E00000
07FE0000
03FFE000
03FFF800
01FFFC00
007FFC00
0007FE00
00007E00
08003E00
3C003E00
7C003E00
7C007C00
7E00FC00
7FC7F800
FFFFF800
FFFFF000
FFFFC000
77FF8000
01FC0000
00F80000
01F00000
01F00000
01F00000
01F00000
01E00000
01C00000
ENDCHAR
STARTCHAR 0025
ENCODING 37
SWIDTH 600 0
DWIDTH 30 0
BBX 23 32 7 -1
BITMAP
00FC00
03FF00
07FF00
0F0F80
1E0780
1C0380
380380
380380
380780
3C0F00
3E3E00
1FFC04
0FF87E
07E3FE
001FF8
00FFC0
0FFC00
7FE000
FF1FC0
F87FE0
00FFF0
01F0F0
03C070
038070
078070
070070
0700F0
0781E0
07E7C0
03FF80
01FF00
007C00
ENDCHAR
STARTCHAR 0026
ENCODING 38
SWIDTH 600 0
DWIDTH 30 0
BBX 23 27 5 1
BITMAP
001FF8
003FFC
007FFC
00FFFC
01FFF0
01F0E0
03E000
03E000
03E000
03F000
03F000
01F800
03F800
0FFC7C
1FFC7E
3FFEFE
7F7EFC
7C7FF8
7C3FF0
F83FE0
F81FE0
F81FC0
FFFFF0
FFFFF8
7FFFF8
7FFFF0
1FFBE0
ENDCHAR
STARTCHAR 0027
ENCODING 39
SWIDTH 600 0
DWIDTH 30 0
BBX 7 15 17 16
BITMAP
7E
7E
7E
7C
7C
7C
78
F8
F8
F0
F0
F0
E0
E0
C0
ENDCHAR
STARTCHAR 0028
ENCODING 40
SWIDTH 600 0
DWIDTH 30 0
BBX 15 40 15 -8
BITMAP
0008
003C
003E
007C
00FC
01F8
01F0
03F0
07E0
07C0
0FC0
0F80
1F80
1F00
3F00
3E00
3E00
7E00
7C00
7C00
FC00
FC00
FC00
FC00
FC00
FC00
FC00
FC00
FC00
FC00
FC00
7C00
7E00
7E00
7E00
3F00
3F00
3F00
1E00
0C00
ENDCHAR
STARTCHAR 0029
ENCODING 41
SWIDTH 600 0
DWIDTH 30 0
BBX 15 40 6 -8
BITMAP
0040
01E0
03F0
03F0
03F8
01F8
01F8
00FC
00FC
00FC
00FC
007C
007C
007E
007E
007E
007E
007C
007C
007C
00FC
00FC
00F8
00F8
01F8
01F0
03F0
03F0
07E0
07E0
0FC0
0F80
1F80
3F00
3E00
7E00
FC00
F800
F000
6000
ENDCHAR
STARTCHAR 002A
ENCODING 42
SWIDTH 600 0
DWIDTH 30 0
BBX 22 21 9 10
BITMAP
001C00
003E00
003E00
007C00
007C00
007C00
787C78
FFFFFC
FFFFFC
FFFFF8
7FFFF0
1FFF80
03FC00
07FE00
0FFE00
1FFF00
3F3F00
7E3F00
7C1F00
781F00
100400
ENDCHAR
STARTCHAR 002B
ENCODING 43
SWIDTH 600 0
DWIDTH 30 0
BBX 26 28 5 0
BITMAP
00038000
0007C000
0007C000
0007C000
000F8000
000F8000
000F8000
000F8000
000F8000
001F0000
001F0000
3FFFFF80
7FFFFFC0
FFFFFFC0
FFFFFFC0
7FFFFF80
003E0000
003E0000
003E0000
007C0000
007C0000
007C0000
007C0000
00F80000
00F80000
00F80000
00F80000
00700000
ENDCHAR
STARTCHAR 002C
ENCODING 44
SWIDTH 600 0
DWIDTH 30 0
BBX 13 15 6 -8
BITMAP
03F8
03F0
07F0
07E0
0FC0
0F80
1F80
1F00
3E00
3C00
7C00
7800
F000
E000
C000
ENDCHAR
STARTCHAR 002D
ENCODING 45
SWIDTH 600 0
DWIDTH 30 0
BBX 26 5 5 11
BITMAP
3FFFFF80
FFFFFFC0
FFFFFFC0
FFFFFFC0
7FFFFF00
ENDCHAR
STARTCHAR 002E
ENCODING 46
SWIDTH 600 0
DWIDTH 30 0
BBX 8 7 12 -1
BITMAP
08
7E
7F
FF
FE
FE
78
ENDCHAR
STARTCHAR 002F
ENCODING 47
SWIDTH 600 0
DWIDTH 30 0
BBX 30 41 3 -6
BITMAP
00000018
0000007C
0000007C
000000F8
000001F8
000001F0
000003E0
000007E0
000007C0
00000F80
00001F80
00001F00
00003E00
00007E00
0000FC00
0000F800
0001F800
0003F000
0003E000
0007E000
000FC000
000F8000
001F0000
003F0000
003E0000
007C0000
00FC0000
00F80000
01F00000
03F00000
07E00000
07C00000
0FC00000
1F800000
1F000000
3F000000
7E000000
7C000000
FC000000
78000000
20000000
ENDCHAR
STARTCHAR 0030
ENCODING 48
SWIDTH 600 0
DWIDTH 30 0
BBX 23 33 7 -1
BITMAP
000FC0
007FF0
00FFF8
03FFFC
07FFFC
07E0FC
0FC07E
1F807E
1F003E
3E003E
3E003E
3E003E
7C003E
7C003E
7C003C
7C007C
F8007C
F8007C
F8007C
F800F8
F800F8
F800F8
F800F8
F801F0
F801F0
FC03E0
FC07E0
7E1FC0
7FFF80
7FFF00
3FFE00
1FFC00
07E000
ENDCHAR
STARTCHAR 0031
ENCODING 49
SWIDTH 600 0
DWIDTH 30 0
BBX 21 32 5 0
BITMAP
0003E0
000FE0
003FE0
007FE0
01FFC0
03FFC0
07F7C0
0FC7C0
070F80
000F80
000F80
000F80
000F80
001F00
001F00
001F00
001F00
001F00
003E00
003E00
003E00
003E00
007C00
007C00
007C00
007C00
007C00
7FFFF8
FFFFF8
FFFFF8
FFFFF8
FFFFF0
ENDCHAR
STARTCHAR 0032
ENCODING 50
SWIDTH 600 0
DWIDTH 30 0
BBX 27 32 3 0
BITMAP
0001FC00
000FFF00
003FFF80
007FFFC0
00FFFFC0
00FC0FE0
01F807E0
03F003E0
03E003E0
03C003E0
018003E0
000007C0
00000FC0
00001F80
00003F00
0000FE00
0001FC00
0003F800
000FF000
001FE000
007F8000
00FF0000
01FE0000
07F80000
0FF00C00
1FC01E00
7F801F00
7FFFFE00
FFFFFE00
FFFFFE00
FFFFFE00
FFFFFE00
ENDCHAR
STARTCHAR 0033
ENCODING 51
SWIDTH 600 0
DWIDTH 30 0
BBX 26 33 4 -1
BITMAP
0007F800
003FFE00
00FFFF00
01FFFF80
03FFFF80
03F81FC0
03E00FC0
01C007C0
000007C0
000007C0
00000F80
00000F80
00001F00
0007FE00
000FFC00
001FF800
001FF800
000FFC00
0000FE00
00003F00
00003F00
00001F00
00001F00
00001F00
00003E00
00003E00
00007E00
7803FC00
FFFFF800
FFFFF000
FFFFE000
7FFF8000
0FFC0000
ENDCHAR
STARTCHAR 0034
ENCODING 52
SWIDTH 600 0
DWIDTH 30 0
BBX 24 31 5 0
BITMAP
00007F
0000FF
0001FE
0001FE
0003FE
0007FE
000FFE
001FFC
003F7C
003E7C
007E7C
00FC78
01F8F8
03F0F8
03E0F8
07C0F8
0FC1F0
1F81F0
3F01F0
7FFFFC
7FFFFC
7FFFFC
7FFFFC
FFFFF8
0003E0
0003C0
007FF0
00FFF8
00FFF8
00FFF8
00FFE0
ENDCHAR
STARTCHAR 0035
ENCODING 53
SWIDTH 600 0
DWIDTH 30 0
BBX 26 32 5 -1
BITMAP
00FFFF80
01FFFFC0
01FFFFC0
01FFFF80
01FFFF00
01F00000
03E00000
03E00000
03E00000
03E00000
03EFE000
07FFF800
07FFFC00
07FFFE00
07FFFE00
07E07F00
07003F00
00001F00
00001F00
00001F00
00001F00
00001F00
00003E00
00003E00
00007E00
7000FC00
FC03F800
FFFFF800
FFFFF000
7FFFE000
3FFF8000
07FC0000
ENDCHAR
STARTCHAR 0036
ENCODING 54
SWIDTH 600 0
DWIDTH 30 0
BBX 25 33 8 -1
BITMAP
0000FE00
0007FF80
000FFF80
003FFF80
007FFF80
00FF0700
03FC0000
03F00000
07E00000
0FC00000
1F800000
1F000000
3E1F0000
3E7FC000
7DFFE000
7FFFF000
7FFFF000
7FC3F800
FF01F800
FE00F800
FC00F800
F800F800
F800F800
F800F000
F801F000
FC01F000
FC03E000
7E0FE000
7FFFC000
7FFF8000
3FFF0000
1FFC0000
07F00000
ENDCHAR
STARTCHAR 0037
ENCODING 55
SWIDTH 600 0
DWIDTH 30 0
BBX 23 31 9 0
BITMAP
7FFFFE
7FFFFC
7FFFFC
FFFFFC
FFFFFC
F800F8
F000F8
6001F0
0003F0
0003E0
0007E0
0007C0
000FC0
000F80
001F00
001F00
003E00
007E00
007C00
00FC00
00F800
01F800
01F000
03F000
03E000
07C000
0FC000
0F8000
0F8000
0F0000
0E0000
ENDCHAR
STARTCHAR 0038
ENCODING 56
SWIDTH 600 0
DWIDTH 30 0
BBX 24 33 6 -1
BITMAP
000FE0
003FF8
00FFFC
01FFFE
03FFFE
07F07F
0FC03F
0F801F
1F001F
1F001F
1F001E
1F003E
1F807C
0FC1FC
0FFFF8
07FFE0
03FFE0
0FFFF0
1FFFF8
3F83F8
3E00FC
7C007C
78007C
F8007C
F8007C
F800F8
FC01F8
FE07F0
FFFFF0
7FFFE0
3FFF80
1FFE00
07F800
ENDCHAR
STARTCHAR 0039
ENCODING 57
SWIDTH 600 0
DWIDTH 30 0
BBX 25 33 6 -1
BITMAP
0007F000
003FFC00
007FFE00
00FFFF00
01FFFF00
03F83F00
03E01F80
07C01F80
07C00F80
07800F80
0F800F80
0F800F80
0F801F80
0F803F80
0FC07F80
0FE1FF00
07FFFF00
07FFFF00
03FFDF00
01FF3E00
007C3E00
00007C00
0000FC00
0001F800
0003F000
0007E000
001FC000
707F8000
FFFF0000
FFFE0000
FFF80000
FFF00000
3F800000
ENDCHAR
STARTCHAR 003A
ENCODING 58
SWIDTH 600 0
DWIDTH 30 0
BBX 11 23 12 -1
BITMAP
07C0
0FC0
1FE0
1FE0
1FC0
1F80
0600
0000
0000
0000
0000
0000
0000
0000
0000
0000
0800
7E00
7F00
FF00
FE00
FE00
7800
ENDCHAR
STARTCHAR 003B
ENCODING 59
SWIDTH 600 0
DWIDTH 30 0
BBX 16 30 6 -8
BITMAP
003E
007E
00FF
00FF
00FE
00FC
0030
0000
0000
0000
0000
0000
0000
0000
0000
03F8
03F0
07E0
07E0
0FC0
0F80
1F00
1F00
3E00
3C00
7C00
7800
F000
E000
C000
ENDCHAR
STARTCHAR 003C
ENCODING 60
SWIDTH 600 0
DWIDTH 30 0
BBX 26 22 6 3
BITMAP
000001C0
00000FC0
00003FC0
0000FF80
0003FF00
001FFC00
007FE000
01FF8000
07FE0000
3FF80000
FFE00000
FFC00000
3FF00000
0FFC0000
07FE0000
01FF8000
007FE000
001FF800
000FFC00
0003FC00
0000FC00
00003800
ENDCHAR
STARTCHAR 003D
ENCODING 61
SWIDTH 600 0
DWIDTH 30 0
BBX 28 14 4 7
BITMAP
1FFFFFE0
3FFFFFF0
3FFFFFF0
3FFFFFE0
1FFFFFC0
00000000
00000000
00000000
00000000
7FFFFF80
FFFFFFC0
FFFFFFC0
FFFFFFC0
7FFFFF00
ENDCHAR
STARTCHAR 003E
ENCODING 62
SWIDTH 600 0
DWIDTH 30 0
BBX 26 22 4 3
BITMAP
07000000
0F800000
0FE00000
0FF80000
07FE0000
01FF8000
00FFC000
003FF000
000FFC00
0007FF00
0001FF80
0000FFC0
0003FF00
001FFC00
007FF000
01FF8000
07FE0000
1FF80000
7FE00000
FF000000
FC000000
F0000000
ENDCHAR
STARTCHAR 003F
ENCODING 63
SWIDTH 600 0
DWIDTH 30 0
BBX 20 31 10 -1
BITMAP
00FE00
0FFF80
3FFFC0
7FFFE0
7FFFF0
FE07F0
F803F0
F801F0
F001F0
7001F0
0003F0
0007E0
000FE0
003FC0
00FF80
01FF00
03FE00
03F800
03E000
03C000
018000
000000
000000
000000
030000
1F8000
1FC000
3FC000
3F8000
3F8000
1E0000
ENDCHAR
STARTCHAR 0040
ENCODING 64
SWIDTH 600 0
DWIDTH 30 0
BBX 24 39 5 -8
BITMAP
0003E0
001FF8
003FFC
00FFFE
01F83F
01F01F
03C00F
07C00F
0F800F
0F000F
0F000F
1E00FE
1E03FE
1C0FFE
3C1FFE
3C3F1E
3C7C3C
3C783C
78F03C
78F03C
78F038
78F078
78FC78
F07FF8
F07FFC
F03FFC
F00FF8
F00000
F00000
F00000
F00000
F80000
780000
7C01C0
7E07C0
3FFFC0
3FFF80
1FFE00
07F800
ENDCHAR
STARTCHAR 0041
ENCODING 65
SWIDTH 600 0
DWIDTH 30 0
BBX 33 29 -1 0
BITMAP
000FFF8000
001FFF8000
003FFF8000
003FFFC000
001FFFC000
0000FFC000
0001FFC000
0001F7C000
0003E7E000
0007E7E000
0007C7E000
000F87E000
001F83E000
001F03F000
003E03F000
003E03F000
007FFFF000
00FFFFF000
00FFFFF800
01FFFFF800
01FFFFF800
03E000F800
07E000F800
07C000FC00
3FF80FFF00
7FFC1FFF80
FFFC1FFF80
FFF81FFF00
7FF00FFE00
ENDCHAR
STARTCHAR 0042
ENCODING 66
SWIDTH 600 0
DWIDTH 30 0
BBX 30 29 1 0
BITMAP
01FFFF80
03FFFFE0
07FFFFF0
07FFFFF8
03FFFFFC
007C01FC
0078007C
00F8007C
00F8007C
00F800F8
00F801F8
01F007F0
01FFFFE0
01FFFFC0
01FFFFC0
01FFFFE0
03FFFFF0
03E007F8
03E001F8
03E000F8
07C000F8
07C000F8
07C001F0
07C003F0
3FFFFFE0
7FFFFFC0
FFFFFF80
FFFFFF00
7FFFF800
ENDCHAR
STARTCHAR 0043
ENCODING 67
SWIDTH 600 0
DWIDTH 30 0
BBX 28 29 4 1
BITMAP
000FFC60
003FFFF0
00FFFFF0
01FFFFF0
03FFFFF0
07F00FE0
0FC007E0
1F8003E0
1F0003E0
3F0003C0
3E000180
7E000000
7C000000
7C000000
7C000000
F8000000
F8000000
F8000000
F8000000
F8000000
F8000000
FC000700
FE000F00
7F003F00
7FFFFF00
3FFFFE00
1FFFFC00
0FFFF000
03FFC000
ENDCHAR
STARTCHAR 0044
ENCODING 68
SWIDTH 600 0
DWIDTH 30 0
BBX 30 29 1 0
BITMAP
01FFFE00
03FFFF80
07FFFFE0
07FFFFF0
03FFFFF0
00F807F8
00F801F8
01F000FC
01F000FC
01F0007C
01F0007C
03E0007C
03E0007C
03E0007C
03E0007C
03E000F8
07C000F8
07C000F8
07C001F8
07C001F0
07C003F0
0F8007E0
0F800FC0
0F803FC0
3FFFFF80
7FFFFE00
FFFFFC00
FFFFF000
7FFF8000
ENDCHAR
STARTCHAR 0045
ENCODING 69
SWIDTH 600 0
DWIDTH 30 0
BBX 31 29 1 0
BITMAP
03FFFFFE
07FFFFFE
07FFFFFE
07FFFFFC
07FFFFFC
00F8007C
00F8007C
00F800FC
00F800F8
01F078F8
01F0F870
01F0F800
01FFF800
01FFF000
03FFF000
03FFF000
03FFF000
03E1E000
07C1E000
07C1C0E0
07C001F0
07C001F0
07C003F0
0F8003E0
7FFFFFE0
FFFFFFE0
FFFFFFE0
FFFFFFC0
FFFFFFC0
ENDCHAR
STARTCHAR 0046
ENCODING 70
SWIDTH 600 0
DWIDTH 30 0
BBX 33 29 0 0
BITMAP
01FFFFFF80
03FFFFFF00
07FFFFFF00
07FFFFFF00
03FFFFFF00
007C001F00
007C003E00
00F8003E00
00F8003E00
00F8383C00
00F87C1800
01F07C0000
01FFF80000
01FFF80000
01FFF80000
01FFF80000
03FFF00000
03E1F00000
03E1F00000
03E0E00000
03E0000000
07C0000000
07C0000000
07C0000000
3FFF800000
7FFFC00000
FFFFC00000
FFFF800000
7FFF000000
ENDCHAR
STARTCHAR 0047
ENCODING 71
SWIDTH 600 0
DWIDTH 30 0
BBX 29 29 3 1
BITMAP
000FFF38
003FFFF8
00FFFFF8
01FFFFF8
03FFFFF8
07F003F0
0FC001F0
1F8001F0
1F0001E0
3F000000
3E000000
3E000000
7C000000
7C000000
7C000000
7C03FFE0
F807FFF0
F807FFF0
F807FFF0
F807FFE0
F8000F80
FC000F80
FC000F80
7F001F80
7FFFFF00
3FFFFF00
1FFFFF00
0FFFFC00
03FFE000
ENDCHAR
STARTCHAR 0048
ENCODING 72
SWIDTH 600 0
DWIDTH 30 0
BBX 32 29 1 0
BITMAP
01FF87FE
03FF8FFF
03FF8FFF
03FF8FFE
03FF07FC
00F801F0
00F801F0
01F001F0
01F001F0
01F001F0
01F003E0
03E003E0
03FFFFE0
03FFFFE0
03FFFFE0
03FFFFC0
07FFFFC0
07C007C0
07C007C0
07C00F80
07C00F80
0F800F80
0F800F80
0F800F80
7FF0FFE0
FFF1FFF0
FFF1FFF0
FFF1FFE0
FFE1FFC0
ENDCHAR
STARTCHAR 0049
ENCODING 73
SWIDTH 600 0
DWIDTH 30 0
BBX 27 29 3 0
BITMAP
01FFFFE0
03FFFFE0
07FFFFE0
07FFFFE0
03FFFFC0
0007C000
0007C000
0007C000
000F8000
000F8000
000F8000
000F8000
000F8000
001F0000
001F0000
001F0000
001F0000
003E0000
003E0000
003E0000
003E0000
003E0000
007C0000
007C0000
3FFFF800
7FFFFC00
FFFFFC00
FFFFF800
7FFFF000
ENDCHAR
STARTCHAR 004A
ENCODING 74
SWIDTH 600 0
DWIDTH 30 0
BBX 33 29 0 0
BITMAP
0003FFFF80
0007FFFF80
0007FFFF80
0007FFFF80
0007FFFF00
000007C000
000007C000
000007C000
000007C000
000007C000
00000F8000
00000F8000
00000F8000
00000F8000
00000F8000
1C001F0000
1E001F0000
3E001F0000
3E001F0000
3E003E0000
7C003E0000
7C003E0000
7C007C0000
7E01FC0000
7FFFF80000
FFFFF00000
FFFFE00000
3FFFC00000
07FF000000
ENDCHAR
STARTCHAR 004B
ENCODING 75
SWIDTH 600 0
DWIDTH 30 0
BBX 33 29 0 0
BITMAP
01FFE1FF00
03FFE3FF80
07FFE7FF80
07FFE7FF80
03FFC3FF00
007C07F800
00780FE000
00F81FC000
00F87F8000
00F8FE0000
00F9FC0000
01F7F00000
01FFE00000
01FFF00000
01FFF80000
01FFFC0000
03FDFC0000
03F0FE0000
03E07E0000
03E07F0000
07C03F0000
07C03F0000
07C01F8000
07C01F8000
3FFC1FF800
7FFC1FF800
FFFC0FF800
FFFC0FF800
7FF80FF000
ENDCHAR
STARTCHAR 004C
ENCODING 76
SWIDTH 600 0
DWIDTH 30 0
BBX 29 29 1 0
BITMAP
01FFFC00
03FFFE00
07FFFE00
07FFFC00
03FFF800
001F0000
001F0000
003E0000
003E0000
003E0000
003E0000
003E0000
007C0000
007C0000
007C0000
007C0000
00F80000
00F80070
00F800F8
00F800F8
00F801F0
01F001F0
01F001F0
01F001F0
3FFFFFF0
7FFFFFE0
FFFFFFE0
FFFFFFE0
7FFFFFE0
ENDCHAR
STARTCHAR 004D
ENCODING 77
SWIDTH 600 0
DWIDTH 30 0
BBX 36 29 0 0
BITMAP
03FE000FF0
07FE001FF0
07FE003FF0
07FE003FF0
03FF007FE0
01FF00FF80
01FF00FF80
01FF01FF80
03FF83FF00
03FF83FF00
03FF87FF00
03EF8FDF00
03EFCF9F00
07CFDFBE00
07CFFF3E00
07C7FE3E00
07C7FE3E00
0787FC3C00
0F87F87C00
0F83F87C00
0F83F07C00
0F83E07C00
1F0000F800
1F0000F800
7FF00FFE00
FFF81FFF00
FFF81FFF00
FFF01FFE00
FFE01FFC00
ENDCHAR
STARTCHAR 004E
ENCODING 78
SWIDTH 600 0
DWIDTH 30 0
BBX 34 29 1 0
BITMAP
03FC03FFC0
07FC07FFC0
0FFE07FFC0
0FFE07FFC0
07FF03FF80
00FF003E00
01FF807C00
01FF807C00
01FFC07C00
01FFC07C00
01FFE0F800
03E7E0F800
03E7E0F800
03E3F0F800
03E3F0F800
03C1F9F000
07C1F9F000
07C1FDF000
07C0FDF000
07C0FFF000
0F807FE000
0F807FE000
0F803FE000
0F803FE000
7FF81FC000
FFF81FC000
FFF81FC000
FFF80FC000
7FF00FC000
ENDCHAR
STARTCHAR 004F
ENCODING 79
SWIDTH 600 0
DWIDTH 30 0
BBX 28 29 3 1
BITMAP
000FFC00
003FFE00
00FFFF80
01FFFFC0
03FFFFC0
07F00FE0
0FC007E0
1F8003F0
1F0003F0
3F0001F0
3E0001F0
7C0001F0
7C0001F0
780001F0
F80001F0
F80003E0
F80003E0
F80003E0
F80007C0
F8000FC0
FC000F80
FC001F80
7E003F00
7F00FE00
3FFFFC00
3FFFF800
1FFFF000
0FFFC000
03FF0000
ENDCHAR
STARTCHAR 0050
ENCODING 80
SWIDTH 600 0
DWIDTH 30 0
BBX 29 29 1 0
BITMAP
01FFFF00
03FFFFC0
07FFFFE0
07FFFFF0
03FFFFF0
007C03F8
007C01F8
00F800F8
00F800F8
00F800F8
00F800F8
01F001F0
01F003F0
01F00FE0
01FFFFC0
01FFFF80
03FFFF00
03FFFE00
03FFF000
03E00000
03E00000
07C00000
07C00000
07C00000
3FFF8000
7FFF8000
FFFF8000
FFFF8000
7FFF0000
ENDCHAR
STARTCHAR 0051
ENCODING 81
SWIDTH 600 0
DWIDTH 30 0
BBX 28 36 3 -6
BITMAP
000FFC00
003FFE00
00FFFF80
01FFFF80
03FFFFC0
07F00FE0
0FE007E0
1F8003F0
1F0003F0
3F0001F0
3E0001F0
7C0001F0
7C0001F0
7C0001F0
F80001F0
F80001E0
F80003E0
F80003E0
F80007C0
F80007C0
FC000F80
FC001F80
7E003F00
7F007E00
3FC3FC00
3FFFF800
1FFFF000
0FFFC000
03FF0000
07800000
0FFE1E00
1FFFFF00
3FFFFF00
7FFFFE00
7FFFFC00
3803E000
ENDCHAR
STARTCHAR 0052
ENCODING 82
SWIDTH 600 0
DWIDTH 30 0
BBX 30 29 0 0
BITMAP
01FFFF00
03FFFFC0
07FFFFE0
07FFFFF0
03FFFFF0
007C03F8
007C01F8
00F800F8
00F800F8
00F800F8
00F801F0
01F003F0
01F01FE0
01FFFFC0
01FFFF80
01FFFF00
03FFFC00
03FFFE00
03E0FF00
03E07F00
03E03F80
07C01F80
07C00FC0
07C00FC0
3FFC07F8
7FFC07FC
FFFC07FC
FFFC03FC
7FF803F8
ENDCHAR
STARTCHAR 0053
ENCODING 83
SWIDTH 600 0
DWIDTH 30 0
BBX 27 29 4 1
BITMAP
001FFDE0
007FFFE0
00FFFFE0
01FFFFE0
03FFFFE0
07E00FC0
07C007C0
0F8007C0
0F8007C0
0F800780
0FC00000
0FF80000
0FFF8000
07FFF000
03FFFC00
00FFFE00
001FFF00
0000FF00
00003F00
78001F00
78001F00
F8001F00
F8003E00
FE00FE00
FFFFFC00
FFFFF800
FFFFF000
FFFFE000
63FF8000
ENDCHAR
STARTCHAR 0054
ENCODING 84
SWIDTH 600 0
DWIDTH 30 0
BBX 28 29 4 0
BITMAP
3FFFFFF0
3FFFFFF0
3FFFFFF0
3FFFFFE0
7FFFFFE0
7C0F03E0
7C1F03E0
7C1F07C0
F81F07C0
F81F07C0
F83E0780
703E0780
003E0000
003E0000
003E0000
007C0000
007C0000
007C0000
007C0000
00F80000
00F80000
00F80000
00F80000
00F80000
3FFFC000
7FFFE000
FFFFE000
FFFFC000
7FFF8000
ENDCHAR
STARTCHAR 0055
ENCODING 85
SWIDTH 600 0
DWIDTH 30 0
BBX 30 29 4 0
BITMAP
3FF83FF8
7FFC7FFC
7FFC7FFC
7FF87FF8
7FF07FF0
1F0007C0
1F0007C0
1F0007C0
3E000F80
3E000F80
3E000F80
3E000F80
3E001F00
7C001F00
7C001F00
7C001F00
7C001F00
F8003E00
F8003E00
F8003E00
F8003E00
F8007C00
FC00FC00
FE03F800
7FFFF000
7FFFE000
3FFFC000
1FFF8000
07FE0000
ENDCHAR
STARTCHAR 0056
ENCODING 86
SWIDTH 600 0
DWIDTH 30 0
BBX 32 29 2 0
BITMAP
7FF80FFF
FFF81FFF
FFF81FFF
FFF81FFF
7FF01FFE
1F8001F0
1F8003E0
1F8007E0
0F8007C0
0FC00F80
0FC01F80
0FC01F00
07C03E00
07C07E00
07E07C00
07E0FC00
07E0F800
03E1F000
03E3F000
03F3E000
03F7C000
03FFC000
01FF8000
01FF0000
01FF0000
01FE0000
00FC0000
00FC0000
00F80000
ENDCHAR
STARTCHAR 0057
ENCODING 87
SWIDTH 600 0
DWIDTH 30 0
BBX 31 29 3 0
BITMAP
3FF81FFE
7FF83FFE
FFF83FFE
FFF83FFE
7FF03FFC
3E0001F0
3E0001F0
3E0F83E0
3E1F83E0
3E1FC3E0
7E3FC7C0
7E3FC7C0
7C7FC7C0
7C7FCF80
7CFFCF80
7CFFCF80
7DF7DF00
7FF7FF00
7FE7FF00
7FC7FE00
7FC3FE00
7F83FE00
FF83FC00
FF03FC00
FF03FC00
FE03F800
FE03F800
FC03F800
FC01F000
ENDCHAR
STARTCHAR 0058
ENCODING 88
SWIDTH 600 0
DWIDTH 30 0
BBX 34 29 0 0
BITMAP
01FF00FF80
03FF81FFC0
03FF83FFC0
03FF03FF80
03FE01FF00
00FE01FC00
007E03F800
003F07F000
003F8FC000
001F9F8000
000FFF0000
000FFE0000
0007FC0000
0007F80000
0003F80000
000FF80000
001FFC0000
003FFC0000
007F7E0000
00FE7F0000
01FC3F0000
03F81F8000
07F01FC000
0FE00FC000
7FF03FF000
FFF07FF800
FFF07FF800
FFF07FF800
7FE07FF000
ENDCHAR
STARTCHAR 0059
ENCODING 89
SWIDTH 600 0
DWIDTH 30 0
BBX 28 29 4 0
BITMAP
3FE03FF0
7FE07FF0
FFE07FF0
FFE07FF0
7FC03FE0
1F803F00
0FC07E00
0FC0FC00
07E1F800
07E3F000
03F7E000
03FFC000
01FFC000
01FF8000
01FF0000
00FE0000
00FC0000
00F80000
00F80000
00F80000
00F80000
00F80000
01F00000
01F00000
7FFFC000
FFFFC000
FFFFC000
FFFFC000
7FFF8000
ENDCHAR
STARTCHAR 005A
ENCODING 90
SWIDTH 600 0
DWIDTH 30 0
BBX 27 29 3 0
BITMAP
01FFFFE0
01FFFFE0
03FFFFE0
03FFFFE0
03FFFFC0
03E01FC0
03E03F80
07C07F00
07C0FE00
07C1FC00
0383F800
0007F000
000FE000
001FC000
003F8000
007F0000
00FE0000
01FC0000
03F80700
07F00F00
0FE01F00
1FC01F00
3F801F00
7F001F00
7FFFFE00
FFFFFE00
FFFFFE00
FFFFFE00
FFFFFC00
ENDCHAR
STARTCHAR 005B
ENCODING 91
SWIDTH 600 0
DWIDTH 30 0
BBX 19 38 11 -7
BITMAP
00FFC0
00FFE0
00FFE0
01FFC0
01FF80
01F000
01F000
01F000
03E000
03E000
03E000
03E000
07C000
07C000
07C000
07C000
07C000
0F8000
0F8000
0F8000
0F8000
0F0000
1F0000
1F0000
1F0000
1F0000
3E0000
3E0000
3E0000
3E0000
3E0000
7C0000
7C0000
7FE000
7FF000
FFF000
FFE000
FFC000
ENDCHAR
STARTCHAR 005C
ENCODING 92
SWIDTH 600 0
DWIDTH 30 0
BBX 14 41 11 -6
BITMAP
3000
7800
F800
F800
FC00
FC00
7C00
7C00
7E00
7E00
3E00
3E00
3F00
1F00
1F00
1F00
1F80
0F80
0F80
0F80
0FC0
07C0
07C0
07E0
07E0
03E0
03E0
03F0
03F0
01F0
01F0
01F8
01F8
00F8
00F8
00FC
007C
007C
007C
007C
0010
ENDCHAR
STARTCHAR 005D
ENCODING 93
SWIDTH 600 0
DWIDTH 30 0
BBX 19 38 5 -7
BITMAP
007FE0
00FFE0
01FFE0
01FFC0
00FFC0
0007C0
0007C0
0007C0
000F80
000F80
000F80
000F80
001F00
001F00
001F00
001F00
001F00
003E00
003E00
003E00
003E00
003C00
007C00
007C00
007C00
007C00
00F800
00F800
00F800
00F800
00F800
01F000
01F000
3FF000
7FF000
FFE000
FFE000
7FE000
ENDCHAR
STARTCHAR 005E
ENCODING 94
SWIDTH 600 0
DWIDTH 30 0
BBX 22 16 8 16
BITMAP
000400
000E00
001F00
003F00
007F80
00FFC0
01FFC0
03FFE0
07E7E0
0FC7F0
3F83F8
7F01F8
7E01FC
FC00FC
F80078
700070
ENDCHAR
STARTCHAR 005F
ENCODING 95
SWIDTH 600 0
DWIDTH 30 0
BBX 31 5 -2 -10
BITMAP
7FFFFFFE
7FFFFFFE
FFFFFFFC
FFFFFFFC
FFFFFFFC
ENDCHAR
STARTCHAR 0060
ENCODING 96
SWIDTH 600 0
DWIDTH 30 0
BBX 8 8 14 26
BITMAP
F0
F8
FC
7E
3F
1F
0F
07
ENDCHAR
STARTCHAR 0061
ENCODING 97
SWIDTH 600 0
DWIDTH 30 0
BBX 26 23 3 0
BITMAP
007FFC00
01FFFE00
03FFFF00
03FFFF80
03FFFF80
00000F80
00000F80
000F0F80
00FFFF00
07FFFF00
0FFFFF00
1FFFFF00
3F807F00
7E001E00
7C003E00
F8003E00
F800FE00
FC07FF80
FFFFFFC0
7FFFFFC0
7FFFFFC0
3FFE7F80
0FF00000
ENDCHAR
STARTCHAR 0062
ENCODING 98
SWIDTH 600 0
DWIDTH 30 0
BBX 31 31 0 0
BITMAP
01FE0000
03FE0000
03FE0000
03FC0000
03FC0000
007C0000
007C0000
007C0000
00F80000
00F8FFC0
00FBFFF0
00FFFFF8
00FFFFF8
01FFFFFC
01FE00FC
01FC007E
01F8003E
03F0003E
03F0003E
03E0003E
03E0003E
03E0007C
07E0007C
07E000F8
07F001F8
07F803F0
7FFFFFE0
FFFFFFE0
FFFFFF80
FFFFFF00
7F9FFC00
ENDCHAR
STARTCHAR 0063
ENCODING 99
SWIDTH 600 0
DWIDTH 30 0
BBX 27 23 4 0
BITMAP
003FF9C0
00FFFFE0
03FFFFC0
07FFFFC0
0FFFFFC0
1FC01FC0
3F000FC0
3E000F80
7E000F00
7C000000
7C000000
F8000000
F8000000
F8000000
F8000000
FC000000
FC000E00
7F003F00
7FFFFF00
3FFFFE00
3FFFFC00
0FFFF000
03FF8000
ENDCHAR
STARTCHAR 0064
ENCODING 100
SWIDTH 600 0
DWIDTH 30 0
BBX 29 31 4 0
BITMAP
000007F8
00000FF8
00000FF8
00000FF8
00000FF8
000001F0
000001F0
000001F0
000001F0
003FF3E0
01FFFFE0
03FFFFE0
07FFFFE0
0FFFFFE0
1FC03FC0
3F001FC0
7E000FC0
7C000FC0
7C000FC0
F8000F80
F8000F80
F8001F80
F8001F80
F8003F00
FC007F00
FE00FF00
7FFFFFE0
7FFFFFF0
3FFFFFE0
1FFFFFE0
07FE3FC0
ENDCHAR
STARTCHAR 0065
ENCODING 101
SWIDTH 600 0
DWIDTH 30 0
BBX 26 23 4 0
BITMAP
003FF800
00FFFC00
03FFFF00
07FFFF00
0FFFFF80
1FC03F80
3F000FC0
3E000FC0
7C0007C0
7FFFFFC0
FFFFFFC0
FFFFFFC0
FFFFFFC0
FFFFFF80
F8000000
FC000000
FE000E00
7F00FF00
7FFFFF00
3FFFFF00
1FFFFE00
0FFFF000
01FF0000
ENDCHAR
STARTCHAR 0066
ENCODING 102
SWIDTH 600 0
DWIDTH 30 0
BBX 31 31 4 0
BITMAP
00003FF0
0000FFFC
0003FFFE
0007FFFC
000FFFF8
000FC000
001F0000
001F0000
001F0000
03FFFF80
07FFFFC0
0FFFFFC0
0FFFFF80
07FFFF00
007C0000
007C0000
007C0000
007C0000
007C0000
00F80000
00F80000
00F80000
00F80000
00F00000
01F00000
01F00000
3FFFF800
7FFFFC00
FFFFFC00
FFFFF800
7FFFF000
ENDCHAR
STARTCHAR 0067
ENCODING 103
SWIDTH 600 0
DWIDTH 30 0
BBX 30 32 3 -9
BITMAP
007FE7F8
01FFFFFC
03FFFFFC
07FFFFFC
0FFFFFF8
1FC07F80
3F003F80
7E001F80
7C001F80
7C001F00
F8001F00
F8001F00
F8003F00
F8003F00
F8007E00
FC00FE00
FE01FE00
7FFFFE00
7FFFFE00
3FFFFC00
1FFF7C00
07FC7C00
00007C00
0000F800
0000F800
0001F800
0007F000
1FFFE000
3FFFC000
3FFF8000
3FFF0000
3FF80000
ENDCHAR
STARTCHAR 0068
ENCODING 104
SWIDTH 600 0
DWIDTH 30 0
BBX 28 31 2 0
BITMAP
03FC0000
07FC0000
07FC0000
07FC0000
07F80000
00F80000
00F80000
00F80000
00F80000
01F1FF00
01F7FF80
01FFFFC0
01FFFFE0
01FFFFE0
03FC07E0
03F803E0
03E003E0
03E003E0
07C003E0
07C007C0
07C007C0
07C007C0
07C007C0
0F800780
0F800F80
0F800F80
7FE07FE0
FFF0FFF0
FFF0FFF0
FFF0FFF0
FFE07FE0
ENDCHAR
STARTCHAR 0069
ENCODING 105
SWIDTH 600 0
DWIDTH 30 0
BBX 23 31 4 0
BITMAP
0007E0
0007E0
0007E0
0007E0
0007C0
000000
000000
000000
000000
01FFC0
03FFC0
07FFC0
07FF80
03FF80
000F80
000F80
000F80
001F00
001F00
001F00
001F00
001F00
003E00
003E00
003E00
003E00
7FFFFE
FFFFFE
FFFFFE
FFFFFE
FFFFFC
ENDCHAR
STARTCHAR 006A
ENCODING 106
SWIDTH 600 0
DWIDTH 30 0
BBX 25 41 3 -10
BITMAP
00003F00
00003F00
00003F00
00007E00
00007E00
00000000
00000000
00000000
00000000
00FFFF80
03FFFF80
03FFFF00
03FFFF00
01FFFF00
00001F00
00001F00
00003E00
00003E00
00003E00
00003E00
00003E00
00007C00
00007C00
00007C00
00007C00
00007C00
0000F800
0000F800
0000F800
0000F800
0001F000
0001F000
0001F000
0001F000
0003E000
000FE000
3FFFC000
7FFF8000
FFFF0000
FFFC0000
7FF00000
ENDCHAR
STARTCHAR 006B
ENCODING 107
SWIDTH 600 0
DWIDTH 30 0
BBX 28 31 2 0
BITMAP
01FE0000
03FE0000
03FE0000
03FE0000
03FC0000
007C0000
007C0000
007C0000
007C0000
00F87FF0
00F8FFF0
00F8FFF0
00F8FFF0
01F0FFE0
01F1FC00
01F7F800
01FFE000
01FFC000
03FF8000
03FF8000
03FFC000
03FFC000
03EFE000
07C7F000
07C3F800
07C1FC00
3FC0FFE0
7F81FFE0
FF83FFE0
FF83FFE0
7F81FFC0
ENDCHAR
STARTCHAR 006C
ENCODING 108
SWIDTH 600 0
DWIDTH 30 0
BBX 23 31 4 0
BITMAP
007FF0
00FFF0
01FFF0
01FFE0
00FFE0
0003E0
0003E0
0003E0
0007C0
0007C0
0007C0
0007C0
000780
000F80
000F80
000F80
000F80
001F00
001F00
001F00
001F00
001F00
003E00
003E00
003E00
003E00
7FFFFE
FFFFFE
FFFFFE
FFFFFE
FFFFFC
ENDCHAR
STARTCHAR 006D
ENCODING 109
SWIDTH 600 0
DWIDTH 30 0
BBX 32 22 0 1
BITMAP
07F7E1FC
0FFFF7FE
1FFFFFFF
1FFFFFFF
0FFFFFFF
03F0FE1F
07E0F81F
07C0F81F
07C1F01F
07C1F01F
0781F03E
0F81F03E
0F81F03E
0F83E03E
0F83E03E
1F03E07C
1F03E07C
7FC3F07F
FFE7F87F
FFE7F87F
FFC7F8FF
FF87F0FE
ENDCHAR
STARTCHAR 006E
ENCODING 110
SWIDTH 600 0
DWIDTH 30 0
BBX 28 22 2 1
BITMAP
07F1FF00
0FF7FF80
0FFFFFC0
0FFFFFE0
0FFFFFE0
03FC07E0
03F003E0
03E003E0
03E003E0
07C003E0
07C007C0
07C007C0
07C007C0
07C007C0
0F800780
0F800F80
0F800F80
7FE03FE0
FFF07FF0
FFF07FF0
FFE07FF0
FFC03FE0
ENDCHAR
STARTCHAR 006F
ENCODING 111
SWIDTH 600 0
DWIDTH 30 0
BBX 26 23 4 0
BITMAP
003FF800
00FFFC00
03FFFE00
07FFFF00
0FFFFF80
1FC03F80
3F000FC0
3E000FC0
7C0007C0
7C0007C0
F80007C0
F80007C0
F8000FC0
F8000F80
F8001F80
FC003F00
FE007E00
7F81FE00
7FFFFC00
3FFFF000
1FFFE000
0FFF8000
01FE0000
ENDCHAR
STARTCHAR 0070
ENCODING 112
SWIDTH 600 0
DWIDTH 30 0
BBX 33 32 -2 -9
BITMAP
01FE3FF000
03FEFFFC00
03FFFFFE00
03FFFFFF00
03FFFFFF00
007F803F80
007E001F80
007E000F80
00FC000F80
00F8000F80
00F8000F80
00F8001F80
00F8001F00
01FC003F00
01FC007E00
01FF01FC00
01FFFFF800
03FFFFF000
03EFFFE000
03E7FF8000
03E1FE0000
03E0000000
07C0000000
07C0000000
07C0000000
07C0000000
07C0000000
7FFE000000
FFFE000000
FFFE000000
FFFE000000
FFFC000000
ENDCHAR
STARTCHAR 0071
ENCODING 113
SWIDTH 600 0
DWIDTH 30 0
BBX 31 32 2 -9
BITMAP
007FE3FC
01FFFBFE
07FFFFFE
0FFFFFFE
1FFFFFFC
1F803FC0
3F001FC0
7E000FC0
7C000FC0
78000F80
F8000F80
F8001F80
F8001F80
FC003F80
FC007F00
FF01FF00
7FFFFF00
3FFFFF00
1FFFFF00
0FFF3E00
03FC3E00
00003E00
00003E00
00007C00
00007C00
00007C00
00007C00
001FFF80
003FFF80
003FFF80
003FFF80
003FFF00
ENDCHAR
STARTCHAR 0072
ENCODING 114
SWIDTH 600 0
DWIDTH 30 0
BBX 29 22 2 1
BITMAP
01FE0FF0
07FE3FF8
07FEFFF8
07FFFFF8
03FFFFF8
007FF000
007FC000
007F8000
007E0000
007C0000
00F80000
00F80000
00F80000
00F80000
00F80000
01F00000
01F00000
3FFFF800
7FFFFC00
FFFFFC00
FFFFF800
7FFFF000
ENDCHAR
STARTCHAR 0073
ENCODING 115
SWIDTH 600 0
DWIDTH 30 0
BBX 26 23 4 0
BITMAP
003FFB80
00FFFFC0
01FFFFC0
03FFFF80
07FFFF80
0FC01F80
0FC00F00
0FE00000
0FFF0000
0FFFF000
07FFFC00
03FFFE00
007FFE00
0003FE00
38007F00
7C003F00
7C003E00
FF00FE00
FFFFFC00
FFFFF800
FFFFF000
FFFFC000
03FE0000
ENDCHAR
STARTCHAR 0074
ENCODING 116
SWIDTH 600 0
DWIDTH 30 0
BBX 22 30 5 0
BITMAP
01E000
01F000
03E000
03E000
03E000
03E000
03E000
7FFFF8
FFFFFC
FFFFFC
FFFFFC
7FFFF8
0F8000
0F8000
0F8000
0F8000
0F0000
1F0000
1F0000
1F0000
1F0000
3E0000
3E0000
3E001C
3F01FC
3FFFFC
3FFFFC
1FFFF0
0FFFC0
03FC00
ENDCHAR
STARTCHAR 0075
ENCODING 117
SWIDTH 600 0
DWIDTH 30 0
BBX 25 22 5 0
BITMAP
7F80FF80
FF81FF80
FF01FF80
FF01FF00
FF01FF00
1F001F00
1F001F00
3E001F00
3E003E00
3E003E00
3E003E00
7E003E00
7C003E00
7C007C00
7C007C00
7C00FC00
7C03FC00
7FFFFF00
7FFFFF00
3FFFFF00
1FFEFF00
0FF8FE00
ENDCHAR
STARTCHAR 0076
ENCODING 118
SWIDTH 600 0
DWIDTH 30 0
BBX 30 22 3 0
BITMAP
3FF83FFC
FFF87FFC
FFF87FFC
FFF87FFC
7FF07FF8
0F800F80
0FC01F00
0FC03F00
07C03E00
07E07C00
07E0FC00
07E1F800
03E1F000
03F3E000
03F7E000
01F7C000
01FF8000
01FF8000
01FF0000
00FE0000
00FE0000
00FC0000
ENDCHAR
STARTCHAR 0077
ENCODING 119
SWIDTH 600 0
DWIDTH 30 0
BBX 30 22 3 0
BITMAP
7FC00FF8
FFE01FFC
FFE01FFC
FFC01FF8
7F801FF0
3E0F87C0
3E1F87C0
3E1F8FC0
3E3F8F80
3E7F8F80
3F7FDF00
3FFFDF00
3FFFFE00
3FF7FE00
3FF7FC00
3FE7FC00
3FE7F800
3FC7F800
1F83F000
1F83F000
1F03F000
1F03E000
ENDCHAR
STARTCHAR 0078
ENCODING 120
SWIDTH 600 0
DWIDTH 30 0
BBX 30 22 2 0
BITMAP
07FE0FF8
0FFE1FFC
0FFE1FFC
0FFE1FFC
07FC1FF0
01FC3FC0
00FE7F80
007FFE00
007FFC00
003FF800
001FE000
003FF000
007FF800
01FFFC00
03FDFE00
07F0FF00
1FE07F80
7FE07FE0
FFF0FFE0
FFF1FFE0
FFE1FFE0
FFC0FFC0
ENDCHAR
STARTCHAR 0079
ENCODING 121
SWIDTH 600 0
DWIDTH 30 0
BBX 34 32 -1 -10
BITMAP
01FF00FF80
03FF81FFC0
03FF83FFC0
03FF03FF80
03FE01FF00
00F8007C00
00FC00F800
00FC01F800
007C03F000
007E03E000
007E07C000
003E0FC000
003F0F8000
003F1F0000
003F3F0000
001FFE0000
001FFC0000
001FF80000
000FF80000
000FF00000
000FE00000
0007C00000
000FC00000
001F800000
001F000000
003E000000
007E000000
7FFF800000
FFFF800000
FFFF800000
FFFF800000
7FFF000000
ENDCHAR
STARTCHAR 007A
ENCODING 122
SWIDTH 600 0
DWIDTH 30 0
BBX 26 22 4 0
BITMAP
07FFFFC0
07FFFFC0
07FFFF80
07FFFF80
0FFFFF00
0F80FE00
0F81FC00
0F83F800
0607F000
001FC000
003F8000
007F0000
00FE0000
03F80000
07F00C00
0FE01E00
1FC03E00
3FFFFE00
7FFFFE00
7FFFFC00
7FFFFC00
FFFFFC00
ENDCHAR
STARTCHAR 007B
ENCODING 123
SWIDTH 600 0
DWIDTH 30 0
BBX 19 39 10 -8
BITMAP
0003C0
000FE0
001FE0
003FC0
007F80
00FC00
00F800
00F800
01F000
01F000
01F000
01F000
01F000
03E000
03E000
03E000
07C000
7FC000
FF8000
FF0000
FF0000
7F8000
1F8000
0F8000
0F8000
0F8000
0F8000
0F8000
1F0000
1F0000
1F0000
1F0000
1F0000
1F8000
1FC000
1FE000
0FE000
0FE000
03C000
ENDCHAR
STARTCHAR 007C
ENCODING 124
SWIDTH 600 0
DWIDTH 30 0
BBX 12 39 11 -8
BITMAP
00F0
00F0
01F0
01F0
01F0
01F0
03E0
03E0
03E0
03E0
07E0
07C0
07C0
07C0
07C0
0F80
0F80
0F80
0F80
0F80
1F00
1F00
1F00
1F00
3F00
3E00
3E00
3E00
3E00
7C00
7C00
7C00
7C00
7C00
F800
F800
F800
F000
6000
ENDCHAR
STARTCHAR 007D
ENCODING 125
SWIDTH 600 0
DWIDTH 30 0
BBX 19 39 6 -8
BITMAP
007800
00FC00
00FE00
00FF00
007F00
003F00
001F00
001F80
001F00
001F00
001F00
001F00
001E00
003E00
003E00
003E00
003F00
003FC0
001FE0
001FE0
003FE0
007FC0
007C00
00F800
00F800
00F800
00F800
01F000
01F000
01F000
01F000
03E000
03E000
07E000
3FC000
7FC000
FF8000
FF0000
7C0000
ENDCHAR
STARTCHAR 007E
ENCODING 126
SWIDTH 600 0
DWIDTH 30 0
BBX 24 10 6 9
BITMAP
03E000
0FF807
1FFC0F
3FFC1F
7FFE7F
FEFFFE
F87FFC
F01FF8
E00FF0
0007C0
ENDCHAR
STARTCHAR 00A0
ENCODING 160
SWIDTH 600 0
DWIDTH 30 0
BBX 0 0 0 0
BITMAP
ENDCHAR
STARTCHAR 00A1
ENCODING 161
SWIDTH 600 0
DWIDTH 30 0
BBX 13 33 9 -10
BITMAP
00F0
03F8
03F8
07F8
07F0
03F0
0180
0000
0000
0000
0380
0F80
0F80
0F80
1F80
1F80
1F80
1F80
3F80
3F80
3F00
3F00
7F00
7F00
7F00
7F00
FF00
FF00
FF00
FE00
FE00
FC00
7800
ENDCHAR
STARTCHAR 00A2
ENCODING 162
SWIDTH 600 0
DWIDTH 30 0
BBX 23 35 7 -2
BITMAP
000700
000F80
000F80
000F80
000F80
001F00
001F00
003FE0
01FFFC
03FFFE
0FFFFC
1FFFFC
1F80FC
3F007C
7E0078
7C0078
F80000
F80000
F80000
F80000
FC0000
FC00F0
FF07F0
7FFFF0
7FFFE0
3FFFC0
1FFF00
03FC00
03E000
03E000
03E000
03E000
07E000
07C000
038000
ENDCHAR
STARTCHAR 00A3
ENCODING 163
SWIDTH 600 0
DWIDTH 30 0
BBX 24 30 4 0
BITMAP
0003F0
000FFC
001FFE
003FFF
007FFF
00FC3F
00F81E
01F00C
01F000
01F000
01F000
01F000
01F000
1FFF80
3FFFC0
3FFFC0
3FFFC0
3FFF80
01F000
01F000
03F000
03E000
03E000
07C00E
0FC01F
7FFFFF
FFFFFF
FFFFFE
FFFFFC
7FFFF8
ENDCHAR
STARTCHAR 00A4
ENCODING 164
SWIDTH 600 0
DWIDTH 30 0
BBX 26 22 5 3
BITMAP
070003C0
0F8FC7C0
1FFFFFC0
0FFFFF80
0FFFFF00
07FFFE00
07F0FE00
0FC07E00
0F803E00
1F003E00
1F003E00
1F003E00
1F007C00
1F80FC00
1FC3F800
1FFFF800
3FFFFC00
7FFFFC00
FFFFFE00
F8FC7C00
F0003800
60000000
ENDCHAR
STARTCHAR 00A5
ENCODING 165
SWIDTH 600 0
DWIDTH 30 0
BBX 28 29 7 0
BITMAP
7FC03FE0
FFE07FF0
FFE0FFF0
FFE0FFE0
FFC07FC0
1F807E00
1F80FC00
0FC0FC00
0FC1F800
07E3F000
07E7E000
03FFC000
03FF8000
03FF0000
01FE0000
1FFFE000
3FFFF000
3FFFE000
00F80000
3FFFC000
7FFFE000
7FFFC000
01F00000
01F00000
3FFF0000
7FFF8000
FFFF8000
FFFF0000
7FFE0000
ENDCHAR
STARTCHAR 00A6
ENCODING 166
SWIDTH 600 0
DWIDTH 30 0
BBX 12 39 11 -8
BITMAP
00F0
00F0
01F0
01F0
01F0
01F0
03E0
03E0
03E0
03E0
07E0
07C0
07C0
07C0
07C0
0780
0300
0000
0000
0000
0000
0000
0E00
1F00
1E00
3E00
3E00
3E00
3E00
7C00
7C00
7C00
7C00
7C00
F800
F800
F800
F000
6000
ENDCHAR
STARTCHAR 00A7
ENCODING 167
SWIDTH 600 0
DWIDTH 30 0
BBX 29 38 3 -9
BITMAP
0001FFF8
000FFFF8
001FFFF8
003FFFF8
007FFFF8
007C00F0
00F800F0
00F000F0
00F800E0
01F80000
07FE0000
0FFF0000
1FFFC000
1F1FE000
3E0FF800
3E07FC00
3E01FF00
3F00FF80
1F803FC0
1FE01FE0
0FF00FE0
07FC07E0
01FE03E0
00FF83E0
007FC7C0
001FFFC0
000FFF80
0003FF00
0001FC00
3800F000
7C00F000
7800F000
7801F000
7FFFE000
FFFFE000
FFFFC000
FFFF0000
FFFC0000
ENDCHAR
STARTCHAR 00A8
ENCODING 168
SWIDTH 600 0
DWIDTH 30 0
BBX 16 6 13 27
BITMAP
380E
7C1F
FC3F
FC3F
F83E
701C
ENDCHAR
STARTCHAR 00A9
ENCODING 169
SWIDTH 600 0
DWIDTH 30 0
BBX 32 31 2 -1
BITMAP
00007800
0007FF80
001FFFE0
007FFFF0
01FE03F8
03F000FC
07C0407C
0F87FF3E
1F1FFF1E
1E3FFF1E
3C7C1F0F
3C780E0F
78F00C0F
78F0000F
70E0000F
F1E0000E
F1E0001E
F1E0001E
F1E0001C
F1F0383C
F1FFF878
F0FFF078
787FE0F0
781F81E0
7C0003C0
3E000F80
1F803F00
0FFFFE00
07FFF800
03FFF000
007F8000
ENDCHAR
STARTCHAR 00AA
ENCODING 170
SWIDTH 600 0
DWIDTH 30 0
BBX 20 21 8 9
BITMAP
01FF80
03FFC0
03FFE0
0007E0
0001E0
01FFE0
07FFC0
0FFFC0
1F03C0
3E03C0
3E0FF0
3FFFF0
3FFFF0
1FFFE0
07E000
000000
000000
3FFFC0
7FFFC0
FFFFC0
7FFFC0
ENDCHAR
STARTCHAR 00AB
ENCODING 171
SWIDTH 600 0
DWIDTH 30 0
BBX 29 20 4 1
BITMAP
00018010
00078078
000F81F0
003F03E0
007C0FC0
01F81F00
03F07E00
0FC1FC00
3F83F800
7F0FE000
FE0FE000
3F07F000
1F83F800
0FC1F800
07E0FC00
03F03E00
01F81F00
00F80F80
007C0780
00180300
ENDCHAR
STARTCHAR 00AC
ENCODING 172
SWIDTH 600 0
DWIDTH 30 0
BBX 22 16 6 7
BITMAP
0FFFFC
7FFFFC
FFFFFC
FFFFF8
FFFFF8
1FFFF8
0000F8
0000F0
0001F0
0001F0
0001F0
0001F0
0003E0
0003E0
0003E0
0003C0
ENDCHAR
STARTCHAR 00AD
ENCODING 173
SWIDTH 600 0
DWIDTH 30 0
BBX 26 5 5 11
BITMAP
3FFFFF80
FFFFFFC0
FFFFFFC0
FFFFFFC0
7FFFFF00
ENDCHAR
STARTCHAR 00AE
ENCODING 174
SWIDTH 600 0
DWIDTH 30 0
BBX 32 31 2 -1
BITMAP
00003C00
0003FF80
001FFFE0
007FFFF0
00FF03F8
01F800FC
03E0007C
07C7C03E
0F3FFC1E
1E3FFE1E
3E1FFE0F
3C0E1F0F
780E0F0F
781E1E0F
701EFE0F
F01FFC0E
F01FF80E
F01FF01E
F03CF81E
F03CF83C
F03C7C3C
F0FF7E78
F9FF3EF0
78FE3DF0
7C0003E0
3E000FC0
1F803F80
0FFFFE00
07FFFC00
03FFF000
007F8000
ENDCHAR
STARTCHAR 00AF
ENCODING 175
SWIDTH 600 0
DWIDTH 30 0
BBX 18 4 12 27
BITMAP
3FFFC0
7FFFC0
FFFFC0
7FFF80
ENDCHAR
STARTCHAR 00B0
ENCODING 176
SWIDTH 600 0
DWIDTH 30 0
BBX 17 17 11 13
BITMAP
03FC00
07FE00
1FFF00
3E0F80
380780
700380
700380
E00380
E00380
E00780
E00700
E00F00
F01E00
783C00
7FF800
3FF000
0FC000
ENDCHAR
STARTCHAR 00B1
ENCODING 177
SWIDTH 600 0
DWIDTH 30 0
BBX 29 31 3 0
BITMAP
00007000
0000F800
0000F800
0001F000
0001F000
0001F000
0001F000
0003E000
0003E000
07FFFFF8
0FFFFFF8
1FFFFFF8
1FFFFFF8
0FFFFFF0
0007C000
0007C000
0007C000
000F8000
000F8000
000F8000
000F0000
000F0000
00000000
00000000
00000000
00000000
7FFFFF80
FFFFFF80
FFFFFF80
FFFFFF80
FFFFFF00
ENDCHAR
STARTCHAR 00B2
ENCODING 178
SWIDTH 600 0
DWIDTH 30 0
BBX 16 20 12 18
BITMAP
00FC
03FE
07FF
078F
0F07
0E07
0407
000F
001E
003C
00F8
01F0
03E0
0FC0
1F00
3E0C
FC1C
FFFC
FFFC
FFFC
ENDCHAR
STARTCHAR 00B3
ENCODING 179
SWIDTH 600 0
DWIDTH 30 0
BBX 15 20 13 18
BITMAP
03F8
0FFE
1FFE
1C1E
000E
000E
001E
01FC
03F0
03F8
00FC
003C
001C
001C
001C
003C
F0F8
FFF8
FFE0
3F80
ENDCHAR
STARTCHAR 00B4
ENCODING 180
SWIDTH 600 0
DWIDTH 30 0
BBX 10 8 17 25
BITMAP
0180
07C0
0F80
1F00
7E00
F800
F000
6000
ENDCHAR
STARTCHAR 00B5
ENCODING 181
SWIDTH 600 0
DWIDTH 30 0
BBX 26 29 4 -7
BITMAP
3FC07FC0
7FC0FFC0
7FC0FFC0
7FC0FF80
7F80FF80
0F800F80
0F800F80
0F800F80
0F801F00
1F001F00
1F001F00
1F001F00
1F003E00
3E003E00
3E003E00
3E007E00
3E01FE00
3F07FF00
7FFFFF80
7FFFFF80
7FFFFF80
7FFEFF00
7FF00000
F8000000
F8000000
F8000000
F8000000
F0000000
E0000000
ENDCHAR
STARTCHAR 00B6
ENCODING 182
SWIDTH 600 0
DWIDTH 30 0
BBX 29 38 5 -9
BITMAP
000FFFF0
007FFFF8
01FFFFF0
07FFFFE0
0FF3CF00
1FC38E00
1F879E00
3F079E00
3E079E00
7E079E00
7E0F1C00
7E0F3C00
7E0F3C00
7E0F3C00
7F0F3C00
3FDE7800
1FFE7800
0FFE7800
07FE7800
00FE7000
003CF000
003CF000
003CF000
003CF000
0078E000
0079E000
0079E000
0079E000
0079E000
00F1C000
00F3C000
00F3C000
00F3C000
00F38000
7FF7F800
FFFFF800
FFFFF800
FFEFF000
ENDCHAR
STARTCHAR 00B7
ENCODING 183
SWIDTH 600 0
DWIDTH 30 0
BBX 6 6 15 9
BITMAP
38
7C
FC
FC
F8
70
ENDCHAR
STARTCHAR 00B8
ENCODING 184
SWIDTH 600 0
DWIDTH 30 0
BBX 12 10 8 -10
BITMAP
0780
07E0
07E0
07F0
00F0
00E0
FFE0
FFC0
FF80
3F00
ENDCHAR
STARTCHAR 00B9
ENCODING 185
SWIDTH 600 0
DWIDTH 30 0
BBX 13 20 12 18
BITMAP
0030
03F0
0FF0
1FF0
1FF0
00E0
00E0
00E0
01E0
01E0
01C0
01C0
01C0
03C0
0380
0380
0380
FFF8
FFF8
FFF8
ENDCHAR
STARTCHAR 00BA
ENCODING 186
SWIDTH 600 0
DWIDTH 30 0
BBX 20 21 8 9
BITMAP
007F80
01FFC0
03FFE0
07F7F0
0F81F0
0F00F0
1E00F0
1E00F0
1E01F0
1E01E0
1F87E0
0FFFC0
0FFF80
07FE00
01F800
000000
000000
7FFF80
FFFFC0
FFFFC0
FFFF80
ENDCHAR
STARTCHAR 00BB
ENCODING 187
SWIDTH 600 0
DWIDTH 30 0
BBX 28 20 2 1
BITMAP
0400C000
0F01E000
0F81F000
07C0F800
07E07C00
03F03F00
01F81F80
00FC0FC0
007E0FE0
003F87F0
003F87F0
007E0FE0
01FC1F80
03F07F00
07E0FC00
1F81F800
3E03E000
7C0F8000
F00F0000
E00C0000
ENDCHAR
STARTCHAR 00BC
ENCODING 188
SWIDTH 600 0
DWIDTH 30 0
BBX 30 33 2 -1
BITMAP
00700000
07F00000
1FE00000
1FE00018
1CE00038
01E00078
01E000F0
01C001E0
01C001C0
01C00380
03C00780
03C00F00
03801E00
03801C00
03803C7C
0780787C
FFF8F0FC
FFF8E1F8
FFF9C3F8
0003C3D8
00078798
000F0F98
000E1F30
001C1E30
003C3C30
00787FF0
0070FFF8
00E0FFF8
01C0FFF8
0080FFF0
00000FF0
00000FF0
00000FF0
ENDCHAR
STARTCHAR 00BD
ENCODING 189
SWIDTH 600 0
DWIDTH 30 0
BBX 33 32 1 0
BITMAP
0070000000
03F0000000
0FF0000000
1FF0003800
0EE0003800
00E0007800
00E000F000
01E001E000
01E003C000
01C0038000
01C0078000
01C00F0000
03C01E0000
03C03C7E00
038039FF00
03807BFF80
7FF8F3C780
FFFDE70380
FFFBC70380
0003800780
0007800F00
000F001F00
001E003E00
003C007C00
007801F000
007803E000
00F00FC000
01E01F0600
01C07E0E00
00007FFE00
00007FFE00
00007FFE00
ENDCHAR
STARTCHAR 00BE
ENCODING 190
SWIDTH 600 0
DWIDTH 30 0
BBX 31 32 2 0
BITMAP
01F80000
0FFC0000
1FFE0000
1F3E0070
000E0070
000E00F0
000E01E0
001E03C0
01FC0780
03F00700
03F80F00
007C1E00
001C3C00
001C7800
001C703E
001CF07C
607DE0FC
FFFBC1FC
FFF781FC
7FC703B8
000F07B8
001E0F38
003C1E78
00383C78
00707870
00F07FF8
01E0FFFC
03C0FFF8
038000E0
000007F8
00000FF8
000007F0
ENDCHAR
STARTCHAR 00BF
ENCODING 191
SWIDTH 600 0
DWIDTH 30 0
BBX 20 31 4 -10
BITMAP
000780
001FC0
001FC0
003FC0
003F80
001F80
000C00
000000
000000
000000
001800
003C00
007C00
01FC00
03FC00
0FF800
1FF000
3FC000
7F0000
7E0000
FC0000
F800E0
F800F0
F801F0
FC01F0
FE07F0
FFFFE0
7FFFE0
3FFFC0
1FFF00
07F000
ENDCHAR
STARTCHAR 00C0
ENCODING 192
SWIDTH 600 0
DWIDTH 30 0
BBX 33 40 -1 0
BITMAP
0000E00000
0000F00000
0000F80000
00007C0000
00003E0000
00001F0000
00000F0000
0000070000
0000000000
0000000000
0000000000
000FFF8000
001FFF8000
003FFF8000
003FFFC000
001FFFC000
0000FFC000
0001FFC000
0001F7C000
0003E7E000
0007E7E000
0007C7E000
000F87E000
001F83E000
001F03F000
003E03F000
003E03F000
007FFFF000
00FFFFF000
00FFFFF800
01FFFFF800
01FFFFF800
03E000F800
07E000F800
07C000FC00
3FF80FFF00
7FFC1FFF80
FFFC1FFF80
FFF81FFF00
7FF00FFE00
ENDCHAR
STARTCHAR 00C1
ENCODING 193
SWIDTH 600 0
DWIDTH 30 0
BBX 33 40 -1 0
BITMAP
000000E000
000001E000
000007E000
00000FC000
00001F0000
00003E0000
00007C0000
0000300000
0000000000
0000000000
0000000000
000FFF8000
001FFF8000
003FFF8000
003FFFC000
001FFFC000
0000FFC000
0001FFC000
0001F7C000
0003E7E000
0007E7E000
0007C7E000
000F87E000
001F83E000
001F03F000
003E03F000
003E03F000
007FFFF000
00FFFFF000
00FFFFF800
01FFFFF800
01FFFFF800
03E000F800
07E000F800
07C000FC00
3FF80FFF00
7FFC1FFF80
FFFC1FFF80
FFF81FFF00
7FF00FFE00
ENDCHAR
STARTCHAR 00C2
ENCODING 194
SWIDTH 600 0
DWIDTH 30 0
BBX 33 40 -1 0
BITMAP
0000070000
00000F8000
00003FC000
0000FFF000
0003FBF800
0007E0FC00
0007807C00
0006001800
0000000000
0000000000
0000000000
000FFF8000
001FFF8000
003FFF8000
003FFFC000
001FFFC000
0000FFC000
0001FFC000
0001F7C000
0003E7E000
0007E7E000
0007C7E000
000F87E000
001F83E000
001F03F000
003E03F000
003E03F000
007FFFF000
00FFFFF000
00FFFFF800
01FFFFF800
01FFFFF800
03E000F800
07E000F800
07C000FC00
3FF80FFF00
7FFC1FFF80
FFFC1FFF80
FFF81FFF00
7FF00FFE00
ENDCHAR
STARTCHAR 00C3
ENCODING 195
SWIDTH 600 0
DWIDTH 30 0
BBX 33 39 -1 0
BITMAP
0003E01800
000FF87800
001FFFF800
001E7FF000
003C1FE000
0010030000
0000000000
0000000000
0000000000
0000000000
000FFF8000
001FFF8000
003FFF8000
003FFFC000
001FFFC000
0000FFC000
0001FFC000
0001F7C000
0003E7E000
0007E7E000
0007C7E000
000F87E000
001F83E000
001F03F000
003E03F000
003E03F000
007FFFF000
00FFFFF000
00FFFFF800
01FFFFF800
01FFFFF800
03E000F800
07E000F800
07C000FC00
3FF80FFF00
7FFC1FFF80
FFFC1FFF80
FFF81FFF00
7FF00FFE00
ENDCHAR
STARTCHAR 00C4
ENCODING 196
SWIDTH 600 0
DWIDTH 30 0
BBX 33 39 -1 0
BITMAP
0001C07000
0003E0F800
0007E1F800
0007E1F800
0007C1F000
000380E000
0000000000
0000000000
0000000000
0000000000
000FFF8000
001FFF8000
003FFF8000
003FFFC000
001FFFC000
0000FFC000
0001FFC000
0001F7C000
0003E7E000
0007E7E000
0007C7E000
000F87E000
001F83E000
001F03F000
003E03F000
003E03F000
007FFFF000
00FFFFF000
00FFFFF800
01FFFFF800
01FFFFF800
03E000F800
07E000F800
07C000FC00
3FF80FFF00
7FFC1FFF80
FFFC1FFF80
FFF81FFF00
7FF00FFE00
ENDCHAR
STARTCHAR 00C5
ENCODING 197
SWIDTH 600 0
DWIDTH 30 0
BBX 33 40 -1 0
BITMAP
00000F8000
00003FC000
00003FE000
000071E000
000070E000
000073C000
00007FC000
00003F8000
00001E0000
0000000000
0000000000
000FFF8000
001FFF8000
003FFF8000
003FFFC000
001FFFC000
0000FFC000
0001FFC000
0001F7C000
0003E7E000
0007E7E000
0007C7E000
000F87E000
001F83E000
001F03F000
003E03F000
003E03F000
007FFFF000
00FFFFF000
00FFFFF800
01FFFFF800
01FFFFF800
03E000F800
07E000F800
07C000FC00
3FF80FFF00
7FFC1FFF80
FFFC1FFF80
FFF81FFF00
7FF00FFE00
ENDCHAR
STARTCHAR 00C6
ENCODING 198
SWIDTH 600 0
DWIDTH 30 0
BBX 36 29 0 0
BITMAP
001FFFFFF0
003FFFFFF0
003FFFFFE0
003FFFFFE0
001FFFFFE0
0007FE03E0
0007FE07C0
000FBE07C0
000FBE07C0
001F3E67C0
001F7CF780
003E7DF000
003E7FF000
007C7FF000
007CFFE000
00F8FFE000
00FFFFE000
01FFFBE000
01FFFBC000
03FFF10000
03FFF00F00
07C1F00F00
07C1F01F00
0F81F01F00
7FCFFFFF00
FFFFFFFE00
FFFFFFFE00
FFDFFFFE00
FF8FFFFE00
ENDCHAR
STARTCHAR 00C7
ENCODING 199
SWIDTH 600 0
DWIDTH 30 0
BBX 29 39 4 -9
BITMAP
000FFE30
003FFFF8
00FFFFF8
01FFFFF8
03FFFFF8
07F007F0
0FE003F0
0F8001F0
1F8001F0
3F0001E0
3E0000C0
3E000000
7C000000
7C000000
7C000000
78000000
F8000000
F8000000
F8000000
F8000000
F8000000
FC000300
FE000780
7F000FC0
7FE07F80
3FFFFF00
1FFFFE00
0FFFFC00
03FFF000
007F0000
007E0000
007E0000
00FF0000
000F0000
000E0000
0FFE0000
0FFC0000
0FF80000
03F00000
ENDCHAR
STARTCHAR 00C8
ENCODING 200
SWIDTH 600 0
DWIDTH 30 0
BBX 31 40 1 0
BITMAP
0000E000
0001F000
0001F800
0000FC00
00007E00
00003E00
00001F00
00000E00
00000000
00000000
00000000
03FFFFFE
07FFFFFE
07FFFFFE
07FFFFFC
07FFFFFC
00F8007C
00F8007C
00F800FC
00F800F8
01F078F8
01F0F870
01F0F800
01FFF800
01FFF000
03FFF000
03FFF000
03FFF000
03E1E000
07C1E000
07C1C0E0
07C001F0
07C001F0
07C003F0
0F8003E0
7FFFFFE0
FFFFFFE0
FFFFFFE0
FFFFFFC0
FFFFFFC0
ENDCHAR
STARTCHAR 00C9
ENCODING 201
SWIDTH 600 0
DWIDTH 30 0
BBX 31 40 1 0
BITMAP
00000380
00000780
00001F80
00003F00
00007C00
0000F800
0000F000
0000C000
00000000
00000000
00000000
03FFFFFE
07FFFFFE
07FFFFFE
07FFFFFC
07FFFFFC
00F8007C
00F8007C
00F800FC
00F800F8
01F078F8
01F0F870
01F0F800
01FFF800
01FFF000
03FFF000
03FFF000
03FFF000
03E1E000
07C1E000
07C1C0E0
07C001F0
07C001F0
07C003F0
0F8003E0
7FFFFFE0
FFFFFFE0
FFFFFFE0
FFFFFFC0
FFFFFFC0
ENDCHAR
STARTCHAR 00CA
ENCODING 202
SWIDTH 600 0
DWIDTH 30 0
BBX 31 40 1 0
BITMAP
00000C00
00003E00
0000FF80
0003FFC0
0007FFE0
001FC3F0
001F00F0
001C0070
00000000
00000000
00000000
03FFFFFE
07FFFFFE
07FFFFFE
07FFFFFC
07FFFFFC
00F8007C
00F8007C
00F800FC
00F800F8
01F078F8
01F0F870
01F0F800
01FFF800
01FFF000
03FFF000
03FFF000
03FFF000
03E1E000
07C1E000
07C1C0E0
07C001F0
07C001F0
07C003F0
0F8003E0
7FFFFFE0
FFFFFFE0
FFFFFFE0
FFFFFFC0
FFFFFFC0
ENDCHAR
STARTCHAR 00CB
ENCODING 203
SWIDTH 600 0
DWIDTH 30 0
BBX 31 39 1 0
BITMAP
0001C070
0003E0F8
0007E1F8
0007E1F8
0007C1F0
000380E0
00000000
00000000
00000000
00000000
03FFFFFE
07FFFFFE
07FFFFFE
07FFFFFC
07FFFFFC
00F8007C
00F8007C
00F800FC
00F800F8
01F078F8
01F0F870
01F0F800
01FFF800
01FFF000
03FFF000
03FFF000
03FFF000
03E1E000
07C1E000
07C1C0E0
07C001F0
07C001F0
07C003F0
0F8003E0
7FFFFFE0
FFFFFFE0
FFFFFFE0
FFFFFFC0
FFFFFFC0
ENDCHAR
STARTCHAR 00CC
ENCODING 204
SWIDTH 600 0
DWIDTH 30 0
BBX 27 40 3 0
BITMAP
00038000
0003C000
0003E000
0001F000
0000F800
00007C00
00003C00
00001C00
00000000
00000000
00000000
01FFFFE0
03FFFFE0
07FFFFE0
07FFFFE0
03FFFFC0
0007C000
0007C000
0007C000
000F8000
000F8000
000F8000
000F8000
000F8000
001F0000
001F0000
001F0000
001F0000
003E0000
003E0000
003E0000
003E0000
003E0000
007C0000
007C0000
3FFFF800
7FFFFC00
FFFFFC00
FFFFF800
7FFFF000
ENDCHAR
STARTCHAR 00CD
ENCODING 205
SWIDTH 600 0
DWIDTH 30 0
BBX 27 40 3 0
BITMAP
00000E00
00001E00
00007E00
0000FC00
0001F000
0003E000
0007C000
00030000
00000000
00000000
00000000
01FFFFE0
03FFFFE0
07FFFFE0
07FFFFE0
03FFFFC0
0007C000
0007C000
0007C000
000F8000
000F8000
000F8000
000F8000
000F8000
001F0000
001F0000
001F0000
001F0000
003E0000
003E0000
003E0000
003E0000
003E0000
007C0000
007C0000
3FFFF800
7FFFFC00
FFFFFC00
FFFFF800
7FFFF000
ENDCHAR
STARTCHAR 00CE
ENCODING 206
SWIDTH 600 0
DWIDTH 30 0
BBX 27 40 3 0
BITMAP
00006000
0001F800
0003FC00
000FFE00
003FBF80
007E1FC0
00F807C0
00600180
00000000
00000000
00000000
01FFFFE0
03FFFFE0
07FFFFE0
07FFFFE0
03FFFFC0
0007C000
0007C000
0007C000
000F8000
000F8000
000F8000
000F8000
000F8000
001F0000
001F0000
001F0000
001F0000
003E0000
003E0000
003E0000
003E0000
003E0000
007C0000
007C0000
3FFFF800
7FFFFC00
FFFFFC00
FFFFF800
7FFFF000
ENDCHAR
STARTCHAR 00CF
ENCODING 207
SWIDTH 600 0
DWIDTH 30 0
BBX 27 39 3 0
BITMAP
001E0780
003E0F80
003F0FC0
007E1F80
003E0F80
00180600
00000000
00000000
00000000
00000000
01FFFFE0
03FFFFE0
07FFFFE0
07FFFFE0
03FFFFC0
0007C000
0007C000
0007C000
000F8000
000F8000
000F8000
000F8000
000F8000
001F0000
001F0000
001F0000
001F0000
003E0000
003E0000
003E0000
003E0000
003E0000
007C0000
007C0000
3FFFF800
7FFFFC00
FFFFFC00
FFFFF800
7FFFF000
ENDCHAR
STARTCHAR 00D0
ENCODING 208
SWIDTH 600 0
DWIDTH 30 0
BBX 30 29 1 0
BITMAP
01FFFE00
03FFFF80
07FFFFE0
07FFFFF0
03FFFFF0
00F807F8
00F801F8
01F000FC
01F000FC
01F0007C
01F0007C
03E0007C
0FFF807C
1FFFC07C
3FFFC07C
3FFF80F8
1FFF00F8
07C000F8
07C001F8
07C001F0
07C003F0
0F8007E0
0F800FC0
0F803FC0
3FFFFF80
7FFFFF00
FFFFFC00
FFFFF000
7FFF8000
ENDCHAR
STARTCHAR 00D1
ENCODING 209
SWIDTH 600 0
DWIDTH 30 0
BBX 34 39 1 0
BITMAP
0003E01C00
0007FC3C00
000FFFF800
001F7FF000
001C0FE000
0000038000
0000000000
0000000000
0000000000
0000000000
03FC03FFC0
07FC07FFC0
0FFE07FFC0
0FFE07FFC0
07FF03FF80
00FF003E00
01FF807C00
01FF807C00
01FFC07C00
01FFC07C00
01FFE0F800
03E7E0F800
03E7E0F800
03E3F0F800
03E3F0F800
03C1F9F000
07C1F9F000
07C1FDF000
07C0FDF000
07C0FFF000
0F807FE000
0F807FE000
0F803FE000
0F803FE000
7FF81FC000
FFF81FC000
FFF81FC000
FFF80FC000
7FF00FC000
ENDCHAR
STARTCHAR 00D2
ENCODING 210
SWIDTH 600 0
DWIDTH 30 0
BBX 28 40 3 0
BITMAP
0001C000
0003E000
0003F000
0001F800
0000FC00
00007C00
00003E00
00001C00
00000000
00000000
00000000
000FFC00
003FFE00
00FFFF80
01FFFFC0
03FFFFC0
07F00FE0
0FC007E0
1F8003F0
1F0003F0
3F0001F0
3E0001F0
7C0001F0
7C0001F0
780001F0
F80001F0
F80003E0
F80003E0
F80003E0
F80007C0
F8000FC0
FC000F80
FC001F80
7E003F00
7F00FE00
3FFFFC00
3FFFF800
1FFFF000
0FFFC000
03FF0000
ENDCHAR
STARTCHAR 00D3
ENCODING 211
SWIDTH 600 0
DWIDTH 30 0
BBX 28 40 3 0
BITMAP
00000700
00001F00
00003E00
00007C00
0001F800
0003F000
0003C000
00018000
00000000
00000000
00000000
000FFC00
003FFE00
00FFFF80
01FFFFC0
03FFFFC0
07F00FE0
0FC007E0
1F8003F0
1F0003F0
3F0001F0
3E0001F0
7C0001F0
7C0001F0
780001F0
F80001F0
F80003E0
F80003E0
F80003E0
F80007C0
F8000FC0
FC000F80
FC001F80
7E003F00
7F00FE00
3FFFFC00
3FFFF800
1FFFF000
0FFFC000
03FF0000
ENDCHAR
STARTCHAR 00D4
ENCODING 212
SWIDTH 600 0
DWIDTH 30 0
BBX 28 40 3 0
BITMAP
00003000
0000FC00
0003FE00
0007FF00
001FDFC0
003F0FE0
007C03E0
003000C0
00000000
00000000
00000000
000FFC00
003FFE00
00FFFF80
01FFFFC0
03FFFFC0
07F00FE0
0FC007E0
1F8003F0
1F0003F0
3F0001F0
3E0001F0
7C0001F0
7C0001F0
780001F0
F80001F0
F80003E0
F80003E0
F80003E0
F80007C0
F8000FC0
FC000F80
FC001F80
7E003F00
7F00FE00
3FFFFC00
3FFFF800
1FFFF000
0FFFC000
03FF0000
ENDCHAR
STARTCHAR 00D5
ENCODING 213
SWIDTH 600 0
DWIDTH 30 0
BBX 28 39 3 0
BITMAP
0007C070
001FF0F0
003FFFE0
007CFFE0
00703F80
00200E00
00000000
00000000
00000000
00000000
000FFC00
003FFE00
00FFFF80
01FFFFC0
03FFFFC0
07F00FE0
0FC007E0
1F8003F0
1F0003F0
3F0001F0
3E0001F0
7C0001F0
7C0001F0
780001F0
F80001F0
F80003E0
F80003E0
F80003E0
F80007C0
F8000FC0
FC000F80
FC001F80
7E003F00
7F00FE00
3FFFFC00
3FFFF800
1FFFF000
0FFFC000
03FF0000
ENDCHAR
STARTCHAR 00D6
ENCODING 214
SWIDTH 600 0
DWIDTH 30 0
BBX 28 39 3 0
BITMAP
000E0380
001F07C0
003F0FC0
003F0FC0
003E0F80
001C0700
00000000
00000000
00000000
00000000
000FFC00
003FFE00
00FFFF80
01FFFFC0
03FFFFC0
07F00FE0
0FC007E0
1F8003F0
1F0003F0
3F0001F0
3E0001F0
7C0001F0
7C0001F0
780001F0
F80001F0
F80003E0
F80003E0
F80003E0
F80007C0
F8000FC0
FC000F80
FC001F80
7E003F00
7F00FE00
3FFFFC00
3FFFF800
1FFFF000
0FFFC000
03FF0000
ENDCHAR
STARTCHAR 00D7
ENCODING 215
SWIDTH 600 0
DWIDTH 30 0
BBX 24 20 6 4
BITMAP
07000E
0F801F
1FC07F
0FC0FE
0FE1FC
07F3F8
03FFF0
03FFE0
01FF80
00FF00
00FF00
01FF80
07FF80
0FFFC0
1FCFE0
3F87F0
7F03F0
FC03F0
F801F0
7000E0
ENDCHAR
STARTCHAR 00D8
ENCODING 216
SWIDTH 600 0
DWIDTH 30 0
BBX 35 35 0 -3
BITMAP
0000000040
00000001E0
00000003E0
0000FFC7E0
0003FFEFC0
000FFFFF80
001FFFFF00
003FFFFE00
007F00FE00
00FC01FE00
01F803FF00
01F007FF00
03F00FDF00
03E01F9F00
07C03F1F00
07C07E1F00
0780FC1F00
0F81F81F00
0F83F03E00
0F87E03E00
0F8FC03E00
0F9F807C00
0FBF00FC00
0FFE00F800
0FFC01F800
07F803F000
07F00FE000
07FFFFC000
0FFFFF8000
1FFFFF0000
3FFFFC0000
7E3FF00000
7C00000000
F800000000
7000000000
ENDCHAR
STARTCHAR 00D9
ENCODING 217
SWIDTH 600 0
DWIDTH 30 0
BBX 30 40 4 0
BITMAP
00070000
0007C000
0007C000
0003E000
0001F000
0000F800
00007800
00003800
00000000
00000000
00000000
3FF83FF8
7FFC7FFC
7FFC7FFC
7FF87FF8
7FF07FF0
1F0007C0
1F0007C0
1F0007C0
3E000F80
3E000F80
3E000F80
3E000F80
3E001F00
7C001F00
7C001F00
7C001F00
7C001F00
F8003E00
F8003E00
F8003E00
F8003E00
F8007C00
FC00FC00
FE03F800
7FFFF000
7FFFE000
3FFFC000
1FFF8000
07FE0000
ENDCHAR
STARTCHAR 00DA
ENCODING 218
SWIDTH 600 0
DWIDTH 30 0
BBX 30 40 4 0
BITMAP
00000C00
00003E00
00007C00
0000F800
0003F000
0007E000
00078000
00070000
00000000
00000000
00000000
3FF83FF8
7FFC7FFC
7FFC7FFC
7FF87FF8
7FF07FF0
1F0007C0
1F0007C0
1F0007C0
3E000F80
3E000F80
3E000F80
3E000F80
3E001F00
7C001F00
7C001F00
7C001F00
7C001F00
F8003E00
F8003E00
F8003E00
F8003E00
F8007C00
FC00FC00
FE03F800
7FFFF000
7FFFE000
3FFFC000
1FFF8000
07FE0000
ENDCHAR
STARTCHAR 00DB
ENCODING 219
SWIDTH 600 0
DWIDTH 30 0
BBX 30 40 4 0
BITMAP
0000E000
0001F000
0007F800
001FFE00
007F7F00
00FC1F80
00F00F80
00C00300
00000000
00000000
00000000
3FF83FF8
7FFC7FFC
7FFC7FFC
7FF87FF8
7FF07FF0
1F0007C0
1F0007C0
1F0007C0
3E000F80
3E000F80
3E000F80
3E000F80
3E001F00
7C001F00
7C001F00
7C001F00
7C001F00
F8003E00
F8003E00
F8003E00
F8003E00
F8007C00
FC00FC00
FE03F800
7FFFF000
7FFFE000
3FFFC000
1FFF8000
07FE0000
ENDCHAR
STARTCHAR 00DC
ENCODING 220
SWIDTH 600 0
DWIDTH 30 0
BBX 30 39 4 0
BITMAP
003C0F00
007E1F80
007E1F80
007C1F00
007C1F00
00300C00
00000000
00000000
00000000
00000000
3FF83FF8
7FFC7FFC
7FFC7FFC
7FF87FF8
7FF07FF0
1F0007C0
1F0007C0
1F0007C0
3E000F80
3E000F80
3E000F80
3E000F80
3E001F00
7C001F00
7C001F00
7C001F00
7C001F00
F8003E00
F8003E00
F8003E00
F8003E00
F8007C00
FC00FC00
FE03F800
7FFFF000
7FFFE000
3FFFC000
1FFF8000
07FE0000
ENDCHAR
STARTCHAR 00DD
ENCODING 221
SWIDTH 600 0
DWIDTH 30 0
BBX 28 40 4 0
BITMAP
00003800
00007800
0001F000
0003E000
0007C000
000F8000
001E0000
000C0000
00000000
00000000
00000000
3FE03FF0
7FE07FF0
FFE07FF0
FFE07FF0
7FC03FE0
1F803F00
0FC07E00
0FC0FC00
07E1F800
07E3F000
03F7E000
03FFC000
01FFC000
01FF8000
01FF0000
00FE0000
00FC0000
00F80000
00F80000
00F80000
00F80000
00F80000
01F00000
01F00000
7FFFC000
FFFFC000
FFFFC000
FFFFC000
7FFF8000
ENDCHAR
STARTCHAR 00DE
ENCODING 222
SWIDTH 600 0
DWIDTH 30 0
BBX 28 29 1 0
BITMAP
01FFFC00
03FFFE00
07FFFE00
07FFFC00
03FFF800
007C0000
007FC000
00FFFF80
00FFFFC0
00FFFFE0
00FFFFF0
01F01FF0
01F001F0
01F001F0
01F001F0
01F003E0
03E007E0
03FFFFC0
03FFFFC0
03FFFF80
03FFFE00
07FFF000
07C00000
07C00000
3FFF8000
7FFF8000
FFFF8000
FFFF8000
7FFF0000
ENDCHAR
STARTCHAR 00DF
ENCODING 223
SWIDTH 600 0
DWIDTH 30 0
BBX 27 32 1 -1
BITMAP
0001FC00
0007FF00
000FFF80
001FFF80
003FFFC0
007F0FC0
007C07C0
007C07C0
007C07C0
00F80780
00F81F80
00F8FF00
00FBFF00
01F3FF00
01F3FF80
01F1FFC0
01F03FC0
01F00FE0
03E007E0
03E003E0
03E003E0
03E003E0
03E003E0
07C003E0
07C1C7C0
07C3C7C0
3FE7CF80
7FE7FF80
FFE7FF00
FFE7FF00
7FC3FC00
0001F800
ENDCHAR
STARTCHAR 00E0
ENCODING 224
SWIDTH 600 0
DWIDTH 30 0
BBX 26 34 3 0
BITMAP
000F0000
000F8000
000FC000
0007E000
0003E000
0001F000
0000F000
00006000
00000000
00000000
00000000
007FFC00
01FFFE00
03FFFF00
03FFFF80
03FFFF80
00000F80
00000F80
000F0F80
00FFFF00
07FFFF00
0FFFFF00
1FFFFF00
3F807F00
7E001E00
7C003E00
F8003E00
F800FE00
FC07FF80
FFFFFFC0
7FFFFFC0
7FFFFFC0
3FFE7F80
0FF00000
ENDCHAR
STARTCHAR 00E1
ENCODING 225
SWIDTH 600 0
DWIDTH 30 0
BBX 26 34 3 -1
BITMAP
00001C00
00003C00
0000FC00
0001F000
0003E000
0007C000
000F8000
00060000
00000000
00000000
00000000
007FFC00
01FFFE00
03FFFF00
03FFFF80
03FFFF80
00000F80
00000F80
000F0F80
00FFFF00
07FFFF00
0FFFFF00
1FFFFF00
3F807F00
7E001E00
7C003E00
F8003E00
F800FE00
FC07FF80
FFFFFFC0
7FFFFFC0
7FFFFFC0
3FFE7F80
0FF00000
ENDCHAR
STARTCHAR 00E2
ENCODING 226
SWIDTH 600 0
DWIDTH 30 0
BBX 26 34 3 -1
BITMAP
0000C000
0003F000
000FF800
001FFE00
007F7F00
00FC1F80
01F00F80
00C00300
00000000
00000000
00000000
007FFC00
01FFFE00
03FFFF00
03FFFF80
03FFFF80
00000F80
00000F80
000F0F80
00FFFF00
07FFFF00
0FFFFF00
1FFFFF00
3F807F00
7E001E00
7C003E00
F8003E00
F800FE00
FC07FF80
FFFFFFC0
7FFFFFC0
7FFFFFC0
3FFE7F80
0FF00000
ENDCHAR
STARTCHAR 00E3
ENCODING 227
SWIDTH 600 0
DWIDTH 30 0
BBX 26 33 3 -1
BITMAP
000E00C0
003F81C0
00FFF7C0
00FFFF80
01E1FF00
00C07C00
00000000
00000000
00000000
00000000
007FFC00
01FFFE00
03FFFF00
03FFFF80
03FFFF80
00000F80
00000F80
000F0F80
00FFFF00
07FFFF00
0FFFFF00
1FFFFF00
3F807F00
7E001E00
7C003E00
F8003E00
F800FE00
FC07FF80
FFFFFFC0
7FFFFFC0
7FFFFFC0
3FFE7F80
0FF00000
ENDCHAR
STARTCHAR 00E4
ENCODING 228
SWIDTH 600 0
DWIDTH 30 0
BBX 26 33 3 -1
BITMAP
000C0300
003E0F80
003F0FC0
007E1F80
003E0F80
003C0F00
00000000
00000000
00000000
00000000
007FFC00
01FFFE00
03FFFF00
03FFFF80
03FFFF80
00000F80
00000F80
000F0F80
00FFFF00
07FFFF00
0FFFFF00
1FFFFF00
3F807F00
7E001E00
7C003E00
F8003E00
F800FE00
FC07FF80
FFFFFFC0
7FFFFFC0
7FFFFFC0
3FFE7F80
0FF00000
ENDCHAR
STARTCHAR 00E5
ENCODING 229
SWIDTH 600 0
DWIDTH 30 0
BBX 26 35 3 -1
BITMAP
0001F000
0007F800
000FFC00
000E3C00
000E3C00
000E3800
000FF800
000FF000
0007C000
00000000
00000000
00000000
007FFC00
01FFFE00
03FFFF00
03FFFF80
03FFFF80
00000F80
00000F80
000F0F80
00FFFF00
07FFFF00
0FFFFF00
1FFFFF00
3F807F00
7E001E00
7C003E00
F8003E00
F800FE00
FC07FF80
FFFFFFC0
7FFFFFC0
7FFFFFC0
3FFE7F80
0FF00000
ENDCHAR
STARTCHAR 00E6
ENCODING 230
SWIDTH 600 0
DWIDTH 30 0
BBX 32 23 0 0
BITMAP
00FFC3F8
03FFEFFC
03FFFFFE
07FFFFFE
03FFFFFF
0001FC3F
0001F81F
003FF01F
03FFFFFF
0FFFFFFF
1FFFFFFF
3FFFFFFE
7F03FFFE
7C03E000
F807E000
F807E000
F80FF000
FC3FF03C
FFFFFFFC
FFFFFFFC
7FFFFFF8
3FF77FF0
0FC03F80
ENDCHAR
STARTCHAR 00E7
ENCODING 231
SWIDTH 600 0
DWIDTH 30 0
BBX 26 32 4 -9
BITMAP
003FF9C0
01FFFFC0
03FFFFC0
07FFFFC0
0FFFFFC0
1FC01FC0
3F000F80
3E000F80
7E000F00
7C000000
7C000000
F8000000
F8000000
F8000000
F8000000
FC000000
FC000E00
7F003F00
7FFFFE00
3FFFFE00
3FFFF800
0FFFF000
03FF0000
00F80000
00FC0000
00FE0000
001E0000
001C0000
1FFC0000
1FF80000
1FF00000
07E00000
ENDCHAR
STARTCHAR 00E8
ENCODING 232
SWIDTH 600 0
DWIDTH 30 0
BBX 26 34 4 0
BITMAP
001E0000
001F0000
000F8000
000FC000
0007E000
0003F000
0001F000
0000E000
00000000
00000000
00000000
003FF800
00FFFC00
03FFFF00
07FFFF00
0FFFFF80
1FC03F80
3F000FC0
3E000FC0
7C0007C0
7FFFFFC0
FFFFFFC0
FFFFFFC0
FFFFFFC0
FFFFFF80
F8000000
FC000000
FE000E00
7F00FF00
7FFFFF00
3FFFFF00
1FFFFE00
0FFFF000
01FF0000
ENDCHAR
STARTCHAR 00E9
ENCODING 233
SWIDTH 600 0
DWIDTH 30 0
BBX 26 34 4 -1
BITMAP
00003800
00007C00
0000F800
0003F000
0007E000
000F8000
000F0000
00060000
00000000
00000000
00000000
003FF800
00FFFC00
03FFFF00
07FFFF00
0FFFFF80
1FC03F80
3F000FC0
3E000FC0
7C0007C0
7FFFFFC0
FFFFFFC0
FFFFFFC0
FFFFFFC0
FFFFFF80
F8000000
FC000000
FE000E00
7F00FF00
7FFFFF00
3FFFFF00
1FFFFE00
0FFFF000
01FF0000
ENDCHAR
STARTCHAR 00EA
ENCODING 234
SWIDTH 600 0
DWIDTH 30 0
BBX 26 35 4 -1
BITMAP
00008000
0003E000
000FF000
001FF800
007FFE00
01FC7F00
01F01F00
01C00700
00000000
00000000
00000000
00000000
003FF800
00FFFC00
03FFFF00
07FFFF00
0FFFFF80
1FC03F80
3F000FC0
3E000FC0
7C0007C0
7FFFFFC0
FFFFFFC0
FFFFFFC0
FFFFFFC0
FFFFFF80
F8000000
FC000000
FE000E00
7F00FF00
7FFFFF00
3FFFFF00
1FFFFE00
0FFFF000
01FF0000
ENDCHAR
STARTCHAR 00EB
ENCODING 235
SWIDTH 600 0
DWIDTH 30 0
BBX 26 33 4 -1
BITMAP
00180600
007C1F00
007C1F00
00FC3F00
00FC3F00
00781E00
00000000
00000000
00000000
00000000
003FF800
00FFFC00
03FFFF00
07FFFF00
0FFFFF80
1FC03F80
3F000FC0
3E000FC0
7C0007C0
7FFFFFC0
FFFFFFC0
FFFFFFC0
FFFFFFC0
FFFFFF80
F8000000
FC000000
FE000E00
7F00FF00
7FFFFF00
3FFFFF00
1FFFFE00
0FFFF000
01FF0000
ENDCHAR
STARTCHAR 00EC
ENCODING 236
SWIDTH 600 0
DWIDTH 30 0
BBX 23 34 4 0
BITMAP
000800
001E00
001F00
001F80
000FC0
0007C0
0003E0
0001E0
0000C0
000000
000000
000000
01FFC0
03FFC0
07FFC0
07FF80
03FF80
000F80
000F80
000F80
001F00
001F00
001F00
001F00
001F00
003E00
003E00
003E00
003E00
7FFFFE
FFFFFE
FFFFFE
FFFFFE
FFFFFC
ENDCHAR
STARTCHAR 00ED
ENCODING 237
SWIDTH 600 0
DWIDTH 30 0
BBX 23 33 4 0
BITMAP
000070
0000F8
0001F0
0007E0
000FC0
001F00
001E00
000C00
000000
000000
000000
01FFC0
03FFC0
07FFC0
07FF80
03FF80
000F80
000F80
000F80
001F00
001F00
001F00
001F00
001F00
003E00
003E00
003E00
003E00
7FFFFE
FFFFFE
FFFFFE
FFFFFE
FFFFFC
ENDCHAR
STARTCHAR 00EE
ENCODING 238
SWIDTH 600 0
DWIDTH 30 0
BBX 23 34 4 0
BITMAP
000300
000780
001FC0
007FF0
01FFF8
03F0FC
07C07E
07001C
000000
000000
000000
000000
01FFC0
03FFC0
07FFC0
07FF80
03FF80
000F80
000F80
000F80
001F00
001F00
001F00
001F00
001F00
003E00
003E00
003E00
003E00
7FFFFE
FFFFFE
FFFFFE
FFFFFE
FFFFFC
ENDCHAR
STARTCHAR 00EF
ENCODING 239
SWIDTH 600 0
DWIDTH 30 0
BBX 23 32 4 0
BITMAP
00701C
00F83E
01F87E
01F87E
01F07C
01E078
000000
000000
000000
000000
01FFC0
03FFC0
07FFC0
07FF80
03FF80
000F80
000F80
000F80
001F00
001F00
001F00
001F00
001F00
003E00
003E00
003E00
003E00
7FFFFE
FFFFFE
FFFFFE
FFFFFE
FFFFFC
ENDCHAR
STARTCHAR 00F0
ENCODING 240
SWIDTH 600 0
DWIDTH 30 0
BBX 27 33 4 0
BITMAP
007C0F00
007F3F00
007FFE00
001FF800
001FF800
003FFC00
00FC7E00
00F03F00
00C01F80
00000F80
007FE7C0
01FFFFC0
03FFFFC0
07FFFFC0
0FF07FE0
1FC01FE0
3F000FE0
3E000FE0
7C0007E0
7C0007C0
F80007C0
F80007C0
F80007C0
F8000F80
F8001F80
FC003F00
FE007E00
7F81FE00
7FFFFC00
3FFFF800
1FFFE000
07FF8000
01FE0000
ENDCHAR
STARTCHAR 00F1
ENCODING 241
SWIDTH 600 0
DWIDTH 30 0
BBX 28 32 2 0
BITMAP
00070060
001FE0E0
003FFBE0
007FFFC0
00F0FF80
00601F00
00000000
00000000
00000000
00000000
07F1FF00
0FF7FF80
0FFFFFC0
0FFFFFE0
0FFFFFE0
03FC07E0
03F003E0
03E003E0
03E003E0
07C003E0
07C007C0
07C007C0
07C007C0
07C007C0
0F800780
0F800F80
0F800F80
7FE03FE0
FFF07FF0
FFF07FF0
FFE07FF0
FFC03FE0
ENDCHAR
STARTCHAR 00F2
ENCODING 242
SWIDTH 600 0
DWIDTH 30 0
BBX 26 34 4 0
BITMAP
001E0000
001F0000
000F8000
000FC000
0007E000
0003F000
0001F000
0000E000
00000000
00000000
00000000
003FF800
00FFFC00
03FFFE00
07FFFF00
0FFFFF80
1FC03F80
3F000FC0
3E000FC0
7C0007C0
7C0007C0
F80007C0
F80007C0
F8000FC0
F8000F80
F8001F80
FC003F00
FE007E00
7F81FE00
7FFFFC00
3FFFF000
1FFFE000
0FFF8000
01FE0000
ENDCHAR
STARTCHAR 00F3
ENCODING 243
SWIDTH 600 0
DWIDTH 30 0
BBX 26 34 4 -1
BITMAP
00001800
00007C00
0000F800
0001F000
0007E000
000F8000
000F0000
000E0000
00000000
00000000
00000000
003FF800
00FFFC00
03FFFE00
07FFFF00
0FFFFF80
1FC03F80
3F000FC0
3E000FC0
7C0007C0
7C0007C0
F80007C0
F80007C0
F8000FC0
F8000F80
F8001F80
FC003F00
FE007E00
7F81FE00
7FFFFC00
3FFFF000
1FFFE000
0FFF8000
01FE0000
ENDCHAR
STARTCHAR 00F4
ENCODING 244
SWIDTH 600 0
DWIDTH 30 0
BBX 26 34 4 -1
BITMAP
0001C000
0003E000
000FF800
003FFC00
00FEFE00
01F83F00
01E00F00
01800700
00000000
00000000
00000000
003FF800
00FFFC00
03FFFE00
07FFFF00
0FFFFF80
1FC03F80
3F000FC0
3E000FC0
7C0007C0
7C0007C0
F80007C0
F80007C0
F8000FC0
F8000F80
F8001F80
FC003F00
FE007E00
7F81FE00
7FFFFC00
3FFFF000
1FFFE000
0FFF8000
01FE0000
ENDCHAR
STARTCHAR 00F5
ENCODING 245
SWIDTH 600 0
DWIDTH 30 0
BBX 26 33 4 -1
BITMAP
001E0180
007F83C0
00FFEF80
01FFFF80
01C1FE00
01807C00
00000000
00000000
00000000
00000000
003FF800
00FFFC00
03FFFE00
07FFFF00
0FFFFF80
1FC03F80
3F000FC0
3E000FC0
7C0007C0
7C0007C0
F80007C0
F80007C0
F8000FC0
F8000F80
F8001F80
FC003F00
FE007E00
7F81FE00
7FFFFC00
3FFFF000
1FFFE000
0FFF8000
01FE0000
ENDCHAR
STARTCHAR 00F6
ENCODING 246
SWIDTH 600 0
DWIDTH 30 0
BBX 26 33 4 -1
BITMAP
001C0700
003E0F80
007E1F80
007E1F80
007C1F00
00380E00
00000000
00000000
00000000
00000000
003FF800
00FFFC00
03FFFE00
07FFFF00
0FFFFF80
1FC03F80
3F000FC0
3E000FC0
7C0007C0
7C0007C0
F80007C0
F80007C0
F8000FC0
F8000F80
F8001F80
FC003F00
FE007E00
7F81FE00
7FFFFC00
3FFFF000
1FFFE000
0FFF8000
01FE0000
ENDCHAR
STARTCHAR 00F7
ENCODING 247
SWIDTH 600 0
DWIDTH 30 0
BBX 26 26 5 1
BITMAP
00010000
000FC000
000FE000
001FE000
001FC000
001FC000
000F0000
00000000
00000000
00000000
7FFFFF80
FFFFFFC0
FFFFFFC0
FFFFFFC0
7FFFFF80
00000000
00000000
00000000
00000000
00100000
00FC0000
01FE0000
01FE0000
01FC0000
01FC0000
00F00000
ENDCHAR
STARTCHAR 00F8
ENCODING 248
SWIDTH 600 0
DWIDTH 30 0
BBX 33 29 0 -4
BITMAP
0000000300
0000000780
0000001F80
0007FF3F80
001FFFFF00
007FFFFE00
00FFFFF800
01FFFFF800
03F80FF800
07F01FFC00
07C03FFC00
0F807F7C00
0F81FC7C00
1F03F87C00
1F07F07C00
1F0FE0F800
1F3F80F800
1F7F01F800
1FFE03F000
1FFC07E000
0FF03FC000
0FFFFF8000
1FFFFF0000
3FFFFE0000
7FFFF80000
FC3FC00000
F800000000
F000000000
4000000000
ENDCHAR
STARTCHAR 00F9
ENCODING 249
SWIDTH 600 0
DWIDTH 30 0
BBX 25 34 5 0
BITMAP
00080000
003C0000
003E0000
003F0000
001F8000
000FC000
0007C000
0003C000
0001C000
00000000
00000000
00000000
7F80FF80
FF81FF80
FF01FF80
FF01FF00
FF01FF00
1F001F00
1F001F00
3E001F00
3E003E00
3E003E00
3E003E00
7E003E00
7C003E00
7C007C00
7C007C00
7C00FC00
7C03FC00
7FFFFF00
7FFFFF00
3FFFFF00
1FFEFF00
0FF8FE00
ENDCHAR
STARTCHAR 00FA
ENCODING 250
SWIDTH 600 0
DWIDTH 30 0
BBX 25 33 5 0
BITMAP
00007000
0001F000
0003E000
0007C000
000F8000
001F0000
003C0000
00180000
00000000
00000000
00000000
7F80FF80
FF81FF80
FF01FF80
FF01FF00
FF01FF00
1F001F00
1F001F00
3E001F00
3E003E00
3E003E00
3E003E00
7E003E00
7C003E00
7C007C00
7C007C00
7C00FC00
7C03FC00
7FFFFF00
7FFFFF00
3FFFFF00
1FFEFF00
0FF8FE00
ENDCHAR
STARTCHAR 00FB
ENCODING 251
SWIDTH 600 0
DWIDTH 30 0
BBX 25 33 5 0
BITMAP
00038000
0007C000
001FE000
007FF800
01FDFC00
03F07E00
03C03E00
03000C00
00000000
00000000
00000000
7F80FF80
FF81FF80
FF01FF80
FF01FF00
FF01FF00
1F001F00
1F001F00
3E001F00
3E003E00
3E003E00
3E003E00
7E003E00
7C003E00
7C007C00
7C007C00
7C00FC00
7C03FC00
7FFFFF00
7FFFFF00
3FFFFF00
1FFEFF00
0FF8FE00
ENDCHAR
STARTCHAR 00FC
ENCODING 252
SWIDTH 600 0
DWIDTH 30 0
BBX 25 32 5 0
BITMAP
00300C00
00F83E00
00FC3F00
01F87E00
00F83E00
00F03C00
00000000
00000000
00000000
00000000
7F80FF80
FF81FF80
FF01FF80
FF01FF00
FF01FF00
1F001F00
1F001F00
3E001F00
3E003E00
3E003E00
3E003E00
7E003E00
7C003E00
7C007C00
7C007C00
7C00FC00
7C03FC00
7FFFFF00
7FFFFF00
3FFFFF00
1FFEFF00
0FF8FE00
ENDCHAR
STARTCHAR 00FD
ENCODING 253
SWIDTH 600 0
DWIDTH 30 0
BBX 34 43 -1 -10
BITMAP
000000E000
000001F000
000003E000
00000FC000
00001F8000
00003E0000
00003C0000
0000180000
0000000000
0000000000
0000000000
01FF00FF80
03FF81FFC0
03FF83FFC0
03FF03FF80
03FE01FF00
00F8007C00
00FC00F800
00FC01F800
007C03F000
007E03E000
007E07C000
003E0FC000
003F0F8000
003F1F0000
003F3F0000
001FFE0000
001FFC0000
001FF80000
000FF80000
000FF00000
000FE00000
0007C00000
000FC00000
001F800000
001F000000
003E000000
007E000000
7FFF800000
FFFF800000
FFFF800000
FFFF800000
7FFF000000
ENDCHAR
STARTCHAR 00FE
ENCODING 254
SWIDTH 600 0
DWIDTH 30 0
BBX 33 41 -2 -10
BITMAP
007F800000
00FF800000
00FF800000
00FF800000
00FF000000
001F000000
001F000000
001F000000
001F000000
003E3FF000
003EFFFC00
003FFFFE00
003FFFFF00
007FFFFF00
007F803F80
007E001F80
007E000F80
007C000F80
00F8000F80
00F8000F80
00F8001F80
00F8001F00
00FC003F00
01FC007E00
01FF01FC00
01FFFFFC00
01FFFFF000
03FFFFE000
03E7FF8000
03E1FE0000
03E0000000
03E0000000
07C0000000
07C0000000
07C0000000
07C0000000
7FFE000000
FFFE000000
FFFE000000
FFFE000000
7FFC000000
ENDCHAR
STARTCHAR 00FF
ENCODING 255
SWIDTH 600 0
DWIDTH 30 0
BBX 34 42 -1 -10
BITMAP
0000E03800
0001F07C00
0003F0FC00
0003F0FC00
0003E0F800
0003C0F000
0000000000
0000000000
0000000000
0000000000
01FF00FF80
03FF81FFC0
03FF83FFC0
03FF03FF80
03FE01FF00
00F8007C00
00FC00F800
00FC01F800
007C03F000
007E03E000
007E07C000
003E0FC000
003F0F8000
003F1F0000
003F3F0000
001FFE0000
001FFC0000
001FF80000
000FF80000
000FF00000
000FE00000
0007C00000
000FC00000
001F800000
001F000000
003E000000
007E000000
7FFF800000
FFFF800000
FFFF800000
FFFF800000
7FFF000000
ENDCHAR
STARTCHAR 0100
ENCODING 256
SWIDTH 600 0
DWIDTH 30 0
BBX 33 37 -1 0
BITMAP
0001FFE000
000FFFF800
000FFFF800
000FFFF800
0000000000
0000000000
0000000000
0000000000
000FFF8000
001FFF8000
003FFF8000
003FFFC000
001FFFC000
0000FFC000
0001FFC000
0001F7C000
0003E7E000
0007E7E000
0007C7E000
000F87E000
001F83E000
001F03F000
003E03F000
003E03F000
007FFFF000
00FFFFF000
00FFFFF800
01FFFFF800
01FFFFF800
03E000F800
07E000F800
07C000FC00
3FF80FFF00
7FFC1FFF80
FFFC1FFF80
FFF81FFF00
7FF00FFE00
ENDCHAR
STARTCHAR 0101
ENCODING 257
SWIDTH 600 0
DWIDTH 30 0
BBX 26 30 3 -1
BITMAP
003FFFC0
007FFFC0
007FFFC0
007FFF80
00000000
00000000
00000000
007FFC00
01FFFE00
03FFFF00
03FFFF80
03FFFF80
00000F80
00000F80
000F0F80
00FFFF00
07FFFF00
0FFFFF00
1FFFFF00
3F807F00
7E001E00
7C003E00
F8003E00
F800FE00
FC07FF80
FFFFFFC0
7FFFFFC0
7FFFFFC0
3FFE7F80
0FF00000
ENDCHAR
STARTCHAR 0102
ENCODING 258
SWIDTH 600 0
DWIDTH 30 0
BBX 33 40 -1 0
BITMAP
0002000800
0007001C00
000F003C00
0007807800
0007FFF800
0003FFE000
0001FFC000
00003E0000
0000000000
0000000000
0000000000
000FFF8000
001FFF8000
003FFF8000
003FFFC000
001FFFC000
0000FFC000
0001FFC000
0001F7C000
0003E7E000
0007E7E000
0007C7E000
000F87E000
001F83E000
001F03F000
003E03F000
003E03F000
007FFFF000
00FFFFF000
00FFFFF800
01FFFFF800
01FFFFF800
03E000F800
07E000F800
07C000FC00
3FF80FFF00
7FFC1FFF80
FFFC1FFF80
FFF81FFF00
7FF00FFE00
ENDCHAR
STARTCHAR 0103
ENCODING 259
SWIDTH 600 0
DWIDTH 30 0
BBX 26 34 3 -1
BITMAP
003000C0
007001C0
007803C0
007C07C0
003FFF80
001FFE00
000FFC00
0000C000
00000000
00000000
00000000
007FFC00
01FFFE00
03FFFF00
03FFFF80
03FFFF80
00000F80
00000F80
000F0F80
00FFFF00
07FFFF00
0FFFFF00
1FFFFF00
3F807F00
7E001E00
7C003E00
F8003E00
F800FE00
FC07FF80
FFFFFFC0
7FFFFFC0
7FFFFFC0
3FFE7F80
0FF00000
ENDCHAR
STARTCHAR 0104
ENCODING 260
SWIDTH 600 0
DWIDTH 30 0
BBX 33 39 -1 -10
BITMAP
000FFF8000
001FFF8000
003FFF8000
003FFFC000
001FFFC000
0000FFC000
0001FFC000
0001F7C000
0003E7E000
0007E7E000
0007C7E000
000F87E000
001F83E000
001F03F000
003E03F000
003E03F000
007FFFF000
00FFFFF000
00FFFFF800
01FFFFF800
01FFFFF800
03E000F800
07E000F800
07C000FC00
3FF80FFF00
7FFC1FFF80
FFFC1FFF80
FFF81FFF00
7FF01FFE00
0000007800
000001E000
000003C000
0000078000
00000F0000
00000F1C00
00000FFC00
00000FFC00
000007F800
000003E000
ENDCHAR
STARTCHAR 0105
ENCODING 261
SWIDTH 600 0
DWIDTH 30 0
BBX 26 32 3 -9
BITMAP
007FFC00
01FFFE00
03FFFF00
03FFFF80
03FFFF80
00000F80
00000F80
000F8F80
00FFFF80
03FFFF00
0FFFFF00
1FFFFF00
3FC03F00
7E003E00
7C003E00
F8003E00
F800FE00
FC07FF80
FFFFFFC0
7FFFFFC0
7FFFFFC0
3FFF7F80
0FF03E00
00007C00
0000F000
0001E000
0003C000
0003C600
0003FF00
0003FF00
0003FE00
0001F800
ENDCHAR
STARTCHAR 0106
ENCODING 262
SWIDTH 600 0
DWIDTH 30 0
BBX 28 40 4 0
BITMAP
00000700
00001F00
00003E00
00007C00
0001F800
0003F000
0003C000
00018000
00000000
00000000
00000000
000FFC60
003FFFF0
00FFFFF0
01FFFFF0
03FFFFF0
07F00FE0
0FC007E0
1F8003E0
1F0003E0
3F0003C0
3E000180
7E000000
7C000000
7C000000
7C000000
F8000000
F8000000
F8000000
F8000000
F8000000
F8000000
FC000700
FE000F00
7F003F00
7FFFFF00
3FFFFE00
1FFFFC00
0FFFF000
03FFC000
ENDCHAR
STARTCHAR 0107
ENCODING 263
SWIDTH 600 0
DWIDTH 30 0
BBX 27 34 4 -1
BITMAP
00001C00
00003E00
00007C00
0001F800
0003F000
0007C000
00078000
00030000
00000000
00000000
00000000
003FF9C0
00FFFFE0
03FFFFC0
07FFFFC0
0FFFFFC0
1FC01FC0
3F000FC0
3E000F80
7E000F00
7C000000
7C000000
F8000000
F8000000
F8000000
F8000000
FC000000
FC000E00
7F003F00
7FFFFF00
3FFFFE00
3FFFFC00
0FFFF000
03FF8000
ENDCHAR
STARTCHAR 0108
ENCODING 264
SWIDTH 600 0
DWIDTH 30 0
BBX 28 40 4 0
BITMAP
00003000
0000F800
0003FE00
000FFF00
003FFF80
007F0FC0
007C03C0
007001C0
00000000
00000000
00000000
000FFC60
003FFFF0
00FFFFF0
01FFFFF0
03FFFFF0
07F00FE0
0FC007E0
1F8003E0
1F0003E0
3F0003C0
3E000180
7E000000
7C000000
7C000000
7C000000
F8000000
F8000000
F8000000
F8000000
F8000000
F8000000
FC000700
FE000F00
7F003F00
7FFFFF00
3FFFFE00
1FFFFC00
0FFFF000
03FFC000
ENDCHAR
STARTCHAR 0109
ENCODING 265
SWIDTH 600 0
DWIDTH 30 0
BBX 27 35 4 -1
BITMAP
00004000
0001E000
0007F000
001FFC00
007FFE00
00FE3F00
01F81F80
01E00700
00000000
00000000
00000000
00000000
003FF9C0
00FFFFE0
03FFFFC0
07FFFFC0
0FFFFFC0
1FC01FC0
3F000FC0
3E000F80
7E000F00
7C000000
7C000000
F8000000
F8000000
F8000000
F8000000
FC000000
FC000E00
7F003F00
7FFFFF00
3FFFFE00
3FFFFC00
0FFFF000
03FF8000
ENDCHAR
STARTCHAR 010A
ENCODING 266
SWIDTH 600 0
DWIDTH 30 0
BBX 28 39 4 0
BITMAP
0000F000
0001F800
0001F800
0001F000
0001F000
0000C000
00000000
00000000
00000000
00000000
000FFC60
003FFFF0
00FFFFF0
01FFFFF0
03FFFFF0
07F00FE0
0FC007E0
1F8003E0
1F0003E0
3F0003C0
3E000180
7E000000
7C000000
7C000000
7C000000
F8000000
F8000000
F8000000
F8000000
F8000000
F8000000
FC000700
FE000F00
7F003F00
7FFFFF00
3FFFFE00
1FFFFC00
0FFFF000
03FFC000
ENDCHAR
STARTCHAR 010B
ENCODING 267
SWIDTH 600 0
DWIDTH 30 0
BBX 27 33 4 -1
BITMAP
0001C000
0003E000
0007E000
0007E000
0007C000
00038000
00000000
00000000
00000000
00000000
003FF9C0
00FFFFE0
03FFFFC0
07FFFFC0
0FFFFFC0
1FC01FC0
3F000FC0
3E000F80
7E000F00
7C000000
7C000000
F8000000
F8000000
F8000000
F8000000
FC000000
FC000E00
7F003F00
7FFFFF00
3FFFFE00
3FFFFC00
0FFFF000
03FF8000
ENDCHAR
STARTCHAR 010C
ENCODING 268
SWIDTH 600 0
DWIDTH 30 0
BBX 28 40 4 0
BITMAP
00180060
003C01E0
003F07E0
001FDFC0
000FFF00
0007FC00
0001F000
0000E000
00000000
00000000
00000000
000FFC60
003FFFF0
00FFFFF0
01FFFFF0
03FFFFF0
07F00FE0
0FC007E0
1F8003E0
1F0003E0
3F0003C0
3E000180
7E000000
7C000000
7C000000
7C000000
F8000000
F8000000
F8000000
F8000000
F8000000
F8000000
FC000700
FE000F00
7F003F00
7FFFFF00
3FFFFE00
1FFFFC00
0FFFF000
03FFC000
ENDCHAR
STARTCHAR 010D
ENCODING 269
SWIDTH 600 0
DWIDTH 30 0
BBX 27 34 4 -1
BITMAP
00600180
00F807C0
00FC1F80
007F7F00
003FFC00
000FF000
0007E000
00018000
00000000
00000000
00000000
003FF9C0
00FFFFE0
03FFFFC0
07FFFFC0
0FFFFFC0
1FC01FC0
3F000FC0
3E000F80
7E000F00
7C000000
7C000000
F8000000
F8000000
F8000000
F8000000
FC000000
FC000E00
7F003F00
7FFFFF00
3FFFFE00
3FFFFC00
0FFFF000
03FF8000
ENDCHAR
STARTCHAR 010E
ENCODING 270
SWIDTH 600 0
DWIDTH 30 0
BBX 30 40 1 0
BITMAP
000C0030
001E00F0
001F83F0
000FEFE0
0007FF80
0003FE00
0000F800
00007000
00000000
00000000
00000000
01FFFE00
03FFFF80
07FFFFE0
07FFFFF0
03FFFFF0
00F807F8
00F801F8
01F000FC
01F000FC
01F0007C
01F0007C
03E0007C
03E0007C
03E0007C
03E0007C
03E000F8
07C000F8
07C000F8
07C001F8
07C001F0
07C003F0
0F8007E0
0F800FC0
0F803FC0
3FFFFF80
7FFFFE00
FFFFFC00
FFFFF000
7FFF8000
ENDCHAR
STARTCHAR 010F
ENCODING 271
SWIDTH 600 0
DWIDTH 30 0
BBX 38 32 0 0
BITMAP
0000000018
000007F87C
00000FF8F8
00001FF1F0
00001FF7E0
00000FFF80
000001FF00
000001F600
000003E000
000003E000
007FE3E000
01FFFBE000
07FFFFE000
0FFFFFC000
1FFFFFC000
3F803FC000
3F001FC000
7E001F8000
7C000F8000
F8000F8000
F8000F8000
F8001F8000
F8001F0000
F8003F0000
F8003F0000
FC007F0000
FE01FF0000
FFFFFFE000
7FFFFFE000
3FFFFFE000
1FFFBFE000
0FFE7FC000
ENDCHAR
STARTCHAR 0110
ENCODING 272
SWIDTH 600 0
DWIDTH 30 0
BBX 30 29 1 0
BITMAP
01FFFE00
03FFFF80
07FFFFE0
07FFFFF0
03FFFFF0
00F807F8
00F801F8
01F000FC
01F000FC
01F0007C
01F0007C
03E0007C
0FFF807C
1FFFC07C
3FFFC07C
3FFF80F8
1FFF00F8
07C000F8
07C001F8
07C001F0
07C003F0
0F8007E0
0F800FC0
0F803FC0
3FFFFF80
7FFFFF00
FFFFFC00
FFFFF000
7FFF8000
ENDCHAR
STARTCHAR 0111
ENCODING 273
SWIDTH 600 0
DWIDTH 30 0
BBX 32 31 2 0
BITMAP
000007F8
00000FF8
00000FF8
00000FF8
00000FF8
000001F0
000001FE
000001FF
000001FF
003FF1FE
01FFFBFC
03FFFFE0
07FFFFE0
0FFFFFE0
1FC03FC0
3F001FC0
7E000FC0
7C000FC0
7C000FC0
F8000F80
F8000F80
F8001F80
F8001F80
F8003F80
FC007F00
FE00FF00
7FFFFFE0
7FFFFFF0
3FFFFFE0
1FFFFFE0
07FE3FC0
ENDCHAR
STARTCHAR 0112
ENCODING 274
SWIDTH 600 0
DWIDTH 30 0
BBX 31 37 1 0
BITMAP
0003FFE0
000FFFF8
001FFFF8
001FFFF0
00000000
00000000
00000000
00000000
03FFFFFE
07FFFFFE
07FFFFFE
07FFFFFC
07FFFFFC
00F8007C
00F8007C
00F800FC
00F800F8
01F078F8
01F0F870
01F0F800
01FFF800
01FFF000
03FFF000
03FFF000
03FFF000
03E1E000
07C1E000
07C1C0E0
07C001F0
07C001F0
07C003F0
0F8003E0
7FFFFFE0
FFFFFFE0
FFFFFFE0
FFFFFFC0
FFFFFFC0
ENDCHAR
STARTCHAR 0113
ENCODING 275
SWIDTH 600 0
DWIDTH 30 0
BBX 26 30 4 -1
BITMAP
00FFFF80
00FFFF80
00FFFF80
00FFFF00
00000000
00000000
00000000
003FF800
00FFFC00
03FFFF00
07FFFF00
0FFFFF80
1FC03F80
3F000FC0
3E000FC0
7C0007C0
7FFFFFC0
FFFFFFC0
FFFFFFC0
FFFFFFC0
FFFFFF80
F8000000
FC000000
FE000E00
7F00FF00
7FFFFF00
3FFFFF00
1FFFFE00
0FFFF000
01FF0000
ENDCHAR
STARTCHAR 0114
ENCODING 276
SWIDTH 600 0
DWIDTH 30 0
BBX 31 38 1 0
BITMAP
000E0038
001E0078
001F00F0
000FE7F0
0007FFC0
0003FF80
0000FE00
00000000
00000000
03FFFFFE
07FFFFFE
07FFFFFE
07FFFFFC
07FFFFFC
00F8007C
00F8007C
00F800FC
00F800F8
01F078F8
01F0F870
01F0F800
01FFF800
01FFF000
03FFF000
03FFF000
03FFF000
03E1E000
07C1E000
07C1C0E0
07C001F0
07C001F0
07C003F0
0F8003E0
7FFFFFE0
FFFFFFE0
FFFFFFE0
FFFFFFC0
FFFFFFC0
ENDCHAR
STARTCHAR 0115
ENCODING 277
SWIDTH 600 0
DWIDTH 30 0
BBX 26 34 4 -1
BITMAP
00600180
00E003C0
00F00780
00F80F80
007FFF00
003FFE00
001FF800
00018000
00000000
00000000
00000000
003FF800
00FFFC00
03FFFF00
07FFFF00
0FFFFF80
1FC03F80
3F000FC0
3E000FC0
7C0007C0
7FFFFFC0
FFFFFFC0
FFFFFFC0
FFFFFFC0
FFFFFF80
F8000000
FC000000
FE000E00
7F00FF00
7FFFFF00
3FFFFF00
1FFFFE00
0FFFF000
01FF0000
ENDCHAR
STARTCHAR 0116
ENCODING 278
SWIDTH 600 0
DWIDTH 30 0
BBX 31 38 1 0
BITMAP
00001E00
00003E00
00007E00
00007E00
00007C00
00003800
00000000
00000000
00000000
03FFFFFE
07FFFFFE
07FFFFFE
07FFFFFC
07FFFFFC
00F8007C
00F8007C
00F800FC
00F800F8
01F078F8
01F0F870
01F0F800
01FFF800
01FFF000
03FFF000
03FFF000
03FFF000
03E1E000
07C1E000
07C1C0E0
07C001F0
07C001F0
07C003F0
0F8003E0
7FFFFFE0
FFFFFFE0
FFFFFFE0
FFFFFFC0
FFFFFFC0
ENDCHAR
STARTCHAR 0117
ENCODING 279
SWIDTH 600 0
DWIDTH 30 0
BBX 26 33 4 -1
BITMAP
0000C000
0003E000
0003E000
0007E000
0007E000
0003C000
00000000
00000000
00000000
00000000
003FF800
00FFFC00
03FFFF00
07FFFF00
0FFFFF80
1FC03F80
3F000FC0
3E000FC0
7C0007C0
7FFFFFC0
FFFFFFC0
FFFFFFC0
FFFFFFC0
FFFFFF80
F8000000
FC000000
FE000E00
7F00FF00
7FFFFF00
3FFFFF00
1FFFFE00
0FFFF000
01FF0000
ENDCHAR
STARTCHAR 0118
ENCODING 280
SWIDTH 600 0
DWIDTH 30 0
BBX 30 39 2 -10
BITMAP
03FFFFFC
07FFFFFC
07FFFFFC
07FFFFFC
07FFFFFC
00F800F8
00F800F8
01F000F8
01F000F8
01F078F0
01F0F860
03E0F800
03FFF800
03FFF000
03FFF000
03FFF000
07FFF000
07C1E000
07C1E000
07C1C0E0
07C001F0
0F8001F0
0F8003E0
0F8003E0
7FFFFFE0
FFFFFFE0
FFFFFFC0
FFFFFFC0
7FFFFFC0
00000780
00001E00
00003C00
00007800
0000F000
0000F1C0
0000FFC0
0000FFC0
00007F80
00003E00
ENDCHAR
STARTCHAR 0119
ENCODING 281
SWIDTH 600 0
DWIDTH 30 0
BBX 26 32 4 -9
BITMAP
003FF800
00FFFC00
03FFFF00
07FFFF00
0FFFFF80
1FC03F80
3F000FC0
3E000FC0
7C0007C0
7FFFFFC0
FFFFFFC0
FFFFFFC0
FFFFFFC0
FFFFFF80
F8000000
FC000000
FE000E00
7F00FF00
7FFFFF00
3FFFFF00
1FFFFE00
0FFFF000
01FFC000
000F8000
001E0000
003C0000
00780000
0078C000
007FE000
007FE000
007FC000
003F0000
ENDCHAR
STARTCHAR 011A
ENCODING 282
SWIDTH 600 0
DWIDTH 30 0
BBX 31 40 1 0
BITMAP
00060018
000F8078
000FC1F8
0007F7F0
0003FFC0
0000FF00
00007E00
00003800
00000000
00000000
00000000
03FFFFFE
07FFFFFE
07FFFFFE
07FFFFFC
07FFFFFC
00F8007C
00F8007C
00F800FC
00F800F8
01F078F8
01F0F870
01F0F800
01FFF800
01FFF000
03FFF000
03FFF000
03FFF000
03E1E000
07C1E000
07C1C0E0
07C001F0
07C001F0
07C003F0
0F8003E0
7FFFFFE0
FFFFFFE0
FFFFFFE0
FFFFFFC0
FFFFFFC0
ENDCHAR
STARTCHAR 011B
ENCODING 283
SWIDTH 600 0
DWIDTH 30 0
BBX 26 34 4 -1
BITMAP
007001C0
007807C0
007E1FC0
007F7F80
001FFE00
000FF800
0003E000
00018000
00000000
00000000
00000000
003FF800
00FFFC00
03FFFF00
07FFFF00
0FFFFF80
1FC03F80
3F000FC0
3E000FC0
7C0007C0
7FFFFFC0
FFFFFFC0
FFFFFFC0
FFFFFFC0
FFFFFF80
F8000000
FC000000
FE000E00
7F00FF00
7FFFFF00
3FFFFF00
1FFFFE00
0FFFF000
01FF0000
ENDCHAR
STARTCHAR 011C
ENCODING 284
SWIDTH 600 0
DWIDTH 30 0
BBX 29 39 3 1
BITMAP
00003800
0000FE00
0003FF00
0007FF80
001FCFE0
003F03E0
003C01E0
00100040
00000000
00000000
000FFF38
003FFFF8
00FFFFF8
01FFFFF8
03FFFFF8
07F003F0
0FC001F0
1F8001F0
1F0001E0
3F000000
3E000000
3E000000
7C000000
7C000000
7C000000
7C03FFE0
F807FFF0
F807FFF0
F807FFF0
F807FFE0
F8000F80
FC000F80
FC000F80
7F001F80
7FFFFF00
3FFFFF00
1FFFFF00
0FFFFC00
03FFE000
ENDCHAR
STARTCHAR 011D
ENCODING 285
SWIDTH 600 0
DWIDTH 30 0
BBX 30 44 3 -10
BITMAP
00004000
0001F000
0007F800
000FFC00
003FFF00
00FE3F80
00F80F80
00E00380
00000000
00000000
00000000
00000000
007FE7F8
01FFFFFC
03FFFFFC
07FFFFFC
0FFFFFF8
1FC07F80
3F003F80
7E001F80
7C001F80
7C001F00
F8001F00
F8001F00
F8003F00
F8003F00
F8007E00
FC00FE00
FE01FE00
7FFFFE00
7FFFFE00
3FFFFC00
1FFF7C00
07FC7C00
00007C00
0000F800
0000F800
0001F800
0007F000
1FFFE000
3FFFC000
3FFF8000
3FFF0000
3FF80000
ENDCHAR
STARTCHAR 011E
ENCODING 286
SWIDTH 600 0
DWIDTH 30 0
BBX 29 40 3 0
BITMAP
00080020
003C00F0
003C00F0
003E03E0
001FFFC0
000FFF80
0007FE00
0000F000
00000000
00000000
00000000
000FFF38
003FFFF8
00FFFFF8
01FFFFF8
03FFFFF8
07F003F0
0FC001F0
1F8001F0
1F0001E0
3F000000
3E000000
3E000000
7C000000
7C000000
7C000000
7C03FFE0
F807FFF0
F807FFF0
F807FFF0
F807FFE0
F8000F80
FC000F80
FC000F80
7F001F80
7FFFFF00
3FFFFF00
1FFFFF00
0FFFFC00
03FFE000
ENDCHAR
STARTCHAR 011F
ENCODING 287
SWIDTH 600 0
DWIDTH 30 0
BBX 30 43 3 -10
BITMAP
00E00380
00E00380
00E00780
00F81F00
00FFFE00
007FFC00
001FF000
00018000
00000000
00000000
00000000
007FE7F8
01FFFFFC
03FFFFFC
07FFFFFC
0FFFFFF8
1FC07F80
3F003F80
7E001F80
7C001F80
7C001F00
F8001F00
F8001F00
F8003F00
F8003F00
F8007E00
FC00FE00
FE01FE00
7FFFFE00
7FFFFE00
3FFFFC00
1FFF7C00
07FC7C00
00007C00
0000F800
0000F800
0001F800
0007F000
1FFFE000
3FFFC000
3FFF8000
3FFF0000
3FF80000
ENDCHAR
STARTCHAR 0120
ENCODING 288
SWIDTH 600 0
DWIDTH 30 0
BBX 29 38 3 0
BITMAP
00007800
0000FC00
0000FC00
0000F800
0000F800
00007000
00000000
00000000
00000000
000FFF38
003FFFF8
00FFFFF8
01FFFFF8
03FFFFF8
07F003F0
0FC001F0
1F8001F0
1F0001E0
3F000000
3E000000
3E000000
7C000000
7C000000
7C000000
7C03FFE0
F807FFF0
F807FFF0
F807FFF0
F807FFE0
F8000F80
FC000F80
FC000F80
7F001F80
7FFFFF00
3FFFFF00
1FFFFF00
0FFFFC00
03FFE000
ENDCHAR
STARTCHAR 0121
ENCODING 289
SWIDTH 600 0
DWIDTH 30 0
BBX 30 42 3 -10
BITMAP
0001C000
0003E000
0007E000
0007E000
0007E000
0003C000
00000000
00000000
00000000
00000000
007FE7F8
01FFFFFC
03FFFFFC
07FFFFFC
0FFFFFF8
1FC07F80
3F003F80
7E001F80
7C001F80
7C001F00
F8001F00
F8001F00
F8003F00
F8003F00
F8007E00
FC00FE00
FE01FE00
7FFFFE00
7FFFFE00
3FFFFC00
1FFF7C00
07FC7C00
00007C00
0000F800
0000F800
0001F800
0007F000
1FFFE000
3FFFC000
3FFF8000
3FFF0000
3FF80000
ENDCHAR
STARTCHAR 0122
ENCODING 290
SWIDTH 600 0
DWIDTH 30 0
BBX 29 39 3 -9
BITMAP
000FFF38
003FFFF8
00FFFFF8
01FFFFF8
03FFFFF8
07F003F0
0FC001F0
1F8001F0
1F0001E0
3F000000
3E000000
3E000000
7C000000
7C000000
7C000000
7C03FFE0
F807FFF0
F807FFF0
F807FFF0
F807FFE0
F8000F80
FC000F80
FC000F80
7F001F80
7FFFFF00
3FFFFF00
1FFFFF00
0FFFFC00
03FFE000
00000000
007E0000
00FC0000
00F80000
01F00000
01F00000
01E00000
03C00000
03800000
03000000
ENDCHAR
STARTCHAR 0123
ENCODING 291
SWIDTH 600 0
DWIDTH 30 0
BBX 30 43 3 -10
BITMAP
00000C00
00001E00
00003E00
0000FC00
0001F000
0003E000
0007C000
00030000
00000000
00000000
00000000
007FE7F8
01FFFFFC
03FFFFFC
07FFFFFC
0FFFFFF8
1FC07F80
3F003F80
7E001F80
7C001F80
7C001F00
F8001F00
F8001F00
F8003F00
F8003F00
F8007E00
FC00FE00
FE01FE00
7FFFFE00
7FFFFE00
3FFFFC00
1FFF7C00
07FC7C00
00007C00
0000F800
0000F800
0001F800
0007F000
1FFFE000
3FFFC000
3FFF8000
3FFF0000
3FF80000
ENDCHAR
STARTCHAR 0124
ENCODING 292
SWIDTH 600 0
DWIDTH 30 0
BBX 32 40 1 0
BITMAP
00000600
00001F00
00007F80
0001FFE0
0007FFF0
000FE1F8
000F80F8
000E0038
00000000
00000000
00000000
01FF87FE
03FF8FFF
03FF8FFF
03FF8FFE
03FF07FC
00F801F0
00F801F0
01F001F0
01F001F0
01F001F0
01F003E0
03E003E0
03FFFFE0
03FFFFE0
03FFFFE0
03FFFFC0
07FFFFC0
07C007C0
07C007C0
07C00F80
07C00F80
0F800F80
0F800F80
0F800F80
7FF0FFE0
FFF1FFF0
FFF1FFF0
FFF1FFE0
FFE1FFC0
ENDCHAR
STARTCHAR 0125
ENCODING 293
SWIDTH 600 0
DWIDTH 30 0
BBX 33 40 2 0
BITMAP
000000C000
000003E000
00000FF800
00001FFC00
00007FFE00
0001FC3F00
0001F00F80
0001C00700
0000000000
03FC000000
07FC000000
07FC000000
07FC000000
07F8000000
00F8000000
00F8000000
00F8000000
00F8000000
01F1FF0000
01F7FF8000
01FFFFC000
01FFFFE000
01FFFFE000
03FC07E000
03F803E000
03E003E000
03E003E000
07C003E000
07C007C000
07C007C000
07C007C000
07C007C000
0F80078000
0F800F8000
0F800F8000
7FE07FE000
FFF0FFF000
FFF0FFF000
FFF0FFF000
FFE07FE000
ENDCHAR
STARTCHAR 0126
ENCODING 294
SWIDTH 600 0
DWIDTH 30 0
BBX 32 29 0 0
BITMAP
00FF83FF
01FFC7FF
03FFCFFF
03FFCFFF
01FF87FE
00F800F8
00F800F8
07F801FE
0FF801FE
0FF001FE
0FF001FE
07F001FC
01FFFFE0
03FFFFE0
03FFFFE0
03FFFFE0
03FFFFE0
03E007C0
07C007C0
07C007C0
07C007C0
07C00F80
07800F80
0F800F80
7FF07FE0
FFF8FFF0
FFF9FFF0
FFF1FFF0
7FE0FFE0
ENDCHAR
STARTCHAR 0127
ENCODING 295
SWIDTH 600 0
DWIDTH 30 0
BBX 28 31 0 0
BITMAP
01FFFE00
03FFFE00
07FFFE00
07FFFE00
03FFFC00
007C0000
007C0000
00F80000
00F80000
00F8FF00
00FBFF80
00FFFFC0
01FFFFE0
01FFFFE0
01FE07E0
01F803E0
01F003E0
03E003E0
03E003E0
03E007C0
03E007C0
07C007C0
07C007C0
07C00F80
07C00F80
07C00F80
3FF07FE0
7FF8FFF0
FFF8FFF0
FFF0FFF0
7FE07FE0
ENDCHAR
STARTCHAR 0128
ENCODING 296
SWIDTH 600 0
DWIDTH 30 0
BBX 28 39 3 0
BITMAP
0007C070
001FF0F0
003FFFF0
007CFFE0
00783F80
00200600
00000000
00000000
00000000
00000000
01FFFFE0
03FFFFE0
07FFFFE0
07FFFFE0
03FFFFC0
0007C000
0007C000
0007C000
000F8000
000F8000
000F8000
000F8000
000F8000
001F0000
001F0000
001F0000
001F0000
003E0000
003E0000
003E0000
003E0000
003E0000
007C0000
007C0000
3FFFF800
7FFFFC00
FFFFFC00
FFFFF800
7FFFF000
ENDCHAR
STARTCHAR 0129
ENCODING 297
SWIDTH 600 0
DWIDTH 30 0
BBX 24 32 4 0
BITMAP
007006
01FE0F
03FFBE
07FFFC
0707F8
0601F0
000000
000000
000000
000000
01FFC0
03FFC0
07FFC0
07FF80
03FF80
000F80
000F80
000F80
001F00
001F00
001F00
001F00
001F00
003E00
003E00
003E00
003E00
7FFFFE
FFFFFE
FFFFFE
FFFFFE
FFFFFC
ENDCHAR
STARTCHAR 012A
ENCODING 298
SWIDTH 600 0
DWIDTH 30 0
BBX 27 37 3 0
BITMAP
000FFF80
003FFFE0
007FFFE0
007FFFC0
00000000
00000000
00000000
00000000
01FFFFE0
03FFFFE0
07FFFFE0
07FFFFE0
03FFFFC0
0007C000
0007C000
0007C000
000F8000
000F8000
000F8000
000F8000
000F8000
001F0000
001F0000
001F0000
001F0000
003E0000
003E0000
003E0000
003E0000
003E0000
007C0000
007C0000
3FFFF800
7FFFFC00
FFFFFC00
FFFFF800
7FFFF000
ENDCHAR
STARTCHAR 012B
ENCODING 299
SWIDTH 600 0
DWIDTH 30 0
BBX 24 29 4 0
BITMAP
01FFFE
03FFFF
03FFFE
01FFFC
000000
000000
000000
01FFC0
03FFC0
07FFC0
07FF80
03FF80
000F80
000F80
000F80
001F00
001F00
001F00
001F00
001F00
003E00
003E00
003E00
003E00
7FFFFE
FFFFFE
FFFFFE
FFFFFE
FFFFFC
ENDCHAR
STARTCHAR 012C
ENCODING 300
SWIDTH 600 0
DWIDTH 30 0
BBX 28 40 3 0
BITMAP
00180020
003C00F0
003C00E0
003E03E0
001FFFC0
000FFF80
0007FE00
0000F000
00000000
00000000
00000000
01FFFFE0
03FFFFE0
07FFFFE0
07FFFFE0
03FFFFC0
0007C000
0007C000
0007C000
000F8000
000F8000
000F8000
000F8000
000F8000
001F0000
001F0000
001F0000
001F0000
003E0000
003E0000
003E0000
003E0000
003E0000
007C0000
007C0000
3FFFF800
7FFFFC00
FFFFFC00
FFFFF800
7FFFF000
ENDCHAR
STARTCHAR 012D
ENCODING 301
SWIDTH 600 0
DWIDTH 30 0
BBX 24 33 4 0
BITMAP
01C007
01C007
01C00F
01F03E
01FFFC
00FFF8
003FE0
000300
000000
000000
000000
01FFC0
03FFC0
07FFC0
07FF80
03FF80
000F80
000F80
000F80
001F00
001F00
001F00
001F00
001F00
003E00
003E00
003E00
003E00
7FFFFE
FFFFFE
FFFFFE
FFFFFE
FFFFFC
ENDCHAR
STARTCHAR 012E
ENCODING 302
SWIDTH 600 0
DWIDTH 30 0
BBX 27 39 5 -10
BITMAP
03FFFFC0
07FFFFE0
07FFFFE0
07FFFFC0
03FFFF80
0007C000
000F8000
000F8000
000F8000
000F8000
001F0000
001F0000
001F0000
001F0000
001F0000
003E0000
003E0000
003E0000
003E0000
003E0000
007C0000
007C0000
007C0000
007C0000
7FFFF800
FFFFF800
FFFFF800
FFFFF800
7FFFF000
0003C000
000F0000
001E0000
003C0000
00780000
0078E000
007FE000
007FE000
003FC000
001F0000
ENDCHAR
STARTCHAR 012F
ENCODING 303
SWIDTH 600 0
DWIDTH 30 0
BBX 23 41 4 -10
BITMAP
0007E0
0007E0
0007E0
0007E0
000FC0
000000
000000
000000
000000
01FFC0
03FFC0
03FFC0
03FF80
01FF80
000F80
000F80
000F80
001F00
001F00
001F00
001F00
001F00
003E00
003E00
003E00
003E00
7FFFFE
FFFFFE
FFFFFE
FFFFFE
7FFFFC
0001F0
0003E0
000780
000F00
001E00
001E30
001FF8
001FF8
001FF0
000FC0
ENDCHAR
STARTCHAR 0130
ENCODING 304
SWIDTH 600 0
DWIDTH 30 0
BBX 27 38 3 0
BITMAP
0000F000
0001F800
0001F800
0001F000
0001F000
0000E000
00000000
00000000
00000000
01FFFFE0
03FFFFE0
07FFFFE0
07FFFFE0
03FFFFC0
0007C000
0007C000
0007C000
000F8000
000F8000
000F8000
000F8000
000F8000
001F0000
001F0000
001F0000
001F0000
003E0000
003E0000
003E0000
003E0000
003E0000
007C0000
007C0000
3FFFF800
7FFFFC00
FFFFFC00
FFFFF800
7FFFF000
ENDCHAR
STARTCHAR 0131
ENCODING 305
SWIDTH 600 0
DWIDTH 30 0
BBX 23 22 4 0
BITMAP
01FFC0
03FFC0
07FFC0
07FF80
03FF80
000F80
000F80
000F80
001F00
001F00
001F00
001F00
001F00
003E00
003E00
003E00
003E00
7FFFFE
FFFFFE
FFFFFE
FFFFFE
FFFFFC
ENDCHAR
STARTCHAR 0132
ENCODING 306
SWIDTH 600 0
DWIDTH 30 0
BBX 36 29 0 0
BITMAP
01FF807FF0
03FFC0FFF0
07FFC1FFF0
07FFC1FFF0
03FF80FFE0
0078001F00
00F8001E00
00F8003E00
00F8003E00
00F8003E00
01F0003E00
01F0007C00
01F0007C00
01F0007C00
01F0007C00
03E0007C00
03E0F0F800
03E1F0F800
03E1F0F800
03C1F0F800
07C1F0F800
07C3E1F000
07C3E1F000
07C3E1F000
3FF3FFF000
FFFBFFE000
FFFBFFE000
FFF1FFC000
7FE0FF8000
ENDCHAR
STARTCHAR 0133
ENCODING 307
SWIDTH 600 0
DWIDTH 30 0
BBX 32 41 1 -10
BITMAP
000FC07E
000FC07E
000FC07E
000FC07E
001F807C
00000000
00000000
00000000
00000000
03FF8FFF
07FF9FFF
0FFF3FFF
0FFF3FFF
07FF1FFE
001F003E
001F003E
003E003E
003E003E
003E007C
003E007C
003E007C
007C007C
007C0078
007C00F8
007C00F8
007C00F8
7FFFF0F8
FFFFF1F0
FFFFF1F0
FFFFF1F0
7FFFE1F0
000001F0
000003E0
000003E0
000007E0
00001FC0
007FFF80
00FFFF00
00FFFE00
00FFFC00
00FFE000
ENDCHAR
STARTCHAR 0134
ENCODING 308
SWIDTH 600 0
DWIDTH 30 0
BBX 34 40 1 0
BITMAP
0000006000
000001F000
000007FC00
00001FFE00
00003FBF80
0000FE1F80
0000F807C0
0000E00380
0000000000
0000000000
0000000000
0003FFFF00
0007FFFF80
000FFFFF80
000FFFFF00
0007FFFE00
000007C000
000007C000
00000F8000
00000F8000
00000F8000
00000F8000
00000F8000
00001F0000
00001F0000
00001F0000
1C001F0000
3C003E0000
7C003E0000
7C003E0000
7C003E0000
7C007E0000
7C007C0000
F800FC0000
FC01F80000
FFFFF00000
FFFFF00000
FFFFC00000
3FFF800000
0FFE000000
ENDCHAR
STARTCHAR 0135
ENCODING 309
SWIDTH 600 0
DWIDTH 30 0
BBX 26 43 3 -10
BITMAP
00007000
0000F800
0003FE00
000FFF00
003FBF80
007E0FC0
007803C0
006001C0
00000000
00000000
00000000
00FFFF80
03FFFF80
03FFFF00
03FFFF00
01FFFF00
00001F00
00001F00
00003E00
00003E00
00003E00
00003E00
00003E00
00007C00
00007C00
00007C00
00007C00
00007C00
0000F800
0000F800
0000F800
0000F800
0001F000
0001F000
0001F000
0001F000
0003E000
000FE000
3FFFC000
7FFF8000
FFFF0000
FFFC0000
7FF00000
ENDCHAR
STARTCHAR 0136
ENCODING 310
SWIDTH 600 0
DWIDTH 30 0
BBX 33 39 0 -10
BITMAP
01FFE1FF00
03FFE3FF80
07FFE7FF80
07FFE7FF80
03FFC3FF00
007C07F800
00780FE000
00F81FC000
00F87F8000
00F8FE0000
00F9FC0000
01F7F00000
01FFE00000
01FFF00000
01FFF80000
01FFFC0000
03FDFC0000
03F0FE0000
03E07E0000
03E07F0000
07C03F0000
07C03F0000
07C01F8000
07C01F8000
3FFC1FF800
7FFC1FF800
FFFC0FF800
FFFC0FF800
7FF80FF000
0000000000
000FC00000
001F800000
001F000000
003E000000
003E000000
003C000000
0078000000
0070000000
0060000000
ENDCHAR
STARTCHAR 0137
ENCODING 311
SWIDTH 600 0
DWIDTH 30 0
BBX 28 41 2 -10
BITMAP
01FE0000
03FE0000
03FE0000
03FE0000
03FC0000
007C0000
007C0000
007C0000
007C0000
00F87FF0
00F8FFF0
00F8FFF0
00F8FFF0
01F0FFE0
01F1FC00
01F7F800
01FFE000
01FFC000
03FF8000
03FF8000
03FFC000
03FFC000
03EFE000
07C7F000
07C3F800
07C1FC00
3FC0FFE0
7F81FFE0
FF83FFE0
FF83FFE0
7F81FFC0
00000000
007E0000
00FC0000
00F80000
01F00000
01F00000
01E00000
03C00000
03800000
03000000
ENDCHAR
STARTCHAR 0138
ENCODING 312
SWIDTH 600 0
DWIDTH 30 0
BBX 28 22 1 0
BITMAP
07F87FF0
0FF8FFF0
0FF8FFF0
0FF0FFF0
0FF0FFE0
01F1FC00
01F7F800
01FFE000
03FFC000
03FF0000
03FE0000
03FF0000
03FF0000
07FF8000
07DFC000
07CFE000
07CFF000
7FC7FF00
FF87FF80
FF8FFF80
FF8FFF00
7F87FE00
ENDCHAR
STARTCHAR 0139
ENCODING 313
SWIDTH 600 0
DWIDTH 30 0
BBX 29 40 1 0
BITMAP
00000E00
00001E00
00007E00
0000F800
0001F000
0003E000
0007C000
00030000
00000000
00000000
00000000
01FFFC00
03FFFE00
07FFFE00
07FFFC00
03FFF800
001F0000
001F0000
003E0000
003E0000
003E0000
003E0000
003E0000
007C0000
007C0000
007C0000
007C0000
00F80000
00F80070
00F800F8
00F800F8
00F801F0
01F001F0
01F001F0
01F001F0
3FFFFFF0
7FFFFFE0
FFFFFFE0
FFFFFFE0
7FFFFFE0
ENDCHAR
STARTCHAR 013A
ENCODING 314
SWIDTH 600 0
DWIDTH 30 0
BBX 23 40 4 0
BITMAP
00001C
00003C
0000FC
0001F8
0003E0
0007C0
000780
000600
000000
007FF0
00FFF0
01FFF0
01FFE0
00FFE0
0003E0
0003E0
0003E0
0007C0
0007C0
0007C0
0007C0
000780
000F80
000F80
000F80
000F80
001F00
001F00
001F00
001F00
001F00
003E00
003E00
003E00
003E00
7FFFFE
FFFFFE
FFFFFE
FFFFFE
FFFFFC
ENDCHAR
STARTCHAR 013B
ENCODING 315
SWIDTH 600 0
DWIDTH 30 0
BBX 29 39 1 -10
BITMAP
01FFFC00
03FFFE00
07FFFE00
07FFFC00
03FFF800
001F0000
001F0000
003E0000
003E0000
003E0000
003E0000
003E0000
007C0000
007C0000
007C0000
007C0000
00F80000
00F80070
00F800F8
00F800F8
00F801F0
01F001F0
01F001F0
01F001F0
3FFFFFF0
7FFFFFE0
FFFFFFE0
FFFFFFE0
7FFFFFE0
00000000
001F8000
003F0000
003E0000
007C0000
007C0000
00780000
00F00000
00E00000
00C00000
ENDCHAR
STARTCHAR 013C
ENCODING 316
SWIDTH 600 0
DWIDTH 30 0
BBX 23 41 4 -10
BITMAP
007FF0
00FFF0
01FFF0
01FFE0
00FFE0
0003E0
0003E0
0003E0
0007C0
0007C0
0007C0
0007C0
000780
000F80
000F80
000F80
000F80
001F00
001F00
001F00
001F00
001F00
003E00
003E00
003E00
003E00
7FFFFE
FFFFFE
FFFFFE
FFFFFE
FFFFFC
000000
00FC00
01F800
01F000
03E000
03E000
03C000
078000
070000
060000
ENDCHAR
STARTCHAR 013D
ENCODING 317
SWIDTH 600 0
DWIDTH 30 0
BBX 35 31 1 0
BITMAP
00000000C0
00000003E0
01FFFC07C0
03FFFE0F80
07FFFE3F00
07FFFC7C00
03FFF87800
001F003000
001F000000
003E000000
003E000000
003E000000
003E000000
003E000000
007C000000
007C000000
007C000000
007C000000
00F8000000
00F8007000
00F800F800
00F800F800
00F801F000
01F001F000
01F001F000
01F001F000
3FFFFFF000
7FFFFFE000
FFFFFFE000
FFFFFFE000
7FFFFFE000
ENDCHAR
STARTCHAR 013E
ENCODING 318
SWIDTH 600 0
DWIDTH 30 0
BBX 31 32 4 0
BITMAP
0000000C
007FF03E
00FFF07C
01FFF0F8
01FFE3F0
00FFE7C0
0003E780
0003E300
0003E000
0007C000
0007C000
0007C000
0007C000
00078000
000F8000
000F8000
000F8000
000F8000
001F0000
001F0000
001F0000
001F0000
001F0000
003E0000
003E0000
003E0000
003E0000
7FFFFE00
FFFFFE00
FFFFFE00
FFFFFE00
FFFFFC00
ENDCHAR
STARTCHAR 013F
ENCODING 319
SWIDTH 600 0
DWIDTH 30 0
BBX 29 29 1 0
BITMAP
01FFFC00
03FFFE00
07FFFE00
07FFFC00
03FFF800
001F0000
001F0000
003E0000
003E0000
003E01C0
003E03E0
003E07E0
007C07E0
007C07C0
007C0380
007C0000
00F80000
00F80070
00F800F8
00F800F8
00F801F0
01F001F0
01F001F0
01F001F0
3FFFFFF0
7FFFFFE0
FFFFFFE0
FFFFFFE0
7FFFFFE0
ENDCHAR
STARTCHAR 0140
ENCODING 320
SWIDTH 600 0
DWIDTH 30 0
BBX 28 31 4 0
BITMAP
007FF000
00FFF000
01FFF000
01FFE000
00FFE000
0003E000
0003E000
0003E000
0007C000
0007C000
0007C000
0007C0E0
000781F0
000F83F0
000F83F0
000F83E0
000F81C0
001F0000
001F0000
001F0000
001F0000
001F0000
003E0000
003E0000
003E0000
003E0000
7FFFFE00
FFFFFE00
FFFFFE00
FFFFFE00
FFFFFC00
ENDCHAR
STARTCHAR 0141
ENCODING 321
SWIDTH 600 0
DWIDTH 30 0
BBX 29 29 2 0
BITMAP
01FFFC00
03FFFE00
07FFFE00
07FFFC00
03FFF800
001F0000
001F0000
003E0000
003E0E00
003E3F00
003EFF00
003FFE00
007FFC00
007FF000
01FFC000
07FF0000
1FFC0000
7FF80070
7FF800F8
7EF800F8
78F801F0
01F001F0
01F001F0
01F001F0
3FFFFFF0
7FFFFFE0
FFFFFFE0
FFFFFFE0
7FFFFFE0
ENDCHAR
STARTCHAR 0142
ENCODING 322
SWIDTH 600 0
DWIDTH 30 0
BBX 24 31 4 0
BITMAP
007FF0
00FFF0
00FFF0
00FFE0
00FFE0
0003E0
0003E0
0003E0
0007C0
0007C4
0007DF
0007FF
0007FF
000FFE
003FF8
00FFE0
03FF80
07FF00
07FF00
07DF00
001F00
001F00
003E00
003E00
003E00
003E00
7FFFFE
FFFFFE
FFFFFE
FFFFFE
FFFFFC
ENDCHAR
STARTCHAR 0143
ENCODING 323
SWIDTH 600 0
DWIDTH 30 0
BBX 34 40 1 0
BITMAP
000000E000
000001F000
000003E000
000007C000
00001F8000
00003E0000
00003C0000
0000380000
0000000000
0000000000
0000000000
03FC03FFC0
07FC07FFC0
0FFE07FFC0
0FFE07FFC0
07FF03FF80
00FF003E00
01FF807C00
01FF807C00
01FFC07C00
01FFC07C00
01FFE0F800
03E7E0F800
03E7E0F800
03E3F0F800
03E3F0F800
03C1F9F000
07C1F9F000
07C1FDF000
07C0FDF000
07C0FFF000
0F807FE000
0F807FE000
0F803FE000
0F803FE000
7FF81FC000
FFF81FC000
FFF81FC000
FFF80FC000
7FF00FC000
ENDCHAR
STARTCHAR 0144
ENCODING 324
SWIDTH 600 0
DWIDTH 30 0
BBX 28 34 2 0
BITMAP
00000180
00000780
00000F80
00001F00
00007E00
0000FC00
0000F000
0000E000
00000000
00000000
00000000
00000000
07F1FF00
0FF7FF80
0FFFFFC0
0FFFFFE0
0FFFFFE0
03FC07E0
03F003E0
03E003E0
03E003E0
07C003E0
07C007C0
07C007C0
07C007C0
07C007C0
0F800780
0F800F80
0F800F80
7FE03FE0
FFF07FF0
FFF07FF0
FFE07FF0
FFC03FE0
ENDCHAR
STARTCHAR 0145
ENCODING 325
SWIDTH 600 0
DWIDTH 30 0
BBX 34 39 1 -10
BITMAP
03FC03FFC0
07FC07FFC0
0FFE07FFC0
0FFE07FFC0
07FF03FF80
00FF003E00
01FF807C00
01FF807C00
01FFC07C00
01FFC07C00
01FFE0F800
03E7E0F800
03E7E0F800
03E3F0F800
03E3F0F800
03C1F9F000
07C1F9F000
07C1FDF000
07C0FDF000
07C0FFF000
0F807FE000
0F807FE000
0F803FE000
0F803FE000
7FF81FC000
FFF81FC000
FFF81FC000
FFF80FC000
7FF00FC000
0000000000
000FC00000
001F800000
001F000000
003E000000
003E000000
003C000000
0078000000
0070000000
0060000000
ENDCHAR
STARTCHAR 0146
ENCODING 326
SWIDTH 600 0
DWIDTH 30 0
BBX 28 32 2 -9
BITMAP
07F1FF00
0FF7FF80
0FFFFFC0
0FFFFFE0
0FFFFFE0
03FC07E0
03F003E0
03E003E0
03E003E0
07C003E0
07C007C0
07C007C0
07C007C0
07C007C0
0F800780
0F800F80
0F800F80
7FE03FE0
FFF07FF0
FFF07FF0
FFE07FF0
FFC03FE0
00000000
001F8000
003F0000
003E0000
007C0000
007C0000
00780000
00F00000
00E00000
00C00000
ENDCHAR
STARTCHAR 0147
ENCODING 327
SWIDTH 600 0
DWIDTH 30 0
BBX 34 40 1 0
BITMAP
0006001800
000F807800
000FC1F800
0007F7F000
0003FFC000
0000FF0000
00007E0000
0000380000
0000000000
0000000000
0000000000
03FC03FFC0
07FC07FFC0
0FFE07FFC0
0FFE07FFC0
07FF03FF80
00FF003E00
01FF807C00
01FF807C00
01FFC07C00
01FFC07C00
01FFE0F800
03E7E0F800
03E7E0F800
03E3F0F800
03E3F0F800
03C1F9F000
07C1F9F000
07C1FDF000
07C0FDF000
07C0FFF000
0F807FE000
0F807FE000
0F803FE000
0F803FE000
7FF81FC000
FFF81FC000
FFF81FC000
FFF80FC000
7FF00FC000
ENDCHAR
STARTCHAR 0148
ENCODING 328
SWIDTH 600 0
DWIDTH 30 0
BBX 28 33 2 0
BITMAP
00380060
003E01E0
003F07E0
001FDFC0
000FFF00
0003FC00
0001F000
0000C000
00000000
00000000
00000000
07F1FF00
0FF7FF80
0FFFFFC0
0FFFFFE0
0FFFFFE0
03FC07E0
03F003E0
03E003E0
03E003E0
07C003E0
07C007C0
07C007C0
07C007C0
07C007C0
0F800780
0F800F80
0F800F80
7FE03FE0
FFF07FF0
FFF07FF0
FFE07FF0
FFC03FE0
ENDCHAR
STARTCHAR 0149
ENCODING 329
SWIDTH 600 0
DWIDTH 30 0
BBX 28 33 2 0
BITMAP
00600000
01F00000
03E00000
07C00000
1F800000
3E000000
3C000000
18000000
00000000
00000000
00000000
07F1FF00
0FF7FF80
0FFFFFC0
0FFFFFE0
0FFFFFE0
03FC07E0
03F003E0
03E003E0
03E003E0
07C003E0
07C007C0
07C007C0
07C007C0
07C007C0
0F800780
0F800F80
0F800F80
7FE03FE0
FFF07FF0
FFF07FF0
FFE07FF0
FFC03FE0
ENDCHAR
STARTCHAR 014A
ENCODING 330
SWIDTH 600 0
DWIDTH 30 0
BBX 30 38 2 -6
BITMAP
00003F80
01FCFFE0
03FDFFF0
03FFFFF0
03FFFFF8
01FFC3F8
00FE00FC
00FC00FC
00F8007C
01F8007C
01F0007C
01F0007C
01F0007C
01F0007C
03E0007C
03E0007C
03E00078
03E000F8
03E000F8
07C000F8
07C000F8
07C001F0
07C001F0
07C001F0
0F8001F0
0F8003E0
0F8003E0
7FE003E0
FFF007C0
FFF007C0
FFF00F80
FFC01F80
00001F00
000FFF00
001FFE00
001FFC00
001FF800
0007E000
ENDCHAR
STARTCHAR 014B
ENCODING 331
SWIDTH 600 0
DWIDTH 30 0
BBX 27 32 0 -9
BITMAP
03F9FF00
07FBFF80
07FFFFC0
0FFFFFE0
07FFFFE0
01FE07E0
01F803E0
03F003E0
03E003E0
03E003E0
03E007C0
03E007C0
07C007C0
07C007C0
07C007C0
07C00F80
07C00F80
3FF00F80
7FF80F80
FFF81F00
FFF01F00
7FE01F00
00001F00
00001F00
00003E00
00007E00
0000FC00
007FFC00
00FFF800
00FFF000
00FFC000
007F0000
ENDCHAR
STARTCHAR 014C
ENCODING 332
SWIDTH 600 0
DWIDTH 30 0
BBX 28 37 3 0
BITMAP
000FFF80
003FFFE0
003FFFE0
003FFFE0
00000000
00000000
00000000
00000000
000FFC00
003FFE00
00FFFF80
01FFFFC0
03FFFFC0
07F00FE0
0FC007E0
1F8003F0
1F0003F0
3F0001F0
3E0001F0
7C0001F0
7C0001F0
780001F0
F80001F0
F80003E0
F80003E0
F80003E0
F80007C0
F8000FC0
FC000F80
FC001F80
7E003F00
7F00FE00
3FFFFC00
3FFFF800
1FFFF000
0FFFC000
03FF0000
ENDCHAR
STARTCHAR 014D
ENCODING 333
SWIDTH 600 0
DWIDTH 30 0
BBX 26 30 4 -1
BITMAP
00FFFF80
01FFFF80
01FFFF80
00FFFE00
00000000
00000000
00000000
003FF800
00FFFC00
03FFFE00
07FFFF00
0FFFFF80
1FC03F80
3F000FC0
3E000FC0
7C0007C0
7C0007C0
F80007C0
F80007C0
F8000FC0
F8000F80
F8001F80
FC003F00
FE007E00
7F81FE00
7FFFFC00
3FFFF000
1FFFE000
0FFF8000
01FE0000
ENDCHAR
STARTCHAR 014E
ENCODING 334
SWIDTH 600 0
DWIDTH 30 0
BBX 28 39 3 0
BITMAP
00180020
003C0070
003C00F0
003E03E0
001FFFC0
000FFF80
0007FE00
0000F000
00000000
00000000
000FFC00
003FFE00
00FFFF80
01FFFFC0
03FFFFC0
07F00FE0
0FC007E0
1F8003F0
1F0003F0
3F0001F0
3E0001F0
7C0001F0
7C0001F0
780001F0
F80001F0
F80003E0
F80003E0
F80003E0
F80007C0
F8000FC0
FC000F80
FC001F80
7E003F00
7F00FE00
3FFFFC00
3FFFF800
1FFFF000
0FFFC000
03FF0000
ENDCHAR
STARTCHAR 014F
ENCODING 335
SWIDTH 600 0
DWIDTH 30 0
BBX 26 34 4 -1
BITMAP
00600180
00F003C0
00F003C0
00F80F80
007FFF00
003FFE00
001FF800
0001C000
00000000
00000000
00000000
003FF800
00FFFC00
03FFFE00
07FFFF00
0FFFFF80
1FC03F80
3F000FC0
3E000FC0
7C0007C0
7C0007C0
F80007C0
F80007C0
F8000FC0
F8000F80
F8001F80
FC003F00
FE007E00
7F81FE00
7FFFFC00
3FFFF000
1FFFE000
0FFF8000
01FE0000
ENDCHAR
STARTCHAR 0150
ENCODING 336
SWIDTH 600 0
DWIDTH 30 0
BBX 31 40 3 0
BITMAP
00001C0E
00003C3E
0000FC7C
0001F0F8
0003E3F0
0007C7E0
000F8780
00060300
00000000
00000000
00000000
000FFC00
003FFE00
00FFFF80
01FFFFC0
03FFFFC0
07F00FE0
0FC007E0
1F8003F0
1F0003F0
3F0001F0
3E0001F0
7C0001F0
7C0001F0
780001F0
F80001F0
F80003E0
F80003E0
F80003E0
F80007C0
F8000FC0
FC000F80
FC001F80
7E003F00
7F00FE00
3FFFFC00
3FFFF800
1FFFF000
0FFFC000
03FF0000
ENDCHAR
STARTCHAR 0151
ENCODING 337
SWIDTH 600 0
DWIDTH 30 0
BBX 26 34 4 0
BITMAP
0003C1C0
0007C3C0
001F8FC0
003F1F00
007C3E00
00F87C00
00F07800
00402000
00000000
00000000
00000000
003FF800
00FFFC00
03FFFE00
07FFFF00
0FFFFF80
1FC03F80
3F000FC0
3E000FC0
7C0007C0
7C0007C0
F80007C0
F80007C0
F8000FC0
F8000F80
F8001F80
FC003F00
FE007E00
7F81FE00
7FFFFC00
3FFFF000
1FFFE000
0FFF8000
01FE0000
ENDCHAR
STARTCHAR 0152
ENCODING 338
SWIDTH 600 0
DWIDTH 30 0
BBX 34 29 2 0
BITMAP
0007FFFFC0
003FFFFFC0
007FFFFF80
01FFFFFF80
03FFFFFF80
07F8F80F80
0FE0F81F00
1F80F81F00
1F00F81F00
3E00F19E00
3E01F3DE00
7C01F7C000
7C01FFC000
7C01FFC000
F803FF8000
F803FF8000
F803FF8000
F803EF8000
F803EF0000
F807C60000
FC07C03C00
FC07C03C00
7E07C07C00
7F8F807C00
3FFFFFFC00
1FFFFFF800
0FFFFFF800
07FFFFF800
01FFFFF800
ENDCHAR
STARTCHAR 0153
ENCODING 339
SWIDTH 600 0
DWIDTH 30 0
BBX 32 23 1 0
BITMAP
00FE03F8
03FF8FFC
07FF9FFE
0FFFFFFE
0FFFFFFF
1F07FC3F
3E03F81F
3E03F81F
7C03F01F
7C03FFFF
7803FFFF
F803FFFF
F807FFFE
F807FFFE
F807E000
F80FE000
FC1FE000
FC3FF03C
7FFFFFFC
7FFDFFFC
3FF9FFFC
1FF0FFF0
0FC03F80
ENDCHAR
STARTCHAR 0154
ENCODING 340
SWIDTH 600 0
DWIDTH 30 0
BBX 30 40 0 0
BITMAP
00000700
00000F00
00003F00
00007E00
0000F800
0001F000
0001E000
00018000
00000000
00000000
00000000
01FFFF00
03FFFFC0
07FFFFE0
07FFFFF0
03FFFFF0
007C03F8
007C01F8
00F800F8
00F800F8
00F800F8
00F801F0
01F003F0
01F01FE0
01FFFFC0
01FFFF80
01FFFF00
03FFFC00
03FFFE00
03E0FF00
03E07F00
03E03F80
07C01F80
07C00FC0
07C00FC0
3FFC07F8
7FFC07FC
FFFC07FC
FFFC03FC
7FF803F8
ENDCHAR
STARTCHAR 0155
ENCODING 341
SWIDTH 600 0
DWIDTH 30 0
BBX 29 34 2 0
BITMAP
000001C0
000003C0
000007C0
00001F80
00003F00
00007C00
0000F800
00007000
00000000
00000000
00000000
00000000
01FE0FF0
07FE3FF8
07FEFFF8
07FFFFF8
03FFFFF8
007FF000
007FC000
007F8000
007E0000
007C0000
00F80000
00F80000
00F80000
00F80000
00F80000
01F00000
01F00000
3FFFF800
7FFFFC00
FFFFFC00
FFFFF800
7FFFF000
ENDCHAR
STARTCHAR 0156
ENCODING 342
SWIDTH 600 0
DWIDTH 30 0
BBX 30 39 0 -10
BITMAP
01FFFF00
03FFFFC0
07FFFFE0
07FFFFF0
03FFFFF0
007C03F8
007C01F8
00F800F8
00F800F8
00F800F8
00F801F0
01F003F0
01F01FE0
01FFFFC0
01FFFF80
01FFFF00
03FFFC00
03FFFE00
03E0FF00
03E07F00
03E03F80
07C01F80
07C00FC0
07C00FC0
3FFC07F8
7FFC07FC
FFFC07FC
FFFC03FC
7FF803F8
00000000
0007E000
000FC000
000F8000
001F0000
001F0000
001E0000
003C0000
00380000
00300000
ENDCHAR
STARTCHAR 0157
ENCODING 343
SWIDTH 600 0
DWIDTH 30 0
BBX 29 32 2 -9
BITMAP
01FE0FF0
07FE3FF8
07FEFFF8
07FFFFF8
03FFFFF8
007FF000
007FC000
007F8000
007E0000
007C0000
00F80000
00F80000
00F80000
00F80000
00F80000
01F00000
01F00000
3FFFF800
7FFFFC00
FFFFFC00
FFFFF800
7FFFF000
00000000
001F8000
003F0000
003E0000
007C0000
007C0000
00780000
00F00000
00E00000
00C00000
ENDCHAR
STARTCHAR 0158
ENCODING 344
SWIDTH 600 0
DWIDTH 30 0
BBX 30 40 0 0
BITMAP
00060018
000F0078
000FC1F8
0007F7F0
0003FFC0
0001FF00
00007E00
00003800
00000000
00000000
00000000
01FFFF00
03FFFFC0
07FFFFE0
07FFFFF0
03FFFFF0
007C03F8
007C01F8
00F800F8
00F800F8
00F800F8
00F801F0
01F003F0
01F01FE0
01FFFFC0
01FFFF80
01FFFF00
03FFFC00
03FFFE00
03E0FF00
03E07F00
03E03F80
07C01F80
07C00FC0
07C00FC0
3FFC07F8
7FFC07FC
FFFC07FC
FFFC03FC
7FF803F8
ENDCHAR
STARTCHAR 0159
ENCODING 345
SWIDTH 600 0
DWIDTH 30 0
BBX 29 33 2 0
BITMAP
001C0070
003E01F0
003F87F0
001FDFC0
0007FF80
0003FE00
0000F800
00006000
00000000
00000000
00000000
01FE0FF0
07FE3FF8
07FEFFF8
07FFFFF8
03FFFFF8
007FF000
007FC000
007F8000
007E0000
007C0000
00F80000
00F80000
00F80000
00F80000
00F80000
01F00000
01F00000
3FFFF800
7FFFFC00
FFFFFC00
FFFFF800
7FFFF000
ENDCHAR
STARTCHAR 015A
ENCODING 346
SWIDTH 600 0
DWIDTH 30 0
BBX 27 40 4 0
BITMAP
00001C00
00007C00
0000F800
0001F000
0003E000
0007C000
000F0000
00060000
00000000
00000000
00000000
001FFDE0
007FFFE0
00FFFFE0
01FFFFE0
03FFFFE0
07E00FC0
07C007C0
0F8007C0
0F8007C0
0F800780
0FC00000
0FF80000
0FFF8000
07FFF000
03FFFC00
00FFFE00
001FFF00
0000FF00
00003F00
78001F00
78001F00
F8001F00
F8003E00
FE00FE00
FFFFFC00
FFFFF800
FFFFF000
FFFFE000
63FF8000
ENDCHAR
STARTCHAR 015B
ENCODING 347
SWIDTH 600 0
DWIDTH 30 0
BBX 26 34 4 -1
BITMAP
00001C00
00003E00
00007C00
0001F800
0003F000
0007C000
00078000
00030000
00000000
00000000
00000000
003FFB80
00FFFFC0
01FFFFC0
03FFFF80
07FFFF80
0FC01F80
0FC00F00
0FE00000
0FFF0000
0FFFF000
07FFFC00
03FFFE00
007FFE00
0003FE00
38007F00
7C003F00
7C003E00
FF00FE00
FFFFFC00
FFFFF800
FFFFF000
FFFFC000
03FE0000
ENDCHAR
STARTCHAR 015C
ENCODING 348
SWIDTH 600 0
DWIDTH 30 0
BBX 27 40 4 0
BITMAP
00003000
0000F800
0003FE00
000FFF00
003FFF80
007F0FC0
007C03C0
007001C0
00000000
00000000
00000000
001FFDE0
007FFFE0
00FFFFE0
01FFFFE0
03FFFFE0
07E00FC0
07C007C0
0F8007C0
0F8007C0
0F800780
0FC00000
0FF80000
0FFF8000
07FFF000
03FFFC00
00FFFE00
001FFF00
0000FF00
00003F00
78001F00
78001F00
F8001F00
F8003E00
FE00FE00
FFFFFC00
FFFFF800
FFFFF000
FFFFE000
63FF8000
ENDCHAR
STARTCHAR 015D
ENCODING 349
SWIDTH 600 0
DWIDTH 30 0
BBX 26 35 4 -1
BITMAP
00006000
0000F000
0003F800
000FFE00
003FFF00
007E1F80
00F80FC0
00E00380
00000000
00000000
00000000
00000000
003FFB80
00FFFFC0
01FFFFC0
03FFFF80
07FFFF80
0FC01F80
0FC00F00
0FE00000
0FFF0000
0FFFF000
07FFFC00
03FFFE00
007FFE00
0003FE00
38007F00
7C003F00
7C003E00
FF00FE00
FFFFFC00
FFFFF800
FFFFF000
FFFFC000
03FE0000
ENDCHAR
STARTCHAR 015E
ENCODING 350
SWIDTH 600 0
DWIDTH 30 0
BBX 28 39 3 -9
BITMAP
0007FEF0
003FFFF0
007FFFF0
00FFFFF0
01FFFFF0
03F807E0
03E003E0
07C003E0
07C003E0
07C003C0
07F00000
07FC0000
03FFC000
03FFFC00
01FFFE00
007FFF00
0007FF80
00007F80
00001F80
1C000F80
3C000F80
7C000F80
7C001F00
7F003F00
FFE1FE00
FFFFFE00
FFFFFC00
FFFFF000
73FFE000
007E0000
007F0000
007F0000
007F8000
00078000
00078000
07CF0000
07FF0000
07FE0000
01F80000
ENDCHAR
STARTCHAR 015F
ENCODING 351
SWIDTH 600 0
DWIDTH 30 0
BBX 26 32 4 -9
BITMAP
003FFB80
00FFFFC0
01FFFFC0
07FFFF80
07FFFF80
0FC01F80
0FC00F00
0FE00000
0FFF0000
0FFFF000
07FFFC00
03FFFE00
007FFE00
0001FF00
3C007F00
7C003F00
7E007E00
7FC1FE00
7FFFFC00
FFFFF800
FFFFF000
7FFFC000
00FC0000
007C0000
007C0000
00FE0000
001E0000
001C0000
1FFC0000
1FF80000
1FF00000
07E00000
ENDCHAR
STARTCHAR 0160
ENCODING 352
SWIDTH 600 0
DWIDTH 30 0
BBX 27 40 4 0
BITMAP
003000C0
007C03E0
007E0FC0
003FBF80
001FFE00
0007FC00
0003F000
0000C000
00000000
00000000
00000000
001FFDE0
007FFFE0
00FFFFE0
01FFFFE0
03FFFFE0
07E00FC0
07C007C0
0F8007C0
0F8007C0
0F800780
0FC00000
0FF80000
0FFF8000
07FFF000
03FFFC00
00FFFE00
001FFF00
0000FF00
00003F00
78001F00
78001F00
F8001F00
F8003E00
FE00FE00
FFFFFC00
FFFFF800
FFFFF000
FFFFE000
63FF8000
ENDCHAR
STARTCHAR 0161
ENCODING 353
SWIDTH 600 0
DWIDTH 30 0
BBX 26 34 4 -1
BITMAP
00600180
00F807C0
00FC1F80
007F7F00
003FFC00
000FF800
0007E000
00018000
00000000
00000000
00000000
003FFB80
00FFFFC0
01FFFFC0
03FFFF80
07FFFF80
0FC01F80
0FC00F00
0FE00000
0FFF0000
0FFFF000
07FFFC00
03FFFE00
007FFE00
0003FE00
38007F00
7C003F00
7C003E00
FF00FE00
FFFFFC00
FFFFF800
FFFFF000
FFFFC000
03FE0000
ENDCHAR
STARTCHAR 0162
ENCODING 354
SWIDTH 600 0
DWIDTH 30 0
BBX 28 39 6 -10
BITMAP
3FFFFFF0
3FFFFFF0
3FFFFFF0
3FFFFFE0
7FFFFFE0
7C0F03E0
7C1F03E0
7C1F07C0
F81F07C0
F81F07C0
F83E0780
703E0780
003E0000
003E0000
003E0000
007C0000
007C0000
007C0000
007C0000
00F80000
00F80000
00F80000
00F80000
00F80000
3FFFC000
7FFFE000
FFFFE000
FFFFC000
7FFF8000
01E00000
01F80000
01F80000
03FC0000
003C0000
00380000
3FF80000
3FF00000
3FE00000
0FC00000
ENDCHAR
STARTCHAR 0163
ENCODING 355
SWIDTH 600 0
DWIDTH 30 0
BBX 22 39 5 -9
BITMAP
01E000
01E000
03E000
03E000
03E000
03E000
03E000
7FFFF8
FFFFFC
FFFFFC
FFFFFC
7FFFF8
0F8000
0F8000
0F8000
0F8000
0F0000
1F0000
1F0000
1F0000
1F0000
3E0000
3E0000
3E0038
3E01FC
3FFFFC
3FFFF8
1FFFF0
0FFFC0
07FE00
01F000
01F800
01FC00
003C00
003800
3FF800
3FF800
1FF000
0FC000
ENDCHAR
STARTCHAR 0164
ENCODING 356
SWIDTH 600 0
DWIDTH 30 0
BBX 28 40 4 0
BITMAP
00600180
00F00780
00FC1F80
007F7F00
003FFC00
001FF000
0007C000
00038000
00000000
00000000
00000000
3FFFFFF0
3FFFFFF0
3FFFFFF0
3FFFFFE0
7FFFFFE0
7C0F03E0
7C1F03E0
7C1F07C0
F81F07C0
F81F07C0
F83E0780
703E0780
003E0000
003E0000
003E0000
007C0000
007C0000
007C0000
007C0000
00F80000
00F80000
00F80000
00F80000
00F80000
3FFFC000
7FFFE000
FFFFE000
FFFFC000
7FFF8000
ENDCHAR
STARTCHAR 0165
ENCODING 357
SWIDTH 600 0
DWIDTH 30 0
BBX 29 35 5 -1
BITMAP
00000030
000000F8
000001F0
000003E0
00000FC0
01E01F00
01F01E00
03E00C00
03E00000
03E00000
03E00000
03E00000
7FFFF800
FFFFFC00
FFFFFC00
FFFFFC00
7FFFF800
0F800000
0F800000
0F800000
0F800000
0F000000
1F000000
1F000000
1F000000
1F000000
3E000000
3E000000
3E001C00
3F01FC00
3FFFFC00
3FFFFC00
1FFFF000
0FFFC000
03FC0000
ENDCHAR
STARTCHAR 0166
ENCODING 358
SWIDTH 600 0
DWIDTH 30 0
BBX 28 29 3 0
BITMAP
3FFFFFF0
3FFFFFF0
3FFFFFE0
7FFFFFE0
7FFFFFE0
7C1F03E0
7C1F03E0
7C1F07C0
F81F07C0
F81F07C0
F83E0780
F03E0780
003E0000
003E0000
007C0000
0FFFF000
1FFFF000
3FFFF000
3FFFF000
1FFFE000
00F80000
00F80000
00F80000
00F00000
3FFFC000
7FFFC000
FFFFC000
FFFFC000
7FFF8000
ENDCHAR
STARTCHAR 0167
ENCODING 359
SWIDTH 600 0
DWIDTH 30 0
BBX 23 30 2 0
BITMAP
007800
00F800
00F800
00F800
01F000
01F000
01F000
3FFFFC
7FFFFE
7FFFFE
7FFFFE
3FFFFC
03E000
07C000
07C000
7FF800
FFFC00
FFFC00
FFFC00
7FF800
0F8000
0F8000
0F0000
1F000E
1F80FE
1FFFFE
1FFFFE
0FFFF8
07FFE0
01FF00
ENDCHAR
STARTCHAR 0168
ENCODING 360
SWIDTH 600 0
DWIDTH 30 0
BBX 30 39 4 0
BITMAP
000F80E0
003FE1E0
007FFFE0
00F9FFC0
00F07F00
00400C00
00000000
00000000
00000000
00000000
3FF83FF8
7FFC7FFC
7FFC7FFC
7FF87FF8
7FF07FF0
1F0007C0
1F0007C0
1F0007C0
3E000F80
3E000F80
3E000F80
3E000F80
3E001F00
7C001F00
7C001F00
7C001F00
7C001F00
F8003E00
F8003E00
F8003E00
F8003E00
F8007C00
FC00FC00
FE03F800
7FFFF000
7FFFE000
3FFFC000
1FFF8000
07FE0000
ENDCHAR
STARTCHAR 0169
ENCODING 361
SWIDTH 600 0
DWIDTH 30 0
BBX 25 32 5 0
BITMAP
00380300
00FE0700
01FFDF00
03FFFE00
0787FC00
0300F800
00000000
00000000
00000000
00000000
7F80FF80
FF81FF80
FF01FF80
FF01FF00
FF01FF00
1F001F00
1F001F00
3E001F00
3E003E00
3E003E00
3E003E00
7E003E00
7C003E00
7C007C00
7C007C00
7C00FC00
7C03FC00
7FFFFF00
7FFFFF00
3FFFFF00
1FFEFF00
0FF8FE00
ENDCHAR
STARTCHAR 016A
ENCODING 362
SWIDTH 600 0
DWIDTH 30 0
BBX 30 37 4 0
BITMAP
003FFE00
00FFFF80
00FFFF80
00FFFF80
00000000
00000000
00000000
00000000
3FF83FF8
7FFC7FFC
7FFC7FFC
7FF87FF8
7FF07FF0
1F0007C0
1F0007C0
1F0007C0
3E000F80
3E000F80
3E000F80
3E000F80
3E001F00
7C001F00
7C001F00
7C001F00
7C001F00
F8003E00
F8003E00
F8003E00
F8003E00
F8007C00
FC00FC00
FE03F800
7FFFF000
7FFFE000
3FFFC000
1FFF8000
07FE0000
ENDCHAR
STARTCHAR 016B
ENCODING 363
SWIDTH 600 0
DWIDTH 30 0
BBX 25 29 5 0
BITMAP
00FFFF00
01FFFF00
01FFFF00
00FFFE00
00000000
00000000
00000000
7F80FF80
FF81FF80
FF01FF80
FF01FF00
FF01FF00
1F001F00
1F001F00
3E001F00
3E003E00
3E003E00
3E003E00
7E003E00
7C003E00
7C007C00
7C007C00
7C00FC00
7C03FC00
7FFFFF00
7FFFFF00
3FFFFF00
1FFEFF00
0FF8FE00
ENDCHAR
STARTCHAR 016C
ENCODING 364
SWIDTH 600 0
DWIDTH 30 0
BBX 30 40 4 0
BITMAP
00300040
007801E0
007801C0
007C07C0
003FFF80
001FFF00
000FFC00
0001E000
00000000
00000000
00000000
3FF83FF8
7FFC7FFC
7FFC7FFC
7FF87FF8
7FF07FF0
1F0007C0
1F0007C0
1F0007C0
3E000F80
3E000F80
3E000F80
3E000F80
3E001F00
7C001F00
7C001F00
7C001F00
7C001F00
F8003E00
F8003E00
F8003E00
F8003E00
F8007C00
FC00FC00
FE03F800
7FFFF000
7FFFE000
3FFFC000
1FFF8000
07FE0000
ENDCHAR
STARTCHAR 016D
ENCODING 365
SWIDTH 600 0
DWIDTH 30 0
BBX 25 33 5 0
BITMAP
00C00300
01C00700
01E00F00
01F01F00
01FFFE00
00FFF800
003FF000
00070000
00000000
00000000
00000000
7F80FF80
FF81FF80
FF01FF80
FF01FF00
FF01FF00
1F001F00
1F001F00
3E001F00
3E003E00
3E003E00
3E003E00
7E003E00
7C003E00
7C007C00
7C007C00
7C00FC00
7C03FC00
7FFFFF00
7FFFFF00
3FFFFF00
1FFEFF00
0FF8FE00
ENDCHAR
STARTCHAR 016E
ENCODING 366
SWIDTH 600 0
DWIDTH 30 0
BBX 30 40 4 0
BITMAP
0001F800
0003FC00
0007FC00
000F1C00
000E1C00
000F7C00
000FF800
0007F000
0003C000
00000000
00000000
3FF83FF8
7FFC7FFC
7FFC7FFC
7FF87FF8
7FF07FF0
1F0007C0
1F0007C0
1F0007C0
3E000F80
3E000F80
3E000F80
3E000F80
3E001F00
7C001F00
7C001F00
7C001F00
7C001F00
F8003E00
F8003E00
F8003E00
F8003E00
F8007C00
FC00FC00
FE03F800
7FFFF000
7FFFE000
3FFFC000
1FFF8000
07FE0000
ENDCHAR
STARTCHAR 016F
ENCODING 367
SWIDTH 600 0
DWIDTH 30 0
BBX 25 35 5 0
BITMAP
0007E000
000FF000
001FF000
003C7000
00387000
003DF000
003FE000
001FC000
000F0000
00000000
00000000
00000000
00000000
7F80FF80
FF81FF80
FF01FF80
FF01FF00
FF01FF00
1F001F00
1F001F00
3E001F00
3E003E00
3E003E00
3E003E00
7E003E00
7C003E00
7C007C00
7C007C00
7C00FC00
7C03FC00
7FFFFF00
7FFFFF00
3FFFFF00
1FFEFF00
0FF8FE00
ENDCHAR
STARTCHAR 0170
ENCODING 368
SWIDTH 600 0
DWIDTH 30 0
BBX 30 40 4 0
BITMAP
0000E070
0001E0F0
0007E3F0
000FC7C0
001F0F80
003E1F00
003C3E00
00301800
00000000
00000000
00000000
3FF83FF8
7FFC7FFC
7FFC7FFC
7FF87FF8
7FF07FF0
1F0007C0
1F0007C0
1F0007C0
3E000F80
3E000F80
3E000F80
3E000F80
3E001F00
7C001F00
7C001F00
7C001F00
7C001F00
F8003E00
F8003E00
F8003E00
F8003E00
F8007C00
FC00FC00
FE03F800
7FFFF000
7FFFE000
3FFFC000
1FFF8000
07FE0000
ENDCHAR
STARTCHAR 0171
ENCODING 369
SWIDTH 600 0
DWIDTH 30 0
BBX 25 33 5 0
BITMAP
00070380
000F0F80
003F1F80
007E3E00
00F87C00
01F0F800
01E0E000
0080C000
00000000
00000000
00000000
7F80FF80
FF81FF80
FF01FF80
FF01FF00
FF01FF00
1F001F00
1F001F00
3E001F00
3E003E00
3E003E00
3E003E00
7E003E00
7C003E00
7C007C00
7C007C00
7C00FC00
7C03FC00
7FFFFF00
7FFFFF00
3FFFFF00
1FFEFF00
0FF8FE00
ENDCHAR
STARTCHAR 0172
ENCODING 370
SWIDTH 600 0
DWIDTH 30 0
BBX 29 39 5 -10
BITMAP
3FF87FF8
7FFCFFF8
7FFCFFF8
7FF8FFF8
3FF07FF0
1F000F80
1F000F80
1F000F80
3E000F80
3E000F80
3E001F00
3E001F00
3E001F00
7C001F00
7C001F00
7C003E00
7C003E00
F8003E00
F8003E00
F8007C00
F8007C00
F800FC00
FC00F800
FE03F800
7FFFF000
7FFFE000
3FFFC000
1FFF8000
07FF0000
001E0000
003C0000
00780000
00F00000
01E00000
01E38000
01FF8000
01FF8000
00FF0000
007C0000
ENDCHAR
STARTCHAR 0173
ENCODING 371
SWIDTH 600 0
DWIDTH 30 0
BBX 25 32 5 -10
BITMAP
7F80FF80
FF81FF80
FF03FF80
FF03FF00
FF01FF00
1F001F00
1F001F00
3E001F00
3E003E00
3E003E00
3E003E00
7E003E00
7C007C00
7C007C00
7C007C00
7C01FC00
7E03FC00
7FFFFF00
7FFFFF00
3FFFFF00
1FFCFE00
0FF9FC00
0000F800
0001E000
0003C000
00078000
000F0000
000F1800
000FFC00
000FFC00
000FF800
0007E000
ENDCHAR
STARTCHAR 0174
ENCODING 372
SWIDTH 600 0
DWIDTH 30 0
BBX 31 40 3 0
BITMAP
00006000
0001F000
0007FC00
000FFE00
003FBF80
00FE1FC0
00F807C0
00E00180
00000000
00000000
00000000
3FF81FFE
7FF83FFE
FFF83FFE
FFF83FFE
7FF03FFC
3E0001F0
3E0001F0
3E0F83E0
3E1F83E0
3E1FC3E0
7E3FC7C0
7E3FC7C0
7C7FC7C0
7C7FCF80
7CFFCF80
7CFFCF80
7DF7DF00
7FF7FF00
7FE7FF00
7FC7FE00
7FC3FE00
7F83FE00
FF83FC00
FF03FC00
FF03FC00
FE03F800
FE03F800
FC03F800
FC01F000
ENDCHAR
STARTCHAR 0175
ENCODING 373
SWIDTH 600 0
DWIDTH 30 0
BBX 30 34 3 0
BITMAP
00004000
0001E000
0007F800
000FFC00
003FFF00
00FE3F80
00F80F80
00E00780
00000000
00000000
00000000
00000000
7FC00FF8
FFE01FFC
FFE01FFC
FFC01FF8
7F801FF0
3E0F87C0
3E1F87C0
3E1F8FC0
3E3F8F80
3E7F8F80
3F7FDF00
3FFFDF00
3FFFFE00
3FF7FE00
3FF7FC00
3FE7FC00
3FE7F800
3FC7F800
1F83F000
1F83F000
1F03F000
1F03E000
ENDCHAR
STARTCHAR 0176
ENCODING 374
SWIDTH 600 0
DWIDTH 30 0
BBX 28 40 4 0
BITMAP
0001C000
0003E000
000FF000
003FFC00
00FEFE00
01F83F00
01E01F00
01800600
00000000
00000000
00000000
3FE03FF0
7FE07FF0
FFE07FF0
FFE07FF0
7FC03FE0
1F803F00
0FC07E00
0FC0FC00
07E1F800
07E3F000
03F7E000
03FFC000
01FFC000
01FF8000
01FF0000
00FE0000
00FC0000
00F80000
00F80000
00F80000
00F80000
00F80000
01F00000
01F00000
7FFFC000
FFFFC000
FFFFC000
FFFFC000
7FFF8000
ENDCHAR
STARTCHAR 0177
ENCODING 375
SWIDTH 600 0
DWIDTH 30 0
BBX 34 44 -1 -10
BITMAP
0000060000
00000F0000
00003F8000
0000FFE000
0003FFF000
0007E1F800
000F80FC00
000E003800
0000000000
0000000000
0000000000
0000000000
01FF00FF80
03FF81FFC0
03FF83FFC0
03FF03FF80
03FE01FF00
00F8007C00
00FC00F800
00FC01F800
007C03F000
007E03E000
007E07C000
003E0FC000
003F0F8000
003F1F0000
003F3F0000
001FFE0000
001FFC0000
001FF80000
000FF80000
000FF00000
000FE00000
0007C00000
000FC00000
001F800000
001F000000
003E000000
007E000000
7FFF800000
FFFF800000
FFFF800000
FFFF800000
7FFF000000
ENDCHAR
STARTCHAR 0178
ENCODING 376
SWIDTH 600 0
DWIDTH 30 0
BBX 28 39 4 0
BITMAP
00781E00
00F83E00
01F87E00
01F87E00
00F83E00
00E03800
00000000
00000000
00000000
00000000
3FE03FF0
7FE07FF0
FFE07FF0
FFE07FF0
7FC03FE0
1F803F00
0FC07E00
0FC0FC00
07E1F800
07E3F000
03F7E000
03FFC000
01FFC000
01FF8000
01FF0000
00FE0000
00FC0000
00F80000
00F80000
00F80000
00F80000
00F80000
01F00000
01F00000
7FFFC000
FFFFC000
FFFFC000
FFFFC000
7FFF8000
ENDCHAR
STARTCHAR 0179
ENCODING 377
SWIDTH 600 0
DWIDTH 30 0
BBX 27 40 3 0
BITMAP
00000700
00000F00
00003F00
00007E00
0000F800
0001F000
0001E000
00018000
00000000
00000000
00000000
01FFFFE0
01FFFFE0
03FFFFE0
03FFFFE0
03FFFFC0
03E01FC0
03E03F80
07C07F00
07C0FE00
07C1FC00
0383F800
0007F000
000FE000
001FC000
003F8000
007F0000
00FE0000
01FC0000
03F80700
07F00F00
0FE01F00
1FC01F00
3F801F00
7F001F00
7FFFFE00
FFFFFE00
FFFFFE00
FFFFFE00
FFFFFC00
ENDCHAR
STARTCHAR 017A
ENCODING 378
SWIDTH 600 0
DWIDTH 30 0
BBX 26 33 4 0
BITMAP
00001C00
00003E00
00007C00
0001F800
0003F000
0007C000
00078000
00030000
00000000
00000000
00000000
07FFFFC0
07FFFFC0
07FFFF80
07FFFF80
0FFFFF00
0F80FE00
0F81FC00
0F83F800
0607F000
001FC000
003F8000
007F0000
00FE0000
03F80000
07F00C00
0FE01E00
1FC03E00
3FFFFE00
7FFFFE00
7FFFFC00
7FFFFC00
FFFFFC00
ENDCHAR
STARTCHAR 017B
ENCODING 379
SWIDTH 600 0
DWIDTH 30 0
BBX 27 39 3 0
BITMAP
00007800
0000F800
0001F800
0001F800
0000F800
0000E000
00000000
00000000
00000000
00000000
01FFFFE0
01FFFFE0
03FFFFE0
03FFFFE0
03FFFFC0
03E01FC0
03E03F80
07C07F00
07C0FE00
07C1FC00
0383F800
0007F000
000FE000
001FC000
003F8000
007F0000
00FE0000
01FC0000
03F80700
07F00F00
0FE01F00
1FC01F00
3F801F00
7F001F00
7FFFFE00
FFFFFE00
FFFFFE00
FFFFFE00
FFFFFC00
ENDCHAR
STARTCHAR 017C
ENCODING 380
SWIDTH 600 0
DWIDTH 30 0
BBX 26 32 4 0
BITMAP
0000E000
0001F000
0003F000
0003F000
0003E000
0003C000
00000000
00000000
00000000
00000000
07FFFFC0
07FFFFC0
07FFFF80
07FFFF80
0FFFFF00
0F80FE00
0F81FC00
0F83F800
0607F000
001FC000
003F8000
007F0000
00FE0000
03F80000
07F00C00
0FE01E00
1FC03E00
3FFFFE00
7FFFFE00
7FFFFC00
7FFFFC00
FFFFFC00
ENDCHAR
STARTCHAR 017D
ENCODING 381
SWIDTH 600 0
DWIDTH 30 0
BBX 28 40 3 0
BITMAP
00180060
003E01F0
003F07E0
001FDFC0
000FFF00
0003FE00
0001F800
00006000
00000000
00000000
00000000
01FFFFE0
01FFFFE0
03FFFFE0
03FFFFE0
03FFFFC0
03E01FC0
03E03F80
07C07F00
07C0FE00
07C1FC00
0383F800
0007F000
000FE000
001FC000
003F8000
007F0000
00FE0000
01FC0000
03F80700
07F00F00
0FE01F00
1FC01F00
3F801F00
7F001F00
7FFFFE00
FFFFFE00
FFFFFE00
FFFFFE00
FFFFFC00
ENDCHAR
STARTCHAR 017E
ENCODING 382
SWIDTH 600 0
DWIDTH 30 0
BBX 26 33 4 0
BITMAP
00600180
00F807C0
00FE1F80
007F7F00
001FFC00
000FF000
0007E000
00018000
00000000
00000000
00000000
07FFFFC0
07FFFFC0
07FFFF80
07FFFF80
0FFFFF00
0F80FE00
0F81FC00
0F83F800
0607F000
001FC000
003F8000
007F0000
00FE0000
03F80000
07F00C00
0FE01E00
1FC03E00
3FFFFE00
7FFFFE00
7FFFFC00
7FFFFC00
FFFFFC00
ENDCHAR
STARTCHAR 017F
ENCODING 383
SWIDTH 600 0
DWIDTH 30 0
BBX 31 31 3 0
BITMAP
00003FF0
0000FFFC
0003FFFE
0007FFFC
000FFFF8
000FC000
001F0000
001F0000
001F0000
03FE0000
07FE0000
0FFE0000
0FFE0000
07FE0000
007C0000
007C0000
007C0000
007C0000
007C0000
00F80000
00F80000
00F80000
00F80000
00F00000
01F00000
01F00000
3FFFF800
7FFFFC00
FFFFFC00
FFFFF800
7FFFF000
ENDCHAR
STARTCHAR 0180
ENCODING 384
SWIDTH 600 0
DWIDTH 30 0
BBX 31 31 0 0
BITMAP
01FFFC00
03FFFE00
07FFFE00
07FFFE00
03FFFC00
007C0000
007C0000
007C0000
00F80000
00F8FFC0
00FBFFF0
00FFFFF8
00FFFFFC
01FFFFFC
01FE00FE
01FC007E
01F8003E
03F0003E
03F0003E
03E0003E
03E0003E
03E0007C
07E0007C
07E000FC
07F001F8
07F807F0
7FFFFFE0
FFFFFFC0
FFFFFF80
FFFFFF00
7F9FFC00
ENDCHAR
STARTCHAR 0181
ENCODING 385
SWIDTH 600 0
DWIDTH 30 0
BBX 30 29 2 0
BITMAP
03FFFF80
0FFFFFE0
3FFFFFF0
3FFFFFF8
7FFFFFFC
7C7C01FC
7CF8007C
7CF8007C
7CF8007C
38F800F8
00F801F8
01F007F0
01FFFFE0
01FFFFC0
01FFFFC0
03FFFFE0
03FFFFF0
03E007F8
03E001F8
03E000F8
07C000F8
07C000F8
07C001F0
07C003F0
7FFFFFE0
FFFFFFC0
FFFFFF80
FFFFFF00
7FFFF800
ENDCHAR
STARTCHAR 0182
ENCODING 386
SWIDTH 600 0
DWIDTH 30 0
BBX 32 29 1 0
BITMAP
01FFFFFF
03FFFFFF
07FFFFFF
07FFFFFF
03FFFFFE
007C003E
00F8003E
00F8003E
00F8003E
00F8003C
00F80038
01F00000
01FFFF00
01FFFFC0
01FFFFE0
03FFFFF0
03FFFFF0
03E003F8
03E001F8
03E000F8
07C000F8
07C000F8
07C001F0
07C003F0
7FFFFFE0
FFFFFFC0
FFFFFF80
FFFFFF00
7FFFF800
ENDCHAR
STARTCHAR 0183
ENCODING 387
SWIDTH 600 0
DWIDTH 30 0
BBX 31 31 0 0
BITMAP
01FFFFE0
03FFFFF0
03FFFFF0
03FFFFF0
03FFFFE0
007C0000
007C0000
007C0000
00F80000
00F8FFC0
00FBFFF0
00FFFFF8
00FFFFFC
01FFFFFC
01FE00FE
01FC007E
01F8003E
03F0003E
03F0003E
03E0003E
03E0003E
03E0007C
07E0007C
07E000FC
07F001F8
07F807F0
7FFFFFF0
FFFFFFE0
FFFFFF80
FFFFFF00
7F9FFC00
ENDCHAR
STARTCHAR 0184
ENCODING 388
SWIDTH 600 0
DWIDTH 30 0
BBX 30 31 1 0
BITMAP
00080000
003CF000
003FF000
003FF000
007FE000
007F8000
00FE0000
03F80000
0FF80000
0FF80000
0FF80000
06F00000
00FFF800
01FFFF80
01FFFFE0
01FFFFF0
01FFFFF8
01E003FC
03E000FC
03E0007C
03E0007C
03C0007C
03C0007C
07C000F8
07C001F8
07C003F0
3FFFFFE0
7FFFFFE0
FFFFFF80
FFFFFF00
7FFFF800
ENDCHAR
STARTCHAR 0185
ENCODING 389
SWIDTH 600 0
DWIDTH 30 0
BBX 30 32 1 -1
BITMAP
00100000
0079E000
007FE000
007FE000
00FFC000
00FF0000
01FE0000
03F80000
07F03C00
0FF1FF80
0FF7FFE0
06FFFFF0
01FFFFF8
01FF03F8
01F801FC
01F000FC
01E0007C
03E0007C
03C0007C
03C0007C
03C0007C
07C000F8
07C000F8
07C001F8
07C003F0
07E007E0
3FF01FE0
FFFFFFC0
FFFFFF80
FF7FFE00
FF3FFC00
000FE000
ENDCHAR
STARTCHAR 0186
ENCODING 390
SWIDTH 600 0
DWIDTH 30 0
BBX 28 30 3 0
BITMAP
0007C000
007FFC00
01FFFF00
03FFFF80
07FFFFC0
0FF8FFE0
1F800FE0
0F0007E0
0E0003F0
000003F0
000001F0
000001F0
000001F0
000001F0
000003E0
000003E0
000003E0
000003E0
000007C0
380007C0
7C000FC0
7C000F80
7C001F00
7C007F00
FF00FE00
FFFFFC00
FFFFF800
FFFFF000
FFFFC000
63FF0000
ENDCHAR
STARTCHAR 0187
ENCODING 391
SWIDTH 600 0
DWIDTH 30 0
BBX 36 34 1 0
BITMAP
0000000780
0000001FE0
0000003FE0
0000003FF0
0000007FE0
000FFE7DC0
003FFFF800
00FFFFF800
01FFFFF800
03FFFFF800
07F007F000
0FC001F000
1F8001F000
1F0001F000
3F0001E000
3E00000000
7C00000000
7C00000000
7C00000000
7C00000000
7800000000
F800000000
F800000000
F800000000
F800000000
F800000000
FC00038000
FE00078000
7F001F8000
7FFFFF8000
3FFFFF0000
1FFFFE0000
0FFFF80000
03FFE00000
ENDCHAR
STARTCHAR 0188
ENCODING 392
SWIDTH 600 0
DWIDTH 30 0
BBX 32 28 2 0
BITMAP
0000007E
000000FF
000001FF
000003FF
000003FF
003FFFC0
00FFFFC0
03FFFFC0
07FFFFC0
0FFFFF80
1FC01F80
3F000F80
3E000F80
7E000F00
7C000000
7C000000
F8000000
F8000000
F8000000
F8000000
FC000600
FC001F00
7F007F00
7FFFFF00
3FFFFE00
3FFFFC00
0FFFF000
03FF0000
ENDCHAR
STARTCHAR 0189
ENCODING 393
SWIDTH 600 0
DWIDTH 30 0
BBX 30 29 1 0
BITMAP
01FFFE00
03FFFF80
07FFFFE0
07FFFFF0
03FFFFF0
00F807F8
00F801F8
01F000FC
01F000FC
01F0007C
01F0007C
03E0007C
0FFF807C
1FFFC07C
3FFFC07C
3FFF80F8
1FFF00F8
07C000F8
07C001F8
07C001F0
07C003F0
0F8007E0
0F800FC0
0F803FC0
3FFFFF80
7FFFFF00
FFFFFC00
FFFFF000
7FFF8000
ENDCHAR
STARTCHAR 018A
ENCODING 394
SWIDTH 600 0
DWIDTH 30 0
BBX 30 29 2 0
BITMAP
07FFFE00
1FFFFF80
3FFFFFE0
7FFFFFF0
FFFFFFF0
F8F807F8
F8F801F8
F8F800FC
F8F800FC
71F0007C
21F0007C
01F0007C
01F0007C
03E0007C
03E0007C
03E0007C
03E000F8
03E000F8
07C000F8
07C001F0
07C001F0
07C003E0
0F800FE0
0F803FC0
3FFFFF80
7FFFFF00
7FFFFC00
7FFFF800
7FFFC000
ENDCHAR
STARTCHAR 018B
ENCODING 395
SWIDTH 600 0
DWIDTH 30 0
BBX 32 29 2 0
BITMAP
03FFFFFF
07FFFFFF
07FFFFFF
07FFFFFF
07FFFFFE
0FC001F0
0F8003E0
0F8003E0
0F8003E0
0F0003E0
000007C0
000007C0
007FFFC0
03FFFFC0
07FFFFC0
0FFFFF80
1FFFFF80
3F800F80
7E000F80
7C000F80
F8001F00
F8001F00
F8001F00
FC001F00
FFFFFFC0
7FFFFFE0
7FFFFFE0
1FFFFFE0
07FFFFC0
ENDCHAR
STARTCHAR 018C
ENCODING 396
SWIDTH 600 0
DWIDTH 30 0
BBX 30 31 1 0
BITMAP
001FFFFC
003FFFFC
003FFFF8
003FFFF8
003FFFF8
000000F8
000000F8
000001F0
000101F0
003FF1F0
01FFFDF0
03FFFFE0
07FFFFE0
0FFFFFE0
1FC01FE0
3F000FE0
3E000FC0
7C0007C0
7C0007C0
F80007C0
F80007C0
F8000F80
F8000F80
F8001F80
FC003F80
FE00FF00
7FFFFFE0
7FFFFFF0
3FFFFFF0
1FFFDFF0
07FF3FC0
ENDCHAR
STARTCHAR 018D
ENCODING 397
SWIDTH 600 0
DWIDTH 30 0
BBX 27 33 1 -10
BITMAP
0007F000
003FFE00
00FFFF00
01FFFF80
03FFFFC0
07F81FC0
0FC00FE0
1F8007E0
1F0003E0
3F0003E0
3E0003E0
3E0003E0
3E0003E0
7E0003E0
3E0007E0
3E0007C0
3F000FC0
3F803F80
1FFBFF00
1FFFFE00
0FFFFC00
07FFFE00
01FFFF00
001FFF00
60001F00
70001F00
F8001F00
FFC03F00
FFFFFE00
FFFFFE00
FFFFFC00
CFFFF000
C0FFC000
ENDCHAR
STARTCHAR 018E
ENCODING 398
SWIDTH 600 0
DWIDTH 30 0
BBX 31 29 2 0
BITMAP
07FFFFFE
07FFFFFE
07FFFFFE
0FFFFFFE
0FFFFFFC
0F8003E0
0F8003E0
1F0007C0
1F0007C0
0E0707C0
000F87C0
000F0F80
001FFF80
001FFF80
001FFF80
001FFF80
001FFF00
003E1F00
1C3E1F00
3E1C1F00
3E001F00
3E003E00
7C003E00
7C003E00
7FFFFFC0
7FFFFFC0
7FFFFFC0
FFFFFFC0
FFFFFF80
ENDCHAR
STARTCHAR 018F
ENCODING 399
SWIDTH 600 0
DWIDTH 30 0
BBX 29 32 3 -1
BITMAP
0000E000
000FFE00
003FFF80
00FFFFC0
01FFFFE0
03F81FF0
07E007F0
0FC003F0
0F0001F8
0E0000F8
000000F8
000000F8
000000F8
7FFFFFF8
7FFFFFF8
7FFFFFF0
FFFFFFF0
FFFFFFF0
F80001F0
F80003E0
F80003E0
F80007C0
F80007C0
FC000F80
7C001F80
7E003F00
7F80FE00
3FFFFC00
1FFFF800
0FFFF000
07FFC000
01FE0000
ENDCHAR
STARTCHAR 0190
ENCODING 400
SWIDTH 600 0
DWIDTH 30 0
BBX 27 29 4 1
BITMAP
001FFDE0
007FFFE0
00FFFFE0
01FFFFE0
03FFFFC0
07E01FC0
07C007C0
0F8007C0
0F800780
0F800780
0FC00000
0FE00000
0FFFE000
07FFF000
07FFF000
1FFFF000
3FFFE000
7F800000
7E000000
7C001E00
F8001E00
F8003E00
F8007E00
FC01FE00
FFFFFC00
7FFFFC00
7FFFFC00
3FFFF800
0FFE3000
ENDCHAR
STARTCHAR 0191
ENCODING 401
SWIDTH 600 0
DWIDTH 30 0
BBX 40 35 -5 -6
BITMAP
0003FFFFFF
0007FFFFFE
000FFFFFFE
000FFFFFFE
0007FFFFFE
0000F8003E
0000F8007C
0001F0007C
0001F0007C
0001F07878
0001F07830
0001E0F800
0003FFF800
0003FFF000
0003FFF000
0003FFF000
0007FFF000
0007C1F000
0007C1E000
0007C1C000
0007C00000
000F800000
000F800000
000F800000
000F800000
000F800000
001F000000
001F000000
003F000000
007E000000
3FFC000000
7FF8000000
FFF0000000
7FE0000000
3F80000000
ENDCHAR
STARTCHAR 0192
ENCODING 402
SWIDTH 600 0
DWIDTH 30 0
BBX 32 38 1 -6
BITMAP
000001FC
000007FF
00000FFF
00001FFE
00003FFC
00007E00
00007C00
0000F800
0000F800
0000F800
0000F000
0001F000
003FFF80
007FFFC0
00FFFFC0
00FFFF80
007FFF00
0003E000
0003E000
0003E000
0007C000
0007C000
0007C000
0007C000
0007C000
000F8000
000F8000
000F8000
000F8000
001F0000
001F0000
003F0000
007E0000
3FFC0000
7FFC0000
FFF00000
7FE00000
3F800000
ENDCHAR
STARTCHAR 0193
ENCODING 403
SWIDTH 600 0
DWIDTH 30 0
BBX 36 33 2 0
BITMAP
00000007C0
0000000FE0
0000001FF0
0000003FF0
0007FF3FF0
001FFFFCE0
007FFFFC00
01FFFFFC00
03FFFFFC00
07F801F800
07E000F800
0FC000F800
1F8000F000
1F00000000
3E00000000
3E00000000
3E00000000
7C00000000
7C00000000
7C03FFF000
7C07FFF800
F807FFF800
F807FFF000
F803FFE000
F80007C000
FC0007C000
FC000FC000
7F000F8000
7FFFFF8000
3FFFFF8000
1FFFFF8000
0FFFFC0000
03FFE00000
ENDCHAR
STARTCHAR 0194
ENCODING 404
SWIDTH 600 0
DWIDTH 30 0
BBX 28 31 5 -1
BITMAP
1F8007C0
7FE03FF0
FFE03FF0
FFE03FF0
FFC03FE0
1F801F00
1F803E00
0FC07E00
07C0FC00
07E1F800
03F3F000
03F7E000
01FFC000
01FF8000
00FF0000
007E0000
00FE0000
01FF0000
03FF0000
07FF8000
0FDF8000
0F8F8000
1F0F8000
1F0F8000
1F0F8000
1F1F0000
1FFF0000
1FFE0000
0FFC0000
0FF80000
03E00000
ENDCHAR
STARTCHAR 0195
ENCODING 405
SWIDTH 600 0
DWIDTH 30 0
BBX 35 31 -2 0
BITMAP
03FE000000
07FC000000
07FC000000
07FC000000
03FC000000
0078000000
00F8000000
00F8000000
00F8000000
00FFF81FE0
01FFFC3FE0
01FFFC3FE0
01FFFE3FE0
01FFFE3FE0
01F03E07C0
03E03E07C0
03E03E07C0
03E03E07C0
03E03E07C0
07C07C0F80
07C07C0F80
07C07C0F80
07C07C0F80
07C0F81F00
0F80F81F00
0F80F83F00
7FF0FFFE00
FFF0FFFE00
FFF07FFC00
FFF07FF800
7FE03FE000
ENDCHAR
STARTCHAR 0196
ENCODING 406
SWIDTH 600 0
DWIDTH 30 0
BBX 16 30 10 -1
BITMAP
7FF0
FFF0
FFF0
FFE0
7FE0
03E0
03E0
03E0
03C0
03C0
07C0
07C0
07C0
0780
0F80
0F80
0F80
0F80
0F80
1F00
1F00
1F00
1F00
1F00
1F80
1FFE
0FFF
0FFF
07FE
01F8
ENDCHAR
STARTCHAR 0197
ENCODING 407
SWIDTH 600 0
DWIDTH 30 0
BBX 26 29 5 0
BITMAP
03FFFFC0
07FFFFC0
07FFFFC0
07FFFFC0
07FFFF80
000F8000
000F8000
000F8000
000F8000
000F8000
001F0000
001F0000
0FFFFE00
3FFFFF00
3FFFFF00
3FFFFF00
1FFFFC00
003E0000
003E0000
007C0000
007C0000
007C0000
007C0000
007C0000
7FFFF800
FFFFF800
FFFFF800
FFFFF800
FFFFF000
ENDCHAR
STARTCHAR 0198
ENCODING 408
SWIDTH 600 0
DWIDTH 30 0
BBX 36 30 0 0
BITMAP
007F807E00
03FFE1FFC0
03FFE3FFE0
03FFE3FFF0
03FFC3FFF0
007C01FBF0
007C07F1F0
00780FC3F0
00781F8FE0
00F87F1FC0
00F8FE1FC0
00F1F81F00
00F7F00C00
01FFE00000
01FFF00000
01FFF80000
01FFFC0000
01F8FE0000
03F07E0000
03E03E0000
03E03F0000
03C01F0000
03C01F0000
07C00F8000
07C00F8000
1FF80FF000
7FFC0FF800
FFFC0FF800
FFFC07F800
7FF807F000
ENDCHAR
STARTCHAR 0199
ENCODING 409
SWIDTH 600 0
DWIDTH 30 0
BBX 28 32 2 0
BITMAP
0000FC00
0003FF00
000FFF00
001FFF00
003FFE00
003F0000
007E0000
007C0000
00F80000
00F80000
00F87FE0
00F8FFF0
01F0FFF0
01F0FFE0
01F0FFC0
01F3FC00
01F7F000
03EFE000
03FFC000
03FF0000
03FF0000
03FF8000
07FFC000
07CFE000
07CFF000
07C7F800
0783FC00
7F81FFC0
FF81FFE0
FF83FFE0
FF83FFC0
FF01FF80
ENDCHAR
STARTCHAR 019A
ENCODING 410
SWIDTH 600 0
DWIDTH 30 0
BBX 26 31 3 0
BITMAP
007FF800
00FFF000
00FFF000
00FFF000
007FF000
0001F000
0003E000
0003E000
0003E000
0003E000
0003E000
0007C000
0007C000
0007C000
07FFFF80
0FFFFFC0
0FFFFFC0
0FFFFF80
0FFFFF00
000F8000
001F0000
001F0000
001F0000
001F0000
001F0000
003E0000
3FFFFE00
7FFFFF00
FFFFFF00
FFFFFF00
7FFFFE00
ENDCHAR
STARTCHAR 019B
ENCODING 411
SWIDTH 600 0
DWIDTH 30 0
BBX 28 31 1 0
BITMAP
00FF8080
03FFC3E0
03FFEFE0
03FFFFE0
01FFFFC0
0007FF00
001FFC00
007FF000
00FFF800
01FFF800
01F9F800
00E3FC00
0007FC00
000FFC00
000FFE00
001FFE00
003F3E00
007E3E00
007C3F00
00FC1F00
01F81F00
03F01F80
03E00F80
07E00F80
0FC00FC0
1F800FC0
3FE01FF0
FFE07FF0
FFE07FF0
FFE07FF0
7FC03FE0
ENDCHAR
STARTCHAR 019C
ENCODING 412
SWIDTH 600 0
DWIDTH 30 0
BBX 33 29 2 0
BITMAP
1FC7F0FF80
3F8FF1FF80
7F8FF3FF80
7F8FE3FF80
3F8FE1FF00
0F03E07C00
1F03E0F800
1F03E0F800
1F07C0F800
1F07C0F800
3E07C0F800
3E07C1F000
3E07C1F000
3E0F81F000
3E0F81F000
7C0F83E000
7C0F83E000
7C0F83E000
7C1F03E000
7C1F03E000
F81F07C000
F81F07C000
F83E07C000
F87E0FC000
FFFFFFF000
FFFFFFF000
FFFFFFF000
7FDFFFF000
3F8FEFE000
ENDCHAR
STARTCHAR 019D
ENCODING 413
SWIDTH 600 0
DWIDTH 30 0
BBX 42 35 -7 -6
BITMAP
0003FC01FFC0
0007FE03FFC0
000FFE07FFC0
000FFE07FFC0
0007FF03FF80
0000FF003E00
0000FF807C00
0001FF807C00
0001FFC07C00
0001FFC07C00
0001FFE07C00
0003E7E0F800
0003E7F0F800
0003E3F0F800
0003E3F0F800
0003E1F9F000
0007C1F9F000
0007C0FDF000
0007C0FDF000
0007C0FFF000
0007807FE000
000F807FE000
000F803FE000
000F803FE000
000F801FE000
001F001FC000
001F000FC000
001F000FC000
003E000FC000
007E00000000
7FFC00000000
FFF800000000
FFF000000000
7FE000000000
3F8000000000
ENDCHAR
STARTCHAR 019E
ENCODING 414
SWIDTH 600 0
DWIDTH 30 0
BBX 27 32 3 -9
BITMAP
03F9FF00
0FF3FF80
0FFFFFC0
0FFFFFE0
0FFFFFE0
03FC07E0
03F803E0
03E003E0
03E003E0
03E003E0
07C007C0
07C007C0
07C007C0
07C007C0
07C007C0
0F800F80
0F800F80
7FE00F80
FFF00F80
FFF01F00
FFF01F00
FFE01F00
00001F00
00001F00
00003E00
00003E00
00003E00
0000FF80
0003FF80
0003FF80
0003FF80
0001FF00
ENDCHAR
STARTCHAR 019F
ENCODING 415
SWIDTH 600 0
DWIDTH 30 0
BBX 29 29 3 1
BITMAP
0007FC00
003FFF00
007FFFC0
01FFFFE0
03FFFFE0
07F80FF0
0FE003F0
0FC001F8
1F8001F8
3F0000F8
3E0000F8
7C0000F8
7C0000F8
7FFFFFF8
FFFFFFF8
FFFFFFF0
FFFFFFF0
FFFFFFF0
F80003E0
F80003E0
FC0007C0
FC000F80
7E003F80
7F007F00
3FFFFE00
3FFFFC00
1FFFF000
0FFFE000
03FF0000
ENDCHAR
STARTCHAR 01A0
ENCODING 416
SWIDTH 600 0
DWIDTH 30 0
BBX 33 33 2 0
BITMAP
0000000700
0000000F80
0000000F80
0000000F80
0007FE0F80
003FFF8F80
007FFFFF80
01FFFFFF00
03FFFFFE00
07F807FC00
0FE003F000
1FC001F800
1F0001F800
3F0000F800
3E0000F800
7C0000F800
7C0000F800
780000F800
F80000F800
F80000F000
F80001F000
F80001F000
F80003E000
F80007E000
FC0007C000
FC001FC000
7E003F8000
7F00FF0000
3FFFFE0000
3FFFFC0000
1FFFF00000
07FFE00000
03FF000000
ENDCHAR
STARTCHAR 01A1
ENCODING 417
SWIDTH 600 0
DWIDTH 30 0
BBX 30 27 2 -1
BITMAP
00000038
0000007C
0000007C
0000007C
003FF07C
00FFFCFC
03FFFFFC
07FFFFF8
0FFFFFF0
1FC03FE0
3F000FC0
3E000FC0
7C0007C0
7C0007C0
F80007C0
F80007C0
F8000F80
F8000F80
F8001F80
FC003F00
FE007E00
7F81FE00
7FFFFC00
3FFFF000
1FFFE000
0FFF8000
01FC0000
ENDCHAR
STARTCHAR 01A2
ENCODING 418
SWIDTH 600 0
DWIDTH 30 0
BBX 32 32 0 0
BITMAP
000001FC
000007FE
003FEFFF
00FFFFFF
01FFFFFF
03FFFE1F
07FFFC1F
0FE0FE1F
0F807E3E
1F803E3E
1F003E3E
3E003E3E
3E003E3E
3E003E7C
7C003E7C
7C003E7C
7C003E7C
7C007C7C
78007CF8
F8007CF8
F8007CF8
F800F8F8
F800F8F8
F801F1F0
FC03F1F0
FC07E1F0
7E0FCFFC
7FFFDFFE
7FFFBFFE
3FFF3FFE
1FFC1FFC
07F00000
ENDCHAR
STARTCHAR 01A3
ENCODING 419
SWIDTH 600 0
DWIDTH 30 0
BBX 34 26 0 -1
BITMAP
0000001000
000003FE00
000207FF00
007FEFFF80
01FFFFFF80
03FFFFDF80
07FFFE0F80
0FFFFE1F00
1F807F1F00
3F003F1F00
3E001F1F00
7C001F3E00
7C001F3E00
F8001F3E00
F8001F3E00
F8003E3E00
F8003E7C00
F8007E7C00
FC007C7C00
FC01F87C00
7F03FBFF80
7FFFF7FFC0
3FFFE7FFC0
1FFFC7FFC0
0FFF03FF80
03F8000000
ENDCHAR
STARTCHAR 01A4
ENCODING 420
SWIDTH 600 0
DWIDTH 30 0
BBX 30 29 2 0
BITMAP
07FFFF80
1FFFFFE0
3FFFFFF0
7FFFFFF8
FFFFFFF8
F87C01FC
F87C00FC
F87C007C
F878007C
70F8007C
00F8007C
00F800F8
00F801F8
01F007F0
01FFFFE0
01FFFFC0
01FFFF80
01FFFE00
03FFF800
03E00000
03E00000
03E00000
07C00000
07C00000
3FFF8000
7FFFC000
FFFFC000
FFFFC000
7FFF0000
ENDCHAR
STARTCHAR 01A5
ENCODING 421
SWIDTH 600 0
DWIDTH 30 0
BBX 33 42 -3 -10
BITMAP
00003F8000
0000FFC000
0001FFE000
0003FFC000
0007FF8000
000FC00000
000F800000
001F000000
001F000000
001F000000
003E3FF000
003EFFFC00
003FFFFE00
003FFFFF00
003FFFFF00
007F803F80
007E001F80
007E000F80
007C000F80
0078000F80
00F8000F80
00F8001F00
00F8001F00
00F8003F00
01FC007E00
01FF01FC00
01FFFFF800
01FFFFF800
01FFFFE000
03E7FFC000
03E1FE0000
03E0000000
03E0000000
03E0000000
07C0000000
07C0000000
07C0000000
3FFE000000
FFFF000000
FFFE000000
FFFE000000
7FFC000000
ENDCHAR
STARTCHAR 01A6
ENCODING 422
SWIDTH 600 0
DWIDTH 30 0
BBX 26 39 1 -10
BITMAP
03FF8000
07FF8000
07FF8000
07FF8000
07FF0000
00F80000
00F80000
00FFFC00
00FFFF00
00FFFF80
01FFFFC0
01FFFFC0
01F007C0
01F007C0
03E007C0
03E00FC0
03FFFF80
03FFFF00
03FFFE00
07FFF800
07FFFC00
07C0FC00
07C0FC00
07807C00
7FF07C00
FFF87C00
FFF87C00
FFF07C00
FFE07C00
00007C00
00007C00
00007C00
00007C00
00007C00
00007F00
0000FF80
0000FF80
0000FF00
0000FE00
ENDCHAR
STARTCHAR 01A7
ENCODING 423
SWIDTH 600 0
DWIDTH 30 0
BBX 26 29 4 1
BITMAP
03DFFC00
07FFFF00
07FFFF80
07FFFF80
07FFFFC0
0FE00FC0
0FC007C0
0F8007C0
0F8007C0
0F000F80
00001F80
0000FF00
001FFF00
01FFFE00
07FFF800
0FFFE000
3FFF0000
3FE00000
7F000000
7C001E00
F8001E00
F8003E00
F8007E00
FC01FE00
FFFFFC00
7FFFFC00
7FFFFC00
3FFFF800
0FFE3000
ENDCHAR
STARTCHAR 01A8
ENCODING 424
SWIDTH 600 0
DWIDTH 30 0
BBX 24 23 5 0
BITMAP
077FF0
0FFFFC
0FFFFE
0FFFFF
0FFFFF
1F803F
1F003F
0000FE
001FFE
03FFFC
0FFFF8
1FFFF0
3FFFC0
7FF000
7E001C
FC003E
FC007E
FE01FC
FFFFFC
7FFFFC
3FFFFC
1FFFF8
07FC00
ENDCHAR
STARTCHAR 01A9
ENCODING 425
SWIDTH 600 0
DWIDTH 30 0
BBX 29 29 3 0
BITMAP
03FFFFF8
03FFFFF8
03FFFFF8
03FFFFF0
07FFFFF0
03F001F0
03F801F0
01F801E0
01FC03E0
00FC03E0
007E03C0
007F0000
003F0000
003F8000
001F8000
003F0000
007E0000
00FC0000
01F80700
03F00F80
07E00F80
0FC01F00
1F801F00
3F001F00
7FFFFF00
7FFFFF00
7FFFFE00
FFFFFE00
FFFFFE00
ENDCHAR
STARTCHAR 01AA
ENCODING 426
SWIDTH 600 0
DWIDTH 30 0
BBX 18 36 9 -6
BITMAP
0FE000
1FF000
3FF800
7FFC00
F8FC00
F0FC00
F9FE00
FFFC00
FFFC00
7FFC00
3E7C00
007800
007800
00F800
00F800
00F000
00F000
01F000
01F000
01F000
01E000
03E000
03E000
03E000
03C000
03C000
07C000
07C000
07C000
07C000
07E000
07FF80
03FFC0
03FFC0
01FF80
007E00
ENDCHAR
STARTCHAR 01AB
ENCODING 427
SWIDTH 600 0
DWIDTH 30 0
BBX 22 39 5 -9
BITMAP
01E000
01F000
03E000
03E000
03E000
03E000
03E000
7FFFF8
FFFFFC
FFFFFC
FFFFFC
7FFFF8
0F8000
0F8000
0F8000
0F8000
1F0000
1F0000
1F0000
1F0000
1F0000
3E0000
3E0000
3E001C
3F01FC
3FFFFC
3FFFFC
1FFFFC
0FFFFC
03FCF8
0000F8
0000F8
0001F0
0003F0
01FFE0
07FFC0
07FF80
07FF00
01FC00
ENDCHAR
STARTCHAR 01AC
ENCODING 428
SWIDTH 600 0
DWIDTH 30 0
BBX 29 29 4 0
BITMAP
07FFFFF8
1FFFFFF8
3FFFFFF8
7FFFFFF8
FFFFFFF8
F807C1F0
F807C1F0
F807C1F0
780F81F0
700F83E0
000F83E0
000F81C0
001F0000
001F0000
001F0000
001F0000
001F0000
003E0000
003E0000
003E0000
003E0000
007C0000
007C0000
007C0000
1FFFE000
3FFFF000
3FFFF000
3FFFF000
3FFFE000
ENDCHAR
STARTCHAR 01AD
ENCODING 429
SWIDTH 600 0
DWIDTH 30 0
BBX 22 33 5 -1
BITMAP
0007E0
001FF8
007FF8
00FFF8
01FFF0
01F800
03F000
03E000
07C000
07C000
7FFFF8
FFFFFC
FFFFFC
FFFFFC
7FFFF8
0F8000
0F8000
0F0000
1F0000
1F0000
1F0000
1F0000
3E0000
3E0000
3E0000
3E0000
3E001C
3F01FC
3FFFFC
3FFFFC
1FFFF0
0FFFC0
03FE00
ENDCHAR
STARTCHAR 01AE
ENCODING 430
SWIDTH 600 0
DWIDTH 30 0
BBX 28 35 4 -6
BITMAP
3FFFFFF0
3FFFFFF0
3FFFFFF0
3FFFFFE0
7FFFFFE0
7C0F83E0
7C1F03E0
7C1F07C0
F81F07C0
F81F07C0
F83E07C0
703E0780
003E0000
003E0000
003E0000
007C0000
007C0000
007C0000
007C0000
007C0000
00F80000
00F80000
00F80000
00F80000
01F00000
01F00000
01F00000
01F00000
01F00000
01F80000
01FFE000
00FFF000
00FFF000
007FE000
001F8000
ENDCHAR
STARTCHAR 01AF
ENCODING 431
SWIDTH 600 0
DWIDTH 30 0
BBX 34 34 3 0
BITMAP
0000000380
0000000780
00000007C0
00000007C0
00000007C0
3FF83FFFC0
7FFC7FFF80
7FFC7FFF80
7FF87FFF00
7FF03FFC00
1F0007C000
1F0007C000
1F00078000
3E000F8000
3E000F8000
3E000F8000
3E000F8000
3E001F0000
7C001F0000
7C001F0000
7C001F0000
7C001F0000
F8003E0000
F8003E0000
F8003E0000
F8003E0000
F8007C0000
FC00FC0000
FE03F80000
7FFFF00000
7FFFE00000
3FFFC00000
1FFF000000
07FC000000
ENDCHAR
STARTCHAR 01B0
ENCODING 432
SWIDTH 600 0
DWIDTH 30 0
BBX 33 28 2 0
BITMAP
0000000200
0000000700
0000000F80
0000000F80
0000000F80
0000000F80
7F80FFFF80
FF81FFFF00
FF01FFFE00
FF01FFFC00
7F00FFF000
1F001F0000
1F001F0000
3E001F0000
3E003E0000
3E003E0000
3E003E0000
3E003E0000
7C003E0000
7C007C0000
7C007C0000
7C00FC0000
7C03FC0000
7FFFFF0000
7FFFFF0000
3FFFFF0000
1FFEFF0000
0FF8FE0000
ENDCHAR
STARTCHAR 01B1
ENCODING 433
SWIDTH 600 0
DWIDTH 30 0
BBX 29 31 4 -1
BITMAP
1FFE7FF8
1FFE7FF8
1FFE7FF8
1FFE7FF0
1FFE7FF0
1E1CF1F0
3E3CE1F0
3E3CE1F0
1C7CF1E0
1DF8FDC0
07F9FE00
0FF9FF00
1FC07F00
3F001F80
3E001F80
7C000F80
78000F80
F8000F80
F8000F80
F8000F00
F8001F00
F8001F00
F8003E00
F8003E00
FC007C00
FE01FC00
7FFFF800
7FFFF000
3FFFE000
0FFF8000
03FE0000
ENDCHAR
STARTCHAR 01B2
ENCODING 434
SWIDTH 600 0
DWIDTH 30 0
BBX 29 31 5 -1
BITMAP
1FC007C0
7FF80FF0
FFF80FF8
FFF80FF0
7FF00FF0
0F001F00
0F001F00
1F001F00
1F001E00
1F001E00
1E003E00
3E003E00
3E003E00
3E003C00
3C003C00
3C007C00
7C007C00
7C007800
7C007800
78007800
7800F800
F800F800
F800F000
F801F000
FC01F000
FE07E000
FFFFE000
7FFFC000
7FFF8000
1FFE0000
07F80000
ENDCHAR
STARTCHAR 01B3
ENCODING 435
SWIDTH 600 0
DWIDTH 30 0
BBX 32 29 3 0
BITMAP
07FE03FF
1FFF07FF
3FFF07FF
7FFE07FF
FFFC03FE
F8F803F0
F8FC07E0
F87C0FC0
F87E1F80
707E3F00
203F3F00
003F7E00
001FFC00
001FF800
000FF000
000FE000
0007C000
0007C000
0007C000
000F8000
000F8000
000F8000
000F8000
000F0000
03FFFC00
07FFFC00
0FFFFC00
0FFFFC00
07FFF800
ENDCHAR
STARTCHAR 01B4
ENCODING 436
SWIDTH 600 0
DWIDTH 30 0
BBX 39 38 -2 -10
BITMAP
0000000008
000000001C
000000003E
000000003E
000000003E
000000003E
01FF00FFFE
03FF01FFFC
07FF01FFF8
07FF01FFF0
03FE00FFC0
01F8007C00
00F800F800
00FC00F000
00FC01F000
007C03E000
007E07C000
007E0FC000
003E1F8000
003E1F0000
003F3E0000
003F7E0000
001FFC0000
001FF80000
001FF00000
000FF00000
000FE00000
000FC00000
000F800000
001F800000
003F000000
003E000000
007C000000
7FFF000000
FFFF800000
FFFF800000
FFFF800000
FFFF000000
ENDCHAR
STARTCHAR 01B5
ENCODING 437
SWIDTH 600 0
DWIDTH 30 0
BBX 27 29 4 0
BITMAP
01FFFFE0
01FFFFE0
03FFFFE0
03FFFFE0
03FFFFC0
03E01FC0
03E03F80
03C07F00
0380FE00
0001F800
0003F000
0007E000
0FFFFE00
1FFFFE00
1FFFFE00
1FFFFE00
0FFFFC00
01F80000
03F00000
07E00000
0FC00E00
1F801F00
3F801F00
7F001F00
7FFFFE00
FFFFFE00
FFFFFE00
FFFFFE00
FFFFFC00
ENDCHAR
STARTCHAR 01B6
ENCODING 438
SWIDTH 600 0
DWIDTH 30 0
BBX 25 22 4 0
BITMAP
07FFFF80
07FFFF80
07FFFF80
0FFFFF00
0FFFFF00
0F80FC00
0F01F800
0F07F000
000FE000
03FFE000
0FFFF000
0FFFF000
0FFFF000
0FFFE000
07F01800
0FE03E00
1F803E00
7FFFFC00
7FFFFC00
7FFFFC00
FFFFFC00
FFFFFC00
ENDCHAR
STARTCHAR 01B7
ENCODING 439
SWIDTH 600 0
DWIDTH 30 0
BBX 27 32 3 -3
BITMAP
01FFFFE0
01FFFFE0
01FFFFE0
01FFFFE0
01FFFFC0
03E00FC0
03E01F80
03E03F00
01C07E00
0001FC00
0003F800
0007F000
001FFC00
003FFF00
003FFF80
003FFF80
001FFFC0
00000FC0
000007C0
000007C0
000007C0
000007C0
00000FC0
70000F80
FC001F80
FE003F00
FF80FE00
7FFFFE00
3FFFFC00
1FFFF000
07FFC000
00FE0000
ENDCHAR
STARTCHAR 01B8
ENCODING 440
SWIDTH 600 0
DWIDTH 30 0
BBX 28 32 3 -3
BITMAP
00FFFFF0
01FFFFE0
01FFFFE0
01FFFFE0
01FFFFE0
01F803E0
00FC07C0
00FC07C0
007E0780
007F0000
003F0000
001F8000
00FFC000
03FFE000
0FFFE000
1FFFE000
3FFFC000
3E000000
7C000000
7C000000
F8000000
F8000000
F8000000
F8000300
F8000F80
FC003F80
FF01FF00
7FFFFE00
3FFFFC00
1FFFF000
0FFFC000
03FE0000
ENDCHAR
STARTCHAR 01B9
ENCODING 441
SWIDTH 600 0
DWIDTH 30 0
BBX 22 32 4 -9
BITMAP
03FFF0
0FFFFC
1FFFFC
1FFFFC
0FFFF8
03F800
01F800
00FC00
007E00
007F00
01FF80
07FF80
0FFFC0
1FFFC0
1F07C0
3E0300
7E0000
7C0000
7C0000
F80000
F80000
F80000
F80000
F80000
F801C0
FC07C0
FC0FC0
7FFF80
7FFF00
3FFC00
1FF800
07C000
ENDCHAR
STARTCHAR 01BA
ENCODING 442
SWIDTH 600 0
DWIDTH 30 0
BBX 25 33 2 -10
BITMAP
007FFE00
01FFFF80
01FFFF80
03FFFF80
01FFFF00
0001F800
0007F000
000FE000
001F8000
003FE000
007FF800
01FFF800
01FFFC00
03F1FC00
03C07C00
00007C00
00007C00
0000F800
0001F800
007FF000
07FFE000
1FFFC000
3FFF8000
7FFC0000
7E002000
F800F000
F801F000
F803F000
FFFFE000
FFFFC000
7FFF8000
3FFE0000
0FF80000
ENDCHAR
STARTCHAR 01BB
ENCODING 443
SWIDTH 600 0
DWIDTH 30 0
BBX 27 30 3 0
BITMAP
0001FC00
000FFF00
001FFF80
007FFFC0
00FFFFC0
00FC0FE0
01F807E0
03F003E0
03E003E0
03C003E0
018007E0
000007C0
00000FC0
01FFFFC0
03FFFFC0
03FFFFC0
03FFFFC0
01FFFF80
001FF000
007FC000
00FF8000
03FE0000
07FC0300
1FF00780
3FC00F80
7FFFFF80
7FFFFF80
7FFFFF00
FFFFFF00
FFFFFF00
ENDCHAR
STARTCHAR 01BC
ENCODING 444
SWIDTH 600 0
DWIDTH 30 0
BBX 25 31 5 -1
BITMAP
03FFFE00
0FFFFF80
0FFFFF80
1FFFFF80
0FFFFF00
03E00000
03E00000
03E00000
03C00000
03C38000
07FFF000
07FFFC00
07FFFE00
07FFFE00
07E07F00
07003F00
00001F00
00001F00
00001F00
00001F00
00001F00
00003E00
00003E00
F0007C00
F800FC00
FC03F800
FFFFF000
7FFFE000
3FFFC000
1FFF0000
03F80000
ENDCHAR
STARTCHAR 01BD
ENCODING 445
SWIDTH 600 0
DWIDTH 30 0
BBX 22 24 5 -1
BITMAP
03FFF0
1FFFF8
1FFFFC
3FFFF8
1FFFF8
1F0000
1F0000
1E0000
1EF000
3FFF00
3FFF80
3FFFC0
3FFFE0
3C07E0
0003E0
0003E0
0003E0
3007C0
F80FC0
FFFF80
FFFF00
FFFE00
3FFC00
0FF000
ENDCHAR
STARTCHAR 01BE
ENCODING 446
SWIDTH 600 0
DWIDTH 30 0
BBX 23 31 6 -1
BITMAP
0007E0
003FF8
003FF8
003FF8
003FF0
000780
000F80
000F80
01FFF8
03FFFE
07FFFE
07FFFE
03FFF8
001F00
001F80
003FE0
003FF0
000FF8
0003F8
0001FC
0000FC
00007C
38007C
7C007C
7800F8
7801F8
FE07F0
FFFFE0
FFFFC0
3FFF00
07FC00
ENDCHAR
STARTCHAR 01BF
ENCODING 447
SWIDTH 600 0
DWIDTH 30 0
BBX 34 34 -2 -10
BITMAP
000000F000
007E1FFF00
01FE7FFF80
03FEFFFFC0
03FFFFFFC0
01FFFC0FC0
003FE007C0
003F8007C0
007F000F80
007E000F80
0078001F00
0078003F00
00F8007E00
00F801FC00
00F803F800
00F00FF000
00F01FE000
01F03F8000
01F0FF0000
01F1FC0000
01E7F80000
01EFE00000
03FFC00000
03FF000000
03FE000000
03F8000000
03F0000000
07C0000000
07C0000000
3FFC000000
7FFE000000
FFFE000000
FFFE000000
7FFC000000
ENDCHAR
STARTCHAR 01C0
ENCODING 448
SWIDTH 600 0
DWIDTH 30 0
BBX 12 39 11 -8
BITMAP
00F0
00F0
01F0
01F0
01F0
01F0
03E0
03E0
03E0
03E0
07E0
07C0
07C0
07C0
07C0
0F80
0F80
0F80
0F80
0F80
1F00
1F00
1F00
1F00
3F00
3E00
3E00
3E00
3E00
7C00
7C00
7C00
7C00
7C00
F800
F800
F800
F000
6000
ENDCHAR
STARTCHAR 01C1
ENCODING 449
SWIDTH 600 0
DWIDTH 30 0
BBX 21 39 7 -8
BITMAP
00E038
01F078
01F0F8
01F0F8
03E0F8
03E0F8
03E1F8
03E1F0
07C1F0
07C1F0
07C1F0
07C3E0
07C3E0
0F83E0
0F83E0
0F83E0
0F87C0
0F87C0
1F07C0
1F07C0
1F07C0
1F0F80
3F0F80
3E0F80
3E0F80
3E1F80
3E1F00
7C1F00
7C1F00
7C1F00
7C3E00
7C3E00
F83E00
F83E00
F83E00
F87C00
F07C00
F07C00
401000
ENDCHAR
STARTCHAR 01C2
ENCODING 450
SWIDTH 600 0
DWIDTH 30 0
BBX 30 38 3 -7
BITMAP
00003000
0000F000
0000F000
0000F000
0001F000
0001F000
0001F000
0001E000
0001E000
0003E000
0003E000
0FFFFFF0
3FFFFFF8
3FFFFFFC
3FFFFFF8
3FFFFFF0
00078000
00078000
1FFFFFC0
7FFFFFF0
7FFFFFF0
FFFFFFF0
7FFFFFE0
001F0000
001F0000
001E0000
001E0000
003E0000
003E0000
003E0000
003C0000
003C0000
007C0000
007C0000
007C0000
00780000
00780000
00700000
ENDCHAR
STARTCHAR 01C3
ENCODING 451
SWIDTH 600 0
DWIDTH 30 0
BBX 13 33 12 -1
BITMAP
00F0
01F8
03F8
03F8
07F8
07F8
07F8
07F0
07F0
07F0
07F0
07E0
07E0
0FE0
0FE0
0FC0
0FC0
0FC0
0FC0
0F80
0F80
0F80
0E00
0000
0000
0000
0800
7E00
7F00
FF00
FE00
FE00
7800
ENDCHAR
STARTCHAR 01C4
ENCODING 452
SWIDTH 600 0
DWIDTH 30 0
BBX 36 39 0 0
BITMAP
0000080020
00001E00F0
00003F03F0
00001FCFE0
00000FFF80
000003FE00
000001FC00
0000007000
0000000000
0000000000
01FF83FFE0
03FFE3FFE0
03FFF3FFE0
03FFF3FFE0
00FFF3FFC0
01F1FFC7C0
01F1FFCF80
01E0FF9F00
01E0FF9F00
03E0FFBE00
03E0FF7C00
03E0FA7C00
03C0F0F800
03C1F0F000
07C1E1F000
07C1E3E000
0781E3E400
0781E7DF00
0F83CF9F00
0F83CF9E00
0F87DF1E00
0F07BE3E00
0F0FBE3E00
1F1F7C3E00
1FFFFFFC00
7FFEFFFC00
7FFCFFFC00
FFF0FFFC00
7FC0FFFC00
ENDCHAR
STARTCHAR 01C5
ENCODING 453
SWIDTH 600 0
DWIDTH 30 0
BBX 36 33 0 0
BITMAP
00001C0070
00003F01F0
00001FC7E0
00780FFFC0
03FFC7FF00
03FFE1FC00
03FFF0F000
03FFF02000
01F3F00000
01F1F80000
01F0FFFFC0
01E0FFFFC0
01E0FFFF80
03E0FFFF80
03E0FFFF80
03E0FF3F00
03C0FF3E00
03C1FE7C00
07C1FEFC00
07C1F1F800
0781E1F000
0781E3E000
0F83E7E000
0F83EFC000
0F83CF8400
0F07DF1E00
0F07BE1E00
1F0FFE3E00
3FFF7FFE00
7FFFFFFE00
7FFEFFFC00
FFF9FFFC00
7FE1FFFC00
ENDCHAR
STARTCHAR 01C6
ENCODING 454
SWIDTH 600 0
DWIDTH 30 0
BBX 35 37 2 -1
BITMAP
00003800E0
00007E03E0
00003F0FC0
00001FFF80
000FEFFE00
003FE3F800
003FC1F000
003FC0C000
003FC00000
0007C00000
0007C00000
0007800000
000F800000
03FFFFFE00
07FFFFFE00
0FFF7FFE00
1FFF7FFC00
1F7F7FFC00
3E3FF8F800
3E3FF9F000
3C3EF3E000
7C3EF7E000
7C3E07C000
7C3E0F8000
7C3E1F0000
F83C3F0000
F83C3E0000
F87C7C3000
F87CF8F000
F879F8F000
F8FBF0F000
F9FFFFF000
FFFFFFF000
FFFFFFF000
7FFFFFE000
7FFFFFE000
3E00000000
ENDCHAR
STARTCHAR 01C7
ENCODING 455
SWIDTH 600 0
DWIDTH 30 0
BBX 35 29 1 0
BITMAP
03FF00FFC0
07FF81FFE0
07FF81FFE0
07FF01FFC0
03FE01FF80
01F0003E00
01F0003E00
01F0003E00
01F0003E00
03E0003E00
03E0007C00
03E0007C00
03E0007C00
03E0007C00
07C0007C00
07C000F800
07C1C0F800
07C3C0F800
0F87C0F800
0F87C1F000
0F87C1F000
0F87C1F000
0F8F81F000
1F0F83E000
7FFFFFE000
FFFFFFC000
FFFFFF8000
FFFFFF0000
FFFFFE0000
ENDCHAR
STARTCHAR 01C8
ENCODING 456
SWIDTH 600 0
DWIDTH 30 0
BBX 31 41 2 -10
BITMAP
000000FC
000000FC
03FFC0FC
07FFE1F8
07FFE1F8
07FFC000
07FF8000
00F80000
00F80000
00F83FFE
00F87FFE
00F07FFC
01F07FFC
01F03FFC
01F0007C
01F0007C
03E000F8
03E000F8
03E000F8
03E078F8
03E0F9F0
07C0F1F0
07C1F1F0
07C1F1F0
07C1F1F0
0781F3E0
7FFFE3E0
FFFFE3E0
FFFFE3E0
FFFFE3E0
FFFFE7C0
000007C0
000007C0
00000FC0
00000F80
00003F80
01FFFF00
03FFFE00
03FFFC00
03FFF000
01FFC000
ENDCHAR
STARTCHAR 01C9
ENCODING 457
SWIDTH 600 0
DWIDTH 30 0
BBX 30 41 1 -10
BITMAP
00FF80FC
01FF81F8
03FF81F8
03FF81F8
01FF01F8
001F0000
001F0000
001F0000
001F0000
003E3FFC
003E7FFC
003E7FFC
003E7FFC
003E7FF8
007C00F8
007C00F8
007C00F8
007C00F8
007801F0
00F801F0
00F801F0
00F801F0
00F803E0
01F003E0
01F003E0
01F003E0
7FFF83E0
FFFFC7C0
FFFFC7C0
FFFF87C0
7FFF07C0
000007C0
00000F80
00000F80
00001F80
00007F00
01FFFE00
03FFFC00
03FFF800
03FFF000
03FF8000
ENDCHAR
STARTCHAR 01CA
ENCODING 458
SWIDTH 600 0
DWIDTH 30 0
BBX 37 30 0 -1
BITMAP
03FC7F87F0
07FC7FDFF8
0FFCFFDFF8
0FFCFFDFF8
03FC7F0FF0
01FC3C07C0
01FE3C07C0
01FE3C07C0
03FE3C0780
03FE7C0780
03FE780F80
03FF780F80
03FF780F80
07FF780F00
07FF7B0F00
07BFFF9F00
079FF79F00
0F9FF79E00
0F9FFF9E00
0F9FFFBE00
0F1FFF3E00
0F0FEF3E00
1F0FEF3C00
1F0FFF3C00
3F0FFF7C00
7FCFFFF800
FFC7DFF800
FFC7DFF000
7F87CFF000
000007C000
ENDCHAR
STARTCHAR 01CB
ENCODING 459
SWIDTH 600 0
DWIDTH 30 0
BBX 34 41 0 -10
BITMAP
00000007C0
00000007C0
03F8FF8FC0
07F9FFCF80
07F9FFCF80
07FDFF8000
03FCFF0000
01FC7C0000
01FC7C0000
01FC7C7F80
01FC7CFF00
03FC7CFF00
03FEF8FF00
03FEF8FF00
03FEF81E00
07DEF83E00
07DFF83E00
07DFF03E00
07DFF03E00
07DFF07C00
0F9FF07C00
0F9FE07C00
0F8FE07C00
0F8FE07C00
0F8FE0F800
1F0FE0F800
7FCFC0F800
FFEFC0F800
FFEFC0F800
FFC7C1F000
FF87C1F000
000001F000
000001F000
000003E000
000007E000
00000FC000
007FFF8000
00FFFF8000
01FFFE0000
01FFFC0000
00FFE00000
ENDCHAR
STARTCHAR 01CC
ENCODING 460
SWIDTH 600 0
DWIDTH 30 0
BBX 34 41 0 -10
BITMAP
0000000FC0
0000000FC0
0000001F80
0000001F80
0000001F80
0000000000
0000000000
0000000000
0000000000
01FBF0FF00
07FFF1FF00
07FFFBFF00
07FFFBFF00
07FFF9FE00
03F0F83E00
03E0F83E00
03E0F83E00
03E0F87C00
07C0F87C00
07C1F07C00
07C1F07C00
07C1F07C00
07C1F0F800
0F81F0F800
0F83E0F800
0F83E0F800
7FE3F8F800
FFE3F9F000
FFF3F9F000
FFE7F9F000
7FC7F1F000
000001E000
000003E000
000003E000
000007C000
00000FC000
007FFF8000
00FFFF0000
00FFFE0000
00FFFC0000
00FFF00000
ENDCHAR
STARTCHAR 01CD
ENCODING 461
SWIDTH 600 0
DWIDTH 30 0
BBX 33 40 -1 0
BITMAP
0006001800
000F807C00
000FE1FC00
0007F7F000
0001FFE000
0000FF8000
00007E0000
0000180000
0000000000
0000000000
0000000000
000FFF8000
001FFF8000
003FFF8000
003FFFC000
001FFFC000
0000FFC000
0001FFC000
0001F7C000
0003E7E000
0007E7E000
0007C7E000
000F87E000
001F83E000
001F03F000
003E03F000
003E03F000
007FFFF000
00FFFFF000
00FFFFF800
01FFFFF800
01FFFFF800
03E000F800
07E000F800
07C000FC00
3FF80FFF00
7FFC1FFF80
FFFC1FFF80
FFF81FFF00
7FF00FFE00
ENDCHAR
STARTCHAR 01CE
ENCODING 462
SWIDTH 600 0
DWIDTH 30 0
BBX 27 34 3 -1
BITMAP
00300040
007801E0
007E07E0
003F9FC0
001FFF00
000FFC00
0003F000
0001E000
00000000
00000000
00000000
007FFC00
01FFFE00
03FFFF00
03FFFF80
03FFFF80
00000F80
00000F80
000F0F80
00FFFF00
07FFFF00
0FFFFF00
1FFFFF00
3F807F00
7E001E00
7C003E00
F8003E00
F800FE00
FC07FF80
FFFFFFC0
7FFFFFC0
7FFFFFC0
3FFE7F80
0FF00000
ENDCHAR
STARTCHAR 01CF
ENCODING 463
SWIDTH 600 0
DWIDTH 30 0
BBX 27 40 3 0
BITMAP
00300060
003C03E0
003F0FE0
003FBFC0
000FFF00
0007FC00
0001F000
0000C000
00000000
00000000
00000000
01FFFFE0
03FFFFE0
07FFFFE0
07FFFFE0
03FFFFC0
0007C000
0007C000
0007C000
000F8000
000F8000
000F8000
000F8000
000F8000
001F0000
001F0000
001F0000
001F0000
003E0000
003E0000
003E0000
003E0000
003E0000
007C0000
007C0000
3FFFF800
7FFFFC00
FFFFFC00
FFFFF800
7FFFF000
ENDCHAR
STARTCHAR 01D0
ENCODING 464
SWIDTH 600 0
DWIDTH 30 0
BBX 24 33 4 0
BITMAP
008002
01C00F
03F03F
01FCFE
00FFF8
003FE0
001FC0
000F00
000000
000000
000000
01FFC0
03FFC0
07FFC0
07FF80
03FF80
000F80
000F80
000F80
001F00
001F00
001F00
001F00
001F00
003E00
003E00
003E00
003E00
7FFFFE
FFFFFE
FFFFFE
FFFFFE
FFFFFC
ENDCHAR
STARTCHAR 01D1
ENCODING 465
SWIDTH 600 0
DWIDTH 30 0
BBX 28 40 3 0
BITMAP
00180060
003E01F0
003F07E0
001FDFC0
000FFF00
0003FC00
0001F800
0000E000
00000000
00000000
00000000
000FFC00
003FFE00
00FFFF80
01FFFFC0
03FFFFC0
07F00FE0
0FC007E0
1F8003F0
1F0003F0
3F0001F0
3E0001F0
7C0001F0
7C0001F0
780001F0
F80001F0
F80003E0
F80003E0
F80003E0
F80007C0
F8000FC0
FC000F80
FC001F80
7E003F00
7F00FE00
3FFFFC00
3FFFF800
1FFFF000
0FFFC000
03FF0000
ENDCHAR
STARTCHAR 01D2
ENCODING 466
SWIDTH 600 0
DWIDTH 30 0
BBX 26 34 4 -1
BITMAP
00400100
00F00780
00F81F80
00FE7F00
003FFC00
001FF800
000FE000
00038000
00000000
00000000
00000000
003FF800
00FFFC00
03FFFE00
07FFFF00
0FFFFF80
1FC03F80
3F000FC0
3E000FC0
7C0007C0
7C0007C0
F80007C0
F80007C0
F8000FC0
F8000F80
F8001F80
FC003F00
FE007E00
7F81FE00
7FFFFC00
3FFFF000
1FFFE000
0FFF8000
01FE0000
ENDCHAR
STARTCHAR 01D3
ENCODING 467
SWIDTH 600 0
DWIDTH 30 0
BBX 30 40 4 0
BITMAP
006000C0
007807C0
007E1FC0
007F7F80
001FFE00
000FF800
0003E000
00018000
00000000
00000000
00000000
3FF83FF8
7FFC7FFC
7FFC7FFC
7FF87FF8
7FF07FF0
1F0007C0
1F0007C0
1F0007C0
3E000F80
3E000F80
3E000F80
3E000F80
3E001F00
7C001F00
7C001F00
7C001F00
7C001F00
F8003E00
F8003E00
F8003E00
F8003E00
F8007C00
FC00FC00
FE03F800
7FFFF000
7FFFE000
3FFFC000
1FFF8000
07FE0000
ENDCHAR
STARTCHAR 01D4
ENCODING 468
SWIDTH 600 0
DWIDTH 30 0
BBX 25 33 5 0
BITMAP
00C00100
01E00780
01F81F80
00FE7F00
007FFC00
003FF000
000FC000
00078000
00000000
00000000
00000000
7F80FF80
FF81FF80
FF01FF80
FF01FF00
FF01FF00
1F001F00
1F001F00
3E001F00
3E003E00
3E003E00
3E003E00
7E003E00
7C003E00
7C007C00
7C007C00
7C00FC00
7C03FC00
7FFFFF00
7FFFFF00
3FFFFF00
1FFEFF00
0FF8FE00
ENDCHAR
STARTCHAR 01D5
ENCODING 469
SWIDTH 600 0
DWIDTH 30 0
BBX 30 40 3 0
BITMAP
001FFFE0
003FFFF0
003FFFF0
001FFFE0
00000000
00000000
001C0700
003E0F80
007E1F80
007E1F80
007C1F00
00380E00
00000000
00000000
00000000
7FF83FF8
FFFC7FFC
FFFC7FFC
FFFC7FF8
7FF87FF0
1F0007C0
1F0007C0
1F0007C0
1F0007C0
3E000F80
3E000F80
3E000F80
3E000F80
7C001F00
7C001F00
7C001F00
7C001F00
7C003E00
7E007E00
7F00FC00
3FFFF800
3FFFF000
1FFFE000
0FFFC000
03FF0000
ENDCHAR
STARTCHAR 01D6
ENCODING 470
SWIDTH 600 0
DWIDTH 30 0
BBX 26 38 5 0
BITMAP
007FFFC0
007FFFC0
007FFFC0
001FFF00
00000000
00000000
00300C00
00F83E00
00FC3F00
01F87E00
00F83E00
00F03C00
00000000
00000000
00000000
00000000
7F80FF80
FF81FF80
FF01FF80
FF01FF00
FF01FF00
1F001F00
1F001F00
3E001F00
3E003E00
3E003E00
3E003E00
7E003E00
7C003E00
7C007C00
7C007C00
7C00FC00
7C03FC00
7FFFFF00
7FFFFF00
3FFFFF00
1FFEFF00
0FF8FE00
ENDCHAR
STARTCHAR 01D7
ENCODING 471
SWIDTH 600 0
DWIDTH 30 0
BBX 29 40 4 0
BITMAP
00000100
00000780
00000F80
00001F00
00003E00
0000F800
0000F000
0038E380
007C07C0
00FC0FC0
00FC0FC0
00F80F80
00700700
00000000
7FF83FF8
FFFC7FF8
FFFCFFF8
FFFCFFF8
7FF87FF0
1F0007C0
1F000780
1F000F80
1F000F80
1F000F80
3E000F80
3E001F00
3E001F00
3E001F00
7C001F00
7C001F00
7C003E00
7C003E00
7C007E00
7E007C00
7F01FC00
3FFFF800
3FFFF000
1FFFE000
0FFF8000
03FE0000
ENDCHAR
STARTCHAR 01D8
ENCODING 472
SWIDTH 600 0
DWIDTH 30 0
BBX 25 40 5 0
BITMAP
00000700
00000F00
00001F00
00007E00
0000FC00
0001F000
0001E000
0001C000
00300C00
00F83E00
00FC3F00
01F87E00
00F83E00
00F03C00
00000000
00000000
00000000
00000000
7F80FF80
FF81FF80
FF01FF80
FF01FF00
FF01FF00
1F001F00
1F001F00
3E001F00
3E003E00
3E003E00
3E003E00
7E003E00
7C003E00
7C007C00
7C007C00
7C00FC00
7C03FC00
7FFFFF00
7FFFFF00
3FFFFF00
1FFEFF00
0FF8FE00
ENDCHAR
STARTCHAR 01D9
ENCODING 473
SWIDTH 600 0
DWIDTH 30 0
BBX 30 39 3 1
BITMAP
003C00E0
003F03E0
001F8FE0
000FFF80
0007FE00
0001F800
0000F000
001C4700
003E0F80
007E1F80
007E1F80
007C1F00
00380E00
00000000
7FF83FF8
FFFC7FFC
FFFC7FFC
FFFC7FFC
7FF87FF0
1F0007C0
1F0007C0
1F0007C0
1F0007C0
3E000F80
3E000F80
3E000F80
3E000F80
3E001F00
7C001F00
7C001F00
7C001F00
7C003E00
7E007E00
7F00FC00
3FFFF800
3FFFF000
1FFFE000
0FFFC000
03FF0000
ENDCHAR
STARTCHAR 01DA
ENCODING 474
SWIDTH 600 0
DWIDTH 30 0
BBX 26 40 5 0
BITMAP
007000C0
007803C0
007E0FC0
007F3F80
001FFE00
000FF800
0003E000
00018000
00300C00
00F83E00
00FC3F00
01F87E00
00F83E00
00F03C00
00000000
00000000
00000000
00000000
7F80FF80
FF81FF80
FF01FF80
FF01FF00
FF01FF00
1F001F00
1F001F00
3E001F00
3E003E00
3E003E00
3E003E00
7E003E00
7C003E00
7C007C00
7C007C00
7C00FC00
7C03FC00
7FFFFF00
7FFFFF00
3FFFFF00
1FFEFF00
0FF8FE00
ENDCHAR
STARTCHAR 01DB
ENCODING 475
SWIDTH 600 0
DWIDTH 30 0
BBX 29 39 4 1
BITMAP
001E0000
001F0000
001F8000
000FC000
0007E000
0003E000
0001F000
0070E380
00F807C0
01F80FC0
01F80FC0
01F00F80
00E00700
00000000
7FF83FF8
FFFC7FF8
FFFC7FF8
FFFC7FF8
7FF87FF0
1F0007C0
1F000F80
1F000F80
1F000F80
3E000F80
3E000F80
3E001F00
3E001F00
3E001F00
7C001F00
7C003E00
7C003E00
7C007E00
7E00FC00
7F01FC00
3FFFF800
3FFFF000
1FFFE000
0FFF8000
03FE0000
ENDCHAR
STARTCHAR 01DC
ENCODING 476
SWIDTH 600 0
DWIDTH 30 0
BBX 25 40 5 0
BITMAP
001C0000
003E0000
003F0000
001F8000
000FC000
0007E000
0003E000
0001C000
00300C00
00F83E00
00FC3F00
01F87E00
00F83E00
00F03C00
00000000
00000000
00000000
00000000
7F80FF80
FF81FF80
FF01FF80
FF01FF00
FF01FF00
1F001F00
1F001F00
3E001F00
3E003E00
3E003E00
3E003E00
7E003E00
7C003E00
7C007C00
7C007C00
7C00FC00
7C03FC00
7FFFFF00
7FFFFF00
3FFFFF00
1FFEFF00
0FF8FE00
ENDCHAR
STARTCHAR 01DD
ENCODING 477
SWIDTH 600 0
DWIDTH 30 0
BBX 26 24 4 -1
BITMAP
000FC000
03FFF800
0FFFFC00
3FFFFF00
3FFFFF00
3FE0FF80
3E001F80
00000FC0
00000FC0
000007C0
FFFFFFC0
FFFFFFC0
FFFFFF80
FFFFFF80
F8000F80
F8001F00
FC003F00
FE007E00
7F83FC00
7FFFF800
3FFFF000
1FFFC000
0FFF8000
01F80000
ENDCHAR
STARTCHAR 01DE
ENCODING 478
SWIDTH 600 0
DWIDTH 30 0
BBX 32 40 0 0
BITMAP
0003FFFC
0007FFFC
0007FFFC
0007FFF8
00000000
00000000
00000000
000380E0
0007C1F0
000FC3F0
000FC3F0
000F83E0
000701C0
00000000
000FFF00
003FFF00
003FFF00
003FFF80
003FFF80
0001FF80
0003FF80
0003EFC0
0007CFC0
000FCFC0
000F8FC0
001F07C0
003E07E0
007E07E0
007FFFE0
00FFFFE0
01FFFFF0
01FFFFF0
03FFFFF0
07E001F0
0FC001F8
3FE007FC
FFF81FFF
FFF83FFF
FFF83FFE
FFF01FFC
ENDCHAR
STARTCHAR 01DF
ENCODING 479
SWIDTH 600 0
DWIDTH 30 0
BBX 28 39 3 -1
BITMAP
001FFFF0
001FFFF0
001FFFF0
000FFFC0
00000000
00000000
000C0300
003E0F80
003F0FC0
007E1F80
003E0F80
003C0F00
00000000
00000000
00000000
00000000
007FFC00
01FFFE00
03FFFF00
03FFFF80
03FFFF80
00000F80
00000F80
000F0F80
00FFFF00
07FFFF00
0FFFFF00
1FFFFF00
3F807F00
7E001E00
7C003E00
F8003E00
F800FE00
FC07FF80
FFFFFFC0
7FFFFFC0
7FFFFFC0
3FFE7F80
0FF00000
ENDCHAR
STARTCHAR 01E0
ENCODING 480
SWIDTH 600 0
DWIDTH 30 0
BBX 33 40 -1 0
BITMAP
0000FFFF00
0001FFFF80
0001FFFF00
0001FFFE00
0000000000
0000000000
0000070000
00000F8000
00001F8000
00001F8000
00001F0000
00000E0000
0000000000
0000000000
000FFF0000
003FFF0000
007FFF8000
007FFF8000
003FFF8000
0001FF8000
0003FFC000
0003FFC000
0007EFC000
000FC7C000
000F87E000
001F07E000
003F07E000
003E03E000
007FFFF000
00FFFFF000
01FFFFF000
01FFFFF000
03FFFFF800
07E001F800
07C000F800
1FF007FC00
7FFC1FFF00
FFFC1FFF00
FFF81FFF00
7FF00FFE00
ENDCHAR
STARTCHAR 01E1
ENCODING 481
SWIDTH 600 0
DWIDTH 30 0
BBX 28 39 3 -1
BITMAP
000FFFE0
001FFFF0
001FFFF0
001FFFE0
00000000
00000000
0000E000
0001F000
0003F000
0003F000
0003E000
0001C000
00000000
00000000
00000000
00000000
007FFC00
01FFFE00
03FFFF00
03FFFF80
03FFFF80
00000F80
00000F80
000F0F80
00FFFF00
07FFFF00
0FFFFF00
1FFFFF00
3F807F00
7E001E00
7C003E00
F8003E00
F800FE00
FC07FF80
FFFFFFC0
7FFFFFC0
7FFFFFC0
3FFE7F80
0FF00000
ENDCHAR
STARTCHAR 01E2
ENCODING 482
SWIDTH 600 0
DWIDTH 30 0
BBX 36 36 0 0
BITMAP
00000FFF80
00003FFFE0
00007FFFE0
00007FFFC0
0000000000
0000000000
0000000000
001FFFFFF0
003FFFFFF0
003FFFFFE0
003FFFFFE0
001FFFFFE0
0007FE03E0
0007FE07C0
000FBE07C0
000FBE07C0
001F3E67C0
001F7CF780
003E7DF000
003E7FF000
007C7FF000
007CFFE000
00F8FFE000
00FFFFE000
01FFFBE000
01FFFBC000
03FFF10000
03FFF00F00
07C1F00F00
07C1F01F00
0F81F01F00
7FCFFFFF00
FFFFFFFE00
FFFFFFFE00
FFDFFFFE00
FF8FFFFE00
ENDCHAR
STARTCHAR 01E3
ENCODING 483
SWIDTH 600 0
DWIDTH 30 0
BBX 32 30 0 -1
BITMAP
0007FFFC
000FFFFC
000FFFFC
0007FFF0
00000000
00000000
00000000
00FFC3F8
03FFEFFC
03FFFFFE
07FFFFFE
03FFFFFF
0001FC3F
0001F81F
003FF01F
03FFFFFF
0FFFFFFF
1FFFFFFF
3FFFFFFE
7F03FFFE
7C03E000
F807E000
F807E000
F80FF000
FC3FF03C
FFFFFFFC
FFFFFFFC
7FFFFFF8
3FF77FF0
0FC03F80
ENDCHAR
STARTCHAR 01E4
ENCODING 484
SWIDTH 600 0
DWIDTH 30 0
BBX 29 29 3 1
BITMAP
000FFE78
003FFFF8
00FFFFF8
01FFFFF0
03FFFFF0
07F007F0
0FC003F0
1F8001E0
1F0001E0
3F000080
3E000000
7E000000
7C000000
7C000000
7C07FF80
7C0FFF80
F81FFF80
F81FFF00
F80FFFF0
F8001FF0
F8001FF0
FC003FF0
FC003FE0
7F007E00
7FFFFE00
3FFFFE00
3FFFFC00
1FFFF000
07FF8000
ENDCHAR
STARTCHAR 01E5
ENCODING 485
SWIDTH 600 0
DWIDTH 30 0
BBX 30 33 3 -10
BITMAP
00020000
007FE7F8
01FFFFFC
03FFFFFC
07FFFFFC
0FFFFFF8
1FC07F80
3F003F80
7E001F80
7C001F80
7C001F00
F8001F00
F8001F00
F8003F00
F8003F00
F8007E00
FC00FE00
FE01FE00
7FFFFE00
7FFFFE00
3FFFFC00
1FFFFC00
07FE7C00
00007F80
0000FF80
0000FF80
0001FF80
0003FF00
1FFFE000
3FFFC000
3FFF8000
3FFF0000
3FF80000
ENDCHAR
STARTCHAR 01E6
ENCODING 486
SWIDTH 600 0
DWIDTH 30 0
BBX 30 40 3 0
BITMAP
00060018
000F807C
000FC1F8
0007F7F0
0003FFC0
0000FF80
00007E00
00001800
00000000
00000000
00000000
000FFF38
003FFFF8
00FFFFF8
01FFFFF8
03FFFFF8
07F003F0
0FC001F0
1F8001F0
1F0001E0
3F000000
3E000000
3E000000
7C000000
7C000000
7C000000
7C03FFE0
F807FFF0
F807FFF0
F807FFF0
F807FFE0
F8000F80
FC000F80
FC000F80
7F001F80
7FFFFF00
3FFFFF00
1FFFFF00
0FFFFC00
03FFE000
ENDCHAR
STARTCHAR 01E7
ENCODING 487
SWIDTH 600 0
DWIDTH 30 0
BBX 30 43 3 -10
BITMAP
00400100
00F00780
00FC1F80
00FE7F00
003FFE00
001FF800
0007E000
00038000
00010000
00000000
00000000
007FE7F8
01FFFFFC
03FFFFFC
07FFFFFC
0FFFFFF8
1FC07F80
3F003F80
7E001F80
7C001F80
7C001F00
F8001F00
F8001F00
F8003F00
F8003F00
F8007E00
FC00FE00
FE01FE00
7FFFFE00
7FFFFE00
3FFFFC00
1FFF7C00
07FC7C00
00007C00
0000F800
0000F800
0001F800
0007F000
1FFFE000
3FFFC000
3FFF8000
3FFF0000
3FF80000
ENDCHAR
STARTCHAR 01E8
ENCODING 488
SWIDTH 600 0
DWIDTH 30 0
BBX 33 40 0 0
BITMAP
0003000C00
0007803C00
0007E0FC00
0003FBF800
0001FFE000
0000FF8000
00003E0000
00001C0000
0000000000
0000000000
0000000000
01FFE1FF00
03FFE3FF80
07FFE7FF80
07FFE7FF80
03FFC3FF00
007C07F800
00780FE000
00F81FC000
00F87F8000
00F8FE0000
00F9FC0000
01F7F00000
01FFE00000
01FFF00000
01FFF80000
01FFFC0000
03FDFC0000
03F0FE0000
03E07E0000
03E07F0000
07C03F0000
07C03F0000
07C01F8000
07C01F8000
3FFC1FF800
7FFC1FF800
FFFC0FF800
FFFC0FF800
7FF80FF000
ENDCHAR
STARTCHAR 01E9
ENCODING 489
SWIDTH 600 0
DWIDTH 30 0
BBX 30 40 2 0
BITMAP
00060018
000F807C
000FC1F8
0007F7F0
0003FFC0
0000FF80
00007E00
00001800
00000000
01FE0000
03FE0000
03FE0000
03FE0000
03FC0000
007C0000
007C0000
007C0000
007C0000
00F87FF0
00F8FFF0
00F8FFF0
00F8FFF0
01F0FFE0
01F1FC00
01F7F800
01FFE000
01FFC000
03FF8000
03FF8000
03FFC000
03FFC000
03EFE000
07C7F000
07C3F800
07C1FC00
3FC0FFE0
7F81FFE0
FF83FFE0
FF83FFE0
7F81FFC0
ENDCHAR
STARTCHAR 01EA
ENCODING 490
SWIDTH 600 0
DWIDTH 30 0
BBX 28 39 3 -9
BITMAP
000FFC00
003FFE00
007FFF80
01FFFF80
03FFFFC0
07F00FE0
0FC007E0
1F8003F0
1F0003F0
3F0001F0
3E0001F0
7C0001F0
7C0001F0
7C0001F0
F80001F0
F80001E0
F80003E0
F80003E0
F80007C0
F80007C0
FC000F80
FC001F80
7E003F00
7F00FE00
3FC3FC00
3FFFF800
1FFFF000
0FFFC000
03FF0000
00F80000
03E00000
07800000
0F000000
1E000000
1E300000
1FF80000
1FF80000
1FF00000
0FC00000
ENDCHAR
STARTCHAR 01EB
ENCODING 491
SWIDTH 600 0
DWIDTH 30 0
BBX 26 32 4 -9
BITMAP
003FF800
00FFFC00
03FFFE00
07FFFF00
0FFFFF80
1FC03F80
3F000FC0
3E000FC0
7C0007C0
7C0007C0
F80007C0
F80007C0
F8000F80
F8000F80
F8001F80
FC003F00
FE007E00
7F83FC00
7FFFF800
3FFFF000
1FFFE000
07FF8000
01F80000
03E00000
07800000
0F000000
1E000000
1E300000
1FF80000
1FF80000
1FF00000
0FC00000
ENDCHAR
STARTCHAR 01EC
ENCODING 492
SWIDTH 600 0
DWIDTH 30 0
BBX 28 46 3 -10
BITMAP
0007FFC0
001FFFF0
003FFFF0
001FFFE0
00000000
00000000
00000000
000FFC00
003FFE00
007FFF80
01FFFF80
03FFFFC0
07F00FE0
0FC007E0
1F8003F0
1F0003F0
3F0001F0
3E0001F0
7C0001F0
7C0001F0
7C0001F0
F80001F0
F80001E0
F80003E0
F80003E0
F80007C0
F80007C0
FC000F80
FC001F80
7E003F00
7F00FE00
3FC3FC00
3FFFF800
1FFFF000
0FFFC000
03FF0000
00F80000
03E00000
07800000
0F000000
1E000000
1E300000
1FF80000
1FF80000
1FF00000
0FC00000
ENDCHAR
STARTCHAR 01ED
ENCODING 493
SWIDTH 600 0
DWIDTH 30 0
BBX 26 39 4 -10
BITMAP
007FFF80
00FFFFC0
00FFFF80
007FFF00
00000000
00000000
00000000
003FF800
00FFFC00
03FFFE00
07FFFF00
0FFFFF80
1FC03F80
3F000FC0
3E000FC0
7C0007C0
7C0007C0
F80007C0
F80007C0
F8000F80
F8000F80
F8001F80
FC003F00
FE007E00
7F83FC00
7FFFF800
3FFFF000
1FFFE000
07FF8000
01F80000
03E00000
07800000
0F000000
1E000000
1E300000
1FF80000
1FF80000
1FF00000
0FC00000
ENDCHAR
STARTCHAR 01EE
ENCODING 494
SWIDTH 600 0
DWIDTH 30 0
BBX 27 43 3 -3
BITMAP
003800E0
003C03E0
003F0FE0
003FBFC0
000FFF00
0007FC00
0001F000
0000C000
00000000
00000000
00000000
01FFFFE0
01FFFFE0
01FFFFE0
01FFFFE0
01FFFFC0
03E00FC0
03E01F80
03E03F00
01C07E00
0001FC00
0003F800
0007F000
001FFC00
003FFF00
003FFF80
003FFF80
001FFFC0
00000FC0
000007C0
000007C0
000007C0
000007C0
00000FC0
70000F80
FC001F80
FE003F00
FF80FE00
7FFFFE00
3FFFFC00
1FFFF000
07FFC000
00FE0000
ENDCHAR
STARTCHAR 01EF
ENCODING 495
SWIDTH 600 0
DWIDTH 30 0
BBX 25 41 3 -9
BITMAP
00E00380
00F00F80
00FC3F80
00FEFF00
003FFC00
001FF000
0007C000
00030000
00000000
007FFE00
03FFFF80
03FFFF80
03FFFF80
03FFFF00
0003F800
0007F000
000FE000
001F8000
007F8000
00FFC000
01FFE000
03FFF000
07FFF000
07C1F800
0301F800
0000F800
0000F800
0000F800
0000F800
0000F800
0001F000
0001F000
0003E000
7003E000
F807C000
FC0FC000
FFFF8000
7FFF0000
3FFE0000
1FF80000
07E00000
ENDCHAR
STARTCHAR 01F0
ENCODING 496
SWIDTH 600 0
DWIDTH 30 0
BBX 27 42 3 -10
BITMAP
003000C0
007C03E0
007E0FC0
003FBF80
001FFE00
0007F800
0003F000
0000C000
00000000
00000000
00FFFF80
03FFFF80
03FFFF00
03FFFF00
01FFFF00
00001F00
00001F00
00003E00
00003E00
00003E00
00003E00
00003E00
00007C00
00007C00
00007C00
00007C00
00007C00
0000F800
0000F800
0000F800
0000F800
0001F000
0001F000
0001F000
0001F000
0003E000
000FE000
3FFFC000
7FFF8000
FFFF0000
FFFC0000
7FF00000
ENDCHAR
STARTCHAR 01F1
ENCODING 497
SWIDTH 600 0
DWIDTH 30 0
BBX 35 29 0 0
BITMAP
01FF83FFE0
03FFE3FFE0
03FFF3FFE0
03FFF3FFE0
00FFF3FFC0
01F1FFC7C0
01F1FFCF80
01E0FF9F00
01E0FF9F00
03E0FFBE00
03E0FF7C00
03E0FA7C00
03C0F0F800
03C1F0F000
07C1E1F000
07C1E3E000
0781E3E400
0781E7DF00
0F83CF9F00
0F83CF9E00
0F87DF1E00
0F07BE3E00
0F0FBE3E00
1F1F7C3E00
1FFFFFFC00
7FFEFFFC00
7FFCFFFC00
FFF0FFFC00
7FC0FFFC00
ENDCHAR
STARTCHAR 01F2
ENCODING 498
SWIDTH 600 0
DWIDTH 30 0
BBX 34 30 0 0
BITMAP
0078000000
03FFC00000
03FFE00000
03FFF00000
03FFF00000
01F3F00000
01F1F80000
01F0FFFFC0
01E0FFFFC0
01E0FFFF80
03E0FFFF80
03E0FFFF80
03E0FF3F00
03C0FF3E00
03C1FE7C00
07C1FEFC00
07C1F1F800
0781E1F000
0781E3E000
0F83E7E000
0F83EFC000
0F83CF8400
0F07DF1E00
0F07BE1E00
1F0FFE3E00
3FFF7FFE00
7FFFFFFE00
7FFEFFFC00
FFF9FFFC00
7FE1FFFC00
ENDCHAR
STARTCHAR 01F3
ENCODING 499
SWIDTH 600 0
DWIDTH 30 0
BBX 31 33 2 -1
BITMAP
000FE000
003FE000
003FC000
003FC000
003FC000
0007C000
0007C000
00078000
000F8000
03FFFFFE
07FFFFFE
0FFF7FFE
1FFF7FFC
1F7F7FFC
3E3FF8F8
3E3FF9F0
3C3EF3E0
7C3EF7E0
7C3E07C0
7C3E0F80
7C3E1F00
F83C3F00
F83C3E00
F87C7C30
F87CF8F0
F879F8F0
F8FBF0F0
F9FFFFF0
FFFFFFF0
FFFFFFF0
7FFFFFE0
7FFFFFE0
3E000000
ENDCHAR
STARTCHAR 01F4
ENCODING 500
SWIDTH 600 0
DWIDTH 30 0
BBX 29 40 3 0
BITMAP
00000180
000007C0
00000F80
00001F00
00007E00
0000FC00
0000F000
00006000
00000000
00000000
00000000
000FFF38
003FFFF8
00FFFFF8
01FFFFF8
03FFFFF8
07F003F0
0FC001F0
1F8001F0
1F0001E0
3F000000
3E000000
3E000000
7C000000
7C000000
7C000000
7C03FFE0
F807FFF0
F807FFF0
F807FFF0
F807FFE0
F8000F80
FC000F80
FC000F80
7F001F80
7FFFFF00
3FFFFF00
1FFFFF00
0FFFFC00
03FFE000
ENDCHAR
STARTCHAR 01F5
ENCODING 501
SWIDTH 600 0
DWIDTH 30 0
BBX 30 43 3 -10
BITMAP
00000C00
00001E00
00007C00
0000F800
0001F000
0003E000
0007C000
00070000
00000000
00000000
00000000
007FE7F8
01FFFFFC
03FFFFFC
07FFFFFC
0FFFFFF8
1FC07F80
3F003F80
7E001F80
7C001F80
7C001F00
F8001F00
F8001F00
F8003F00
F8003F00
F8007E00
FC00FE00
FE01FE00
7FFFFE00
7FFFFE00
3FFFFC00
1FFF7C00
07FC7C00
00007C00
0000F800
0000F800
0001F800
0007F000
1FFFE000
3FFFC000
3FFF8000
3FFF0000
3FF80000
ENDCHAR
STARTCHAR 01F6
ENCODING 502
SWIDTH 600 0
DWIDTH 30 0
BBX 31 29 1 0
BITMAP
01FC7F00
03FC7F80
03F87F80
03F87F00
03F87E00
00F8F800
00F8F87E
01F0FBFE
01F0FBFE
01F1F3FC
01F1F3FC
01E1F07C
03FFF07C
03FFF07C
03FFE0F8
03FFE0F8
07FFE0F8
07C3E0F8
07C3E0F8
07C7C1F0
07C7C1F0
0F87C1F0
0F87C3F0
0F8F87E0
7F8FFFE0
FF0FFFC0
FF0FFF80
FF0FFE00
FF1FF800
ENDCHAR
STARTCHAR 01F7
ENCODING 503
SWIDTH 600 0
DWIDTH 30 0
BBX 35 40 -1 -10
BITMAP
003F000000
00FF07FF80
01FF3FFFC0
01FF7FFFE0
01FFFFFFE0
001FFE07E0
003FF003E0
003FC003E0
003F0007C0
003C0007C0
003C000F80
007C001F80
007C003F00
0078007E00
007801FC00
00F803F800
00F807F000
00F80FE000
00F01F8000
00F07F0000
01F0FE0000
01F1FC0000
01F3F00000
01EFE00000
01FFC00000
03FF800000
03FE000000
03FC000000
03F8000000
07F0000000
07C0000000
07C0000000
0780000000
0780000000
0F80000000
3FF8000000
FFFE000000
FFFE000000
FFFC000000
FFF8000000
ENDCHAR
STARTCHAR 01F8
ENCODING 504
SWIDTH 600 0
DWIDTH 30 0
BBX 34 40 1 0
BITMAP
0003800000
0007C00000
0003E00000
0003F00000
0001F80000
0000FC0000
00007C0000
0000380000
0000000000
0000000000
0000000000
03FC03FFC0
07FC07FFC0
0FFE07FFC0
0FFE07FFC0
07FF03FF80
00FF003E00
01FF807C00
01FF807C00
01FFC07C00
01FFC07C00
01FFE0F800
03E7E0F800
03E7E0F800
03E3F0F800
03E3F0F800
03C1F9F000
07C1F9F000
07C1FDF000
07C0FDF000
07C0FFF000
0F807FE000
0F807FE000
0F803FE000
0F803FE000
7FF81FC000
FFF81FC000
FFF81FC000
FFF80FC000
7FF00FC000
ENDCHAR
STARTCHAR 01F9
ENCODING 505
SWIDTH 600 0
DWIDTH 30 0
BBX 28 33 2 0
BITMAP
00038000
0007C000
0007E000
0003F000
0001F800
0000F800
00007C00
00003800
00000000
00000000
00000000
07F1FF00
0FF7FF80
0FFFFFC0
0FFFFFE0
0FFFFFE0
03FC07E0
03F003E0
03E003E0
03E003E0
07C003E0
07C007C0
07C007C0
07C007C0
07C007C0
0F800780
0F800F80
0F800F80
7FE03FE0
FFF07FF0
FFF07FF0
FFE07FF0
FFC03FE0
ENDCHAR
STARTCHAR 01FA
ENCODING 506
SWIDTH 600 0
DWIDTH 30 0
BBX 33 40 -1 0
BITMAP
0000030000
00000F8000
00001F0000
00003E0000
0000FC0000
0001F80000
0001E00000
0001CF0000
00001FC000
00003FC000
000079C000
000071C000
000073C000
00007F8000
00003F0000
00001E0000
0000000000
001FFF8000
003FFF8000
003FFFC000
001FFFC000
0000FFC000
0001F7C000
0003E7E000
0007E7E000
0007C7E000
000F83E000
001F03F000
003F03F000
003E03F000
007FFFF000
00FFFFF800
01FFFFF800
03FFFFF800
03E000F800
07C000FC00
3FF80FFF00
7FFC1FFF80
FFFC1FFF00
7FF81FFE00
ENDCHAR
STARTCHAR 01FB
ENCODING 507
SWIDTH 600 0
DWIDTH 30 0
BBX 26 41 3 -1
BITMAP
00003800
0000F800
0001F000
0003E000
0007C000
000F8000
001E0000
000C6000
0001F800
0007FC00
0007BC00
000F1C00
000E1C00
000FFC00
0007F800
0003F000
00000000
00000000
007FFC00
01FFFE00
03FFFF00
03FFFF80
03FFFF80
00000F80
00000F80
000F0F80
00FFFF00
07FFFF00
0FFFFF00
1FFFFF00
3F807F00
7E001E00
7C003E00
F8003E00
F800FE00
FC07FF80
FFFFFFC0
7FFFFFC0
7FFFFFC0
3FFE7F80
0FF00000
ENDCHAR
STARTCHAR 01FC
ENCODING 508
SWIDTH 600 0
DWIDTH 30 0
BBX 36 40 0 0
BITMAP
0000000E00
0000001E00
0000003E00
000000FC00
000001F000
000003E000
000003C000
0000038000
0000000000
0000000000
0000000000
001FFFFFF0
003FFFFFF0
003FFFFFE0
003FFFFFE0
001FFFFFE0
0007FE03E0
0007FE07C0
000FBE07C0
000FBE07C0
001F3E67C0
001F7CF780
003E7DF000
003E7FF000
007C7FF000
007CFFE000
00F8FFE000
00FFFFE000
01FFFBE000
01FFFBC000
03FFF10000
03FFF00F00
07C1F00F00
07C1F01F00
0F81F01F00
7FCFFFFF00
FFFFFFFE00
FFFFFFFE00
FFDFFFFE00
FF8FFFFE00
ENDCHAR
STARTCHAR 01FD
ENCODING 509
SWIDTH 600 0
DWIDTH 30 0
BBX 32 34 0 -1
BITMAP
00000030
000000F0
000001F0
000003E0
00000FC0
00001F80
00001E00
00001C00
00000000
00000000
00000000
00FFC3F8
03FFEFFC
03FFFFFE
07FFFFFE
03FFFFFF
0001FC3F
0001F81F
003FF01F
03FFFFFF
0FFFFFFF
1FFFFFFF
3FFFFFFE
7F03FFFE
7C03E000
F807E000
F807E000
F80FF000
FC3FF03C
FFFFFFFC
FFFFFFFC
7FFFFFF8
3FF77FF0
0FC03F80
ENDCHAR
STARTCHAR 01FE
ENCODING 510
SWIDTH 600 0
DWIDTH 30 0
BBX 35 43 0 -3
BITMAP
0000006000
000001F000
000003E000
000007C000
00001F8000
00003F0000
00003C0000
0000180000
0000000040
00000001E0
00000003E0
0000FFC7E0
0003FFEFC0
000FFFFF80
001FFFFF00
003FFFFE00
007F00FE00
00FC01FE00
01F803FF00
01F007FF00
03F00FDF00
03E01F9F00
07C03F1F00
07C07E1F00
0780FC1F00
0F81F81F00
0F83F03E00
0F87E03E00
0F8FC03E00
0F9F807C00
0FBF00FC00
0FFE00F800
0FFC01F800
07F803F000
07F00FE000
07FFFFC000
0FFFFF8000
1FFFFF0000
3FFFFC0000
7E3FF00000
7C00000000
F800000000
7000000000
ENDCHAR
STARTCHAR 01FF
ENCODING 511
SWIDTH 600 0
DWIDTH 30 0
BBX 33 39 0 -4
BITMAP
0000006000
000001F000
000003E000
000007C000
00001F8000
00003F0000
00003C0000
0000380000
0000000000
0000000000
0000000300
0000000780
0000001F80
0007FF3F80
001FFFFF00
007FFFFE00
00FFFFF800
01FFFFF800
03F80FF800
07F01FFC00
07C03FFC00
0F807F7C00
0F81FC7C00
1F03F87C00
1F07F07C00
1F0FE0F800
1F3F80F800
1F7F01F800
1FFE03F000
1FFC07E000
0FF03FC000
0FFFFF8000
1FFFFF0000
3FFFFE0000
7FFFF80000
FC3FC00000
F800000000
F000000000
4000000000
ENDCHAR
STARTCHAR 0200
ENCODING 512
SWIDTH 600 0
DWIDTH 30 0
BBX 33 40 -1 0
BITMAP
00381C0000
007C3E0000
003E1F0000
003F1F8000
001F8FC000
000FC7E000
0007C3E000
000381C000
0000000000
0000000000
0000000000
000FFF8000
001FFF8000
003FFF8000
003FFFC000
001FFFC000
0000FFC000
0001FFC000
0001F7C000
0003E7E000
0007E7E000
0007C7E000
000F87E000
001F83E000
001F03F000
003E03F000
003E03F000
007FFFF000
00FFFFF000
00FFFFF800
01FFFFF800
01FFFFF800
03E000F800
07E000F800
07C000FC00
3FF80FFF00
7FFC1FFF80
FFFC1FFF80
FFF81FFF00
7FF00FFE00
ENDCHAR
STARTCHAR 0201
ENCODING 513
SWIDTH 600 0
DWIDTH 30 0
BBX 26 35 3 -1
BITMAP
01C0E000
03E1F000
03F1F800
01F8FC00
00FC7E00
007C3E00
003E1F00
001C0E00
00000000
00000000
00000000
00000000
007FFC00
01FFFE00
03FFFF00
03FFFF80
03FFFF80
00000F80
00000F80
000F0F80
00FFFF00
07FFFF00
0FFFFF00
1FFFFF00
3F807F00
7E001E00
7C003E00
F8003E00
F800FE00
FC07FF80
FFFFFFC0
7FFFFFC0
7FFFFFC0
3FFE7F80
0FF00000
ENDCHAR
STARTCHAR 0202
ENCODING 514
SWIDTH 600 0
DWIDTH 30 0
BBX 33 38 -1 0
BITMAP
00001F8000
00007FE000
0001FFF800
0003FFF800
0007C07C00
0007003C00
0007001C00
0000000000
0000000000
000FFF8000
001FFF8000
003FFF8000
003FFFC000
001FFFC000
0000FFC000
0001FFC000
0001F7C000
0003E7E000
0007E7E000
0007C7E000
000F87E000
001F83E000
001F03F000
003E03F000
003E03F000
007FFFF000
00FFFFF000
00FFFFF800
01FFFFF800
01FFFFF800
03E000F800
07E000F800
07C000FC00
3FF80FFF00
7FFC1FFF80
FFFC1FFF80
FFF81FFF00
7FF00FFE00
ENDCHAR
STARTCHAR 0203
ENCODING 515
SWIDTH 600 0
DWIDTH 30 0
BBX 26 33 3 -1
BITMAP
0000E000
0007FE00
001FFF00
003FFF80
007C07C0
007003C0
00F003C0
00600180
00000000
00000000
007FFC00
01FFFE00
03FFFF00
03FFFF80
03FFFF80
00000F80
00000F80
000F0F80
00FFFF00
07FFFF00
0FFFFF00
1FFFFF00
3F807F00
7E001E00
7C003E00
F8003E00
F800FE00
FC07FF80
FFFFFFC0
7FFFFFC0
7FFFFFC0
3FFE7F80
0FF00000
ENDCHAR
STARTCHAR 0204
ENCODING 516
SWIDTH 600 0
DWIDTH 30 0
BBX 31 40 1 0
BITMAP
001C0E00
003E1F00
003F1F80
001F8FC0
000FC7E0
0007E3F0
0003E1F0
0001C0E0
00000000
00000000
00000000
03FFFFFE
07FFFFFE
07FFFFFE
07FFFFFC
07FFFFFC
00F8007C
00F8007C
00F800FC
00F800F8
01F078F8
01F0F870
01F0F800
01FFF800
01FFF000
03FFF000
03FFF000
03FFF000
03E1E000
07C1E000
07C1C0E0
07C001F0
07C001F0
07C003F0
0F8003E0
7FFFFFE0
FFFFFFE0
FFFFFFE0
FFFFFFC0
FFFFFFC0
ENDCHAR
STARTCHAR 0205
ENCODING 517
SWIDTH 600 0
DWIDTH 30 0
BBX 26 35 4 -1
BITMAP
0381C000
07C3E000
07E3F000
03F1F800
01F8FC00
00F87C00
007C3E00
00381C00
00000000
00000000
00000000
00000000
003FF800
00FFFC00
03FFFF00
07FFFF00
0FFFFF80
1FC03F80
3F000FC0
3E000FC0
7C0007C0
7FFFFFC0
FFFFFFC0
FFFFFFC0
FFFFFFC0
FFFFFF80
F8000000
FC000000
FE000E00
7F00FF00
7FFFFF00
3FFFFF00
1FFFFE00
0FFFF000
01FF0000
ENDCHAR
STARTCHAR 0206
ENCODING 518
SWIDTH 600 0
DWIDTH 30 0
BBX 31 38 1 0
BITMAP
00001F80
0000FFE0
0001FFF0
0007FBF8
00078078
000F003C
000E0038
00000000
00000000
03FFFFFE
07FFFFFE
07FFFFFE
07FFFFFC
07FFFFFC
00F8007C
00F8007C
00F800FC
00F800F8
01F078F8
01F0F870
01F0F800
01FFF800
01FFF000
03FFF000
03FFF000
03FFF000
03E1E000
07C1E000
07C1C0E0
07C001F0
07C001F0
07C003F0
0F8003E0
7FFFFFE0
FFFFFFE0
FFFFFFE0
FFFFFFC0
FFFFFFC0
ENDCHAR
STARTCHAR 0207
ENCODING 519
SWIDTH 600 0
DWIDTH 30 0
BBX 26 32 4 -1
BITMAP
000FF800
003FFC00
007FFE00
00F81F00
01E00F00
01C00700
01C00700
00000000
00000000
003FF800
00FFFC00
03FFFF00
07FFFF00
0FFFFF80
1FC03F80
3F000FC0
3E000FC0
7C0007C0
7FFFFFC0
FFFFFFC0
FFFFFFC0
FFFFFFC0
FFFFFF80
F8000000
FC000000
FE000E00
7F00FF00
7FFFFF00
3FFFFF00
1FFFFE00
0FFFF000
01FF0000
ENDCHAR
STARTCHAR 0208
ENCODING 520
SWIDTH 600 0
DWIDTH 30 0
BBX 27 40 3 0
BITMAP
00703800
00F87C00
00FC7E00
007E3F00
003F1F80
001F8FC0
000F87C0
00070380
00000000
00000000
00000000
01FFFFE0
03FFFFE0
07FFFFE0
07FFFFE0
03FFFFC0
0007C000
0007C000
0007C000
000F8000
000F8000
000F8000
000F8000
000F8000
001F0000
001F0000
001F0000
001F0000
003E0000
003E0000
003E0000
003E0000
003E0000
007C0000
007C0000
3FFFF800
7FFFFC00
FFFFFC00
FFFFF800
7FFFF000
ENDCHAR
STARTCHAR 0209
ENCODING 521
SWIDTH 600 0
DWIDTH 30 0
BBX 23 34 4 0
BITMAP
0E0700
0F0780
0F87C0
07C3E0
03E1F0
03F1F8
01F0F8
00F078
000000
000000
000000
000000
01FFC0
03FFC0
07FFC0
07FF80
03FF80
000F80
000F80
000F80
001F00
001F00
001F00
001F00
001F00
003E00
003E00
003E00
003E00
7FFFFE
FFFFFE
FFFFFE
FFFFFE
FFFFFC
ENDCHAR
STARTCHAR 020A
ENCODING 522
SWIDTH 600 0
DWIDTH 30 0
BBX 27 38 3 0
BITMAP
0001F800
0007FE00
001FFF80
003FFF80
007C07C0
007003C0
00F003C0
00000000
00000000
01FFFFE0
03FFFFE0
07FFFFE0
07FFFFE0
03FFFFC0
0007C000
0007C000
0007C000
000F8000
000F8000
000F8000
000F8000
000F8000
001F0000
001F0000
001F0000
001F0000
003E0000
003E0000
003E0000
003E0000
003E0000
007C0000
007C0000
3FFFF800
7FFFFC00
FFFFFC00
FFFFF800
7FFFF000
ENDCHAR
STARTCHAR 020B
ENCODING 523
SWIDTH 600 0
DWIDTH 30 0
BBX 24 32 4 0
BITMAP
0001C0
001FF8
003FFE
00FFFF
01F01F
01E00F
01C007
018006
000000
000000
01FFC0
03FFC0
07FFC0
07FF80
03FF80
000F80
000F80
000F80
001F00
001F00
001F00
001F00
001F00
003E00
003E00
003E00
003E00
7FFFFE
FFFFFE
FFFFFE
FFFFFE
FFFFFC
ENDCHAR
STARTCHAR 020C
ENCODING 524
SWIDTH 600 0
DWIDTH 30 0
BBX 28 40 3 0
BITMAP
00703800
00F87C00
00FC7E00
007E3F00
003F1F80
001F0F80
000F87C0
00070380
00000000
00000000
00000000
000FFC00
003FFE00
00FFFF80
01FFFFC0
03FFFFC0
07F00FE0
0FC007E0
1F8003F0
1F0003F0
3F0001F0
3E0001F0
7C0001F0
7C0001F0
780001F0
F80001F0
F80003E0
F80003E0
F80003E0
F80007C0
F8000FC0
FC000F80
FC001F80
7E003F00
7F00FE00
3FFFFC00
3FFFF800
1FFFF000
0FFFC000
03FF0000
ENDCHAR
STARTCHAR 020D
ENCODING 525
SWIDTH 600 0
DWIDTH 30 0
BBX 26 35 4 -1
BITMAP
0381C000
03C1E000
03E1F000
01F0F800
00F87C00
007C3E00
003C1E00
001C0E00
00000000
00000000
00000000
00000000
003FF800
00FFFC00
03FFFE00
07FFFF00
0FFFFF80
1FC03F80
3F000FC0
3E000FC0
7C0007C0
7C0007C0
F80007C0
F80007C0
F8000FC0
F8000F80
F8001F80
FC003F00
FE007E00
7F81FE00
7FFFFC00
3FFFF000
1FFFE000
0FFF8000
01FE0000
ENDCHAR
STARTCHAR 020E
ENCODING 526
SWIDTH 600 0
DWIDTH 30 0
BBX 28 38 3 0
BITMAP
0001FC00
0007FF00
001FFF80
003F0FC0
007C03C0
007001C0
007001C0
00000000
00000000
000FFC00
003FFE00
00FFFF80
01FFFFC0
03FFFFC0
07F00FE0
0FC007E0
1F8003F0
1F0003F0
3F0001F0
3E0001F0
7C0001F0
7C0001F0
780001F0
F80001F0
F80003E0
F80003E0
F80003E0
F80007C0
F8000FC0
FC000F80
FC001F80
7E003F00
7F00FE00
3FFFFC00
3FFFF800
1FFFF000
0FFFC000
03FF0000
ENDCHAR
STARTCHAR 020F
ENCODING 527
SWIDTH 600 0
DWIDTH 30 0
BBX 26 33 4 -1
BITMAP
0001C000
001FF800
003FFE00
00FFFF00
00F01F00
01E00700
01C00700
00800600
00000000
00000000
003FF800
00FFFC00
03FFFE00
07FFFF00
0FFFFF80
1FC03F80
3F000FC0
3E000FC0
7C0007C0
7C0007C0
F80007C0
F80007C0
F8000FC0
F8000F80
F8001F80
FC003F00
FE007E00
7F81FE00
7FFFFC00
3FFFF000
1FFFE000
0FFF8000
01FE0000
ENDCHAR
STARTCHAR 0210
ENCODING 528
SWIDTH 600 0
DWIDTH 30 0
BBX 30 40 0 0
BITMAP
00E07000
00F07800
00F87C00
007C3E00
003E1F00
001F0F80
000F0780
00070380
00000000
00000000
00000000
01FFFF00
03FFFFC0
07FFFFE0
07FFFFF0
03FFFFF0
007C03F8
007C01F8
00F800F8
00F800F8
00F800F8
00F801F0
01F003F0
01F01FE0
01FFFFC0
01FFFF80
01FFFF00
03FFFC00
03FFFE00
03E0FF00
03E07F00
03E03F80
07C01F80
07C00FC0
07C00FC0
3FFC07F8
7FFC07FC
FFFC07FC
FFFC03FC
7FF803F8
ENDCHAR
STARTCHAR 0211
ENCODING 529
SWIDTH 600 0
DWIDTH 30 0
BBX 29 34 2 0
BITMAP
00703800
00F87C00
00FC7E00
007E3F00
003F1F80
001F0F80
000F87C0
00070380
00000000
00000000
00000000
00000000
01FE0FF0
07FE3FF8
07FEFFF8
07FFFFF8
03FFFFF8
007FF000
007FC000
007F8000
007E0000
007C0000
00F80000
00F80000
00F80000
00F80000
00F80000
01F00000
01F00000
3FFFF800
7FFFFC00
FFFFFC00
FFFFF800
7FFFF000
ENDCHAR
STARTCHAR 0212
ENCODING 530
SWIDTH 600 0
DWIDTH 30 0
BBX 30 38 0 0
BITMAP
00007F00
0001FFC0
0007FFE0
000FE7F0
001F00F0
001E0070
001C0070
00000000
00000000
01FFFF00
03FFFFC0
07FFFFE0
07FFFFF0
03FFFFF0
007C03F8
007C01F8
00F800F8
00F800F8
00F800F8
00F801F0
01F003F0
01F01FE0
01FFFFC0
01FFFF80
01FFFF00
03FFFC00
03FFFE00
03E0FF00
03E07F00
03E03F80
07C01F80
07C00FC0
07C00FC0
3FFC07F8
7FFC07FC
FFFC07FC
FFFC03FC
7FF803F8
ENDCHAR
STARTCHAR 0213
ENCODING 531
SWIDTH 600 0
DWIDTH 30 0
BBX 29 32 2 0
BITMAP
00003800
0001FF80
0007FFC0
000FFFE0
001F01F0
001C00F0
003C00F0
00180060
00000000
00000000
01FE0FF0
07FE3FF8
07FEFFF8
07FFFFF8
03FFFFF8
007FF000
007FC000
007F8000
007E0000
007C0000
00F80000
00F80000
00F80000
00F80000
00F80000
01F00000
01F00000
3FFFF800
7FFFFC00
FFFFFC00
FFFFF800
7FFFF000
ENDCHAR
STARTCHAR 0214
ENCODING 532
SWIDTH 600 0
DWIDTH 30 0
BBX 30 40 4 0
BITMAP
00C06000
01F0F800
01F8FC00
00FC7E00
007C3E00
003E1F00
001F0F80
000E0700
00000000
00000000
00000000
3FF83FF8
7FFC7FFC
7FFC7FFC
7FF87FF8
7FF07FF0
1F0007C0
1F0007C0
1F0007C0
3E000F80
3E000F80
3E000F80
3E000F80
3E001F00
7C001F00
7C001F00
7C001F00
7C001F00
F8003E00
F8003E00
F8003E00
F8003E00
F8007C00
FC00FC00
FE03F800
7FFFF000
7FFFE000
3FFFC000
1FFF8000
07FE0000
ENDCHAR
STARTCHAR 0215
ENCODING 533
SWIDTH 600 0
DWIDTH 30 0
BBX 25 34 5 0
BITMAP
07038000
0F87C000
0FC7E000
07E3F000
03F1F800
01F8FC00
00F87C00
00703800
00000000
00000000
00000000
00000000
7F80FF80
FF81FF80
FF01FF80
FF01FF00
FF01FF00
1F001F00
1F001F00
3E001F00
3E003E00
3E003E00
3E003E00
7E003E00
7C003E00
7C007C00
7C007C00
7C00FC00
7C03FC00
7FFFFF00
7FFFFF00
3FFFFF00
1FFEFF00
0FF8FE00
ENDCHAR
STARTCHAR 0216
ENCODING 534
SWIDTH 600 0
DWIDTH 30 0
BBX 30 38 4 0
BITMAP
0007F000
001FFC00
003FFF00
00FE3F00
00F00F80
01E00780
01C00700
00000000
00000000
3FF83FF8
7FFC7FFC
7FFC7FFC
7FF87FF8
7FF07FF0
1F0007C0
1F0007C0
1F0007C0
3E000F80
3E000F80
3E000F80
3E000F80
3E001F00
7C001F00
7C001F00
7C001F00
7C001F00
F8003E00
F8003E00
F8003E00
F8003E00
F8007C00
FC00FC00
FE03F800
7FFFF000
7FFFE000
3FFFC000
1FFF8000
07FE0000
ENDCHAR
STARTCHAR 0217
ENCODING 535
SWIDTH 600 0
DWIDTH 30 0
BBX 25 32 5 0
BITMAP
00038000
003FF000
007FFC00
01FFFE00
01F03E00
03C00E00
03800E00
01000400
00000000
00000000
7F80FF80
FF81FF80
FF01FF80
FF01FF00
FF01FF00
1F001F00
1F001F00
3E001F00
3E003E00
3E003E00
3E003E00
7E003E00
7C003E00
7C007C00
7C007C00
7C00FC00
7C03FC00
7FFFFF00
7FFFFF00
3FFFFF00
1FFEFF00
0FF8FE00
ENDCHAR
STARTCHAR 0218
ENCODING 536
SWIDTH 600 0
DWIDTH 30 0
BBX 27 39 4 -9
BITMAP
001FFDE0
007FFFE0
00FFFFE0
01FFFFE0
03FFFFE0
07E00FC0
07C007C0
0F8007C0
0F8007C0
0F800780
0FC00000
0FF80000
0FFF8000
07FFF000
03FFFC00
00FFFE00
001FFF00
0000FF00
00003F00
78001F00
78001F00
F8001F00
F8003E00
FE00FE00
FFFFFC00
FFFFF800
FFFFF000
FFFFE000
63FF8000
00000000
007E0000
00FC0000
00F80000
01F00000
01F00000
01E00000
03C00000
03800000
03000000
ENDCHAR
STARTCHAR 0219
ENCODING 537
SWIDTH 600 0
DWIDTH 30 0
BBX 26 32 4 -9
BITMAP
003FFB80
00FFFFC0
01FFFFC0
03FFFF80
07FFFF80
0FC01F80
0FC00F00
0FE00000
0FFF0000
0FFFF000
07FFFC00
03FFFE00
007FFE00
0003FE00
38007F00
7C003F00
7C003E00
FF00FE00
FFFFFC00
FFFFF800
FFFFF000
FFFFC000
03FE0000
00FC0000
01F80000
01F00000
03E00000
03E00000
03C00000
07800000
07000000
06000000
ENDCHAR
STARTCHAR 021A
ENCODING 538
SWIDTH 600 0
DWIDTH 30 0
BBX 28 39 4 -10
BITMAP
3FFFFFF0
3FFFFFF0
3FFFFFF0
3FFFFFE0
7FFFFFE0
7C0F03E0
7C1F03E0
7C1F07C0
F81F07C0
F81F07C0
F83E0780
703E0780
003E0000
003E0000
003E0000
007C0000
007C0000
007C0000
007C0000
00F80000
00F80000
00F80000
00F80000
00F80000
3FFFC000
7FFFE000
FFFFE000
FFFFC000
7FFF8000
00000000
007E0000
00FC0000
00F80000
01F00000
01F00000
01E00000
03C00000
03800000
03000000
ENDCHAR
STARTCHAR 021B
ENCODING 539
SWIDTH 600 0
DWIDTH 30 0
BBX 22 39 5 -9
BITMAP
01E000
01F000
03E000
03E000
03E000
03E000
03E000
7FFFF8
FFFFFC
FFFFFC
FFFFFC
7FFFF8
0F8000
0F8000
0F8000
0F8000
0F0000
1F0000
1F0000
1F0000
1F0000
3E0000
3E0000
3E001C
3F01FC
3FFFFC
3FFFFC
1FFFF0
0FFFC0
03FC00
01F800
03F000
03E000
07C000
07C000
078000
0F0000
0E0000
0C0000
ENDCHAR
STARTCHAR 021C
ENCODING 540
SWIDTH 600 0
DWIDTH 30 0
BBX 26 32 4 -2
BITMAP
0003F800
01FFFE00
03FFFF00
03FFFF80
03FFFF80
03F01FC0
07E00FC0
07C007C0
07C007C0
078007C0
07000F80
00000F80
00003F00
0000FF00
0001FC00
0007FE00
001FFF00
003FFF80
003F3F80
003C0F80
00100F80
00000F80
00001F00
00001F00
00003E00
0000FE00
0007FC00
03FFF800
7FFFE000
FFFFC000
FFFE0000
FFC00000
ENDCHAR
STARTCHAR 021D
ENCODING 541
SWIDTH 600 0
DWIDTH 30 0
BBX 22 30 7 -7
BITMAP
007F80
1FFFE0
1FFFF8
1FFFF8
3FFFFC
3F00FC
3E007C
3C007C
3C01F8
0007F8
001FF0
007FF0
01FFF0
07FFF8
0FF1F8
1FC0F8
1F00F8
0C00F8
0001F0
0007F0
000FE0
003FC0
00FF00
03FE00
0FF800
3FE000
7F8000
FE0000
F80000
600000
ENDCHAR
STARTCHAR 021E
ENCODING 542
SWIDTH 600 0
DWIDTH 30 0
BBX 32 40 1 0
BITMAP
000E0038
000F00F8
000FC3F8
000FEFF0
0003FFC0
0001FF00
00007C00
00003000
00000000
00000000
00000000
01FF87FE
03FF8FFF
03FF8FFF
03FF8FFE
03FF07FC
00F801F0
00F801F0
01F001F0
01F001F0
01F001F0
01F003E0
03E003E0
03FFFFE0
03FFFFE0
03FFFFE0
03FFFFC0
07FFFFC0
07C007C0
07C007C0
07C00F80
07C00F80
0F800F80
0F800F80
0F800F80
7FF0FFE0
FFF1FFF0
FFF1FFF0
FFF1FFE0
FFE1FFC0
ENDCHAR
STARTCHAR 021F
ENCODING 543
SWIDTH 600 0
DWIDTH 30 0
BBX 29 40 2 0
BITMAP
000E0038
000F00F8
000FC3F8
000FEFF0
0003FFC0
0001FF00
00007C00
00003000
00000000
03FC0000
07FC0000
07FC0000
07FC0000
07F80000
00F80000
00F80000
00F80000
00F80000
01F1FF00
01F7FF80
01FFFFC0
01FFFFE0
01FFFFE0
03FC07E0
03F803E0
03E003E0
03E003E0
07C003E0
07C007C0
07C007C0
07C007C0
07C007C0
0F800780
0F800F80
0F800F80
7FE07FE0
FFF0FFF0
FFF0FFF0
FFF0FFF0
FFE07FE0
ENDCHAR
STARTCHAR 0220
ENCODING 544
SWIDTH 600 0
DWIDTH 30 0
BBX 29 42 1 -10
BITMAP
00001F80
01FCFFE0
03FDFFF0
03FFFFF0
03FFFFF8
01FF81F8
00FE01F8
00FC00F8
00F800F8
01F000F8
01F000F8
01F000F8
01F000F8
01F001F0
03E001F0
03E001F0
03E001F0
03E001F0
03E003E0
07C003E0
07C003E0
07C003E0
07C003E0
0F8007C0
0F8007C0
0F8007C0
0F8007C0
7FE00780
FFF00F80
FFF00F80
FFE00F80
FFC00F80
00001F00
00001F00
00001F00
00001F00
00001F00
0000FFC0
0001FFE0
0003FFE0
0003FFC0
0001FF80
ENDCHAR
STARTCHAR 0224
ENCODING 548
SWIDTH 600 0
DWIDTH 30 0
BBX 27 39 4 -10
BITMAP
01FFFFE0
01FFFFE0
03FFFFE0
03FFFFE0
03FFFFC0
03E01FC0
03E03F80
07C07F00
07C0FE00
07C1FC00
0783F800
0007F000
000FE000
001FC000
003F8000
007F0000
00FE0000
01FC0000
03F80F00
07F00F00
0FE01F00
1FC01F00
3F801F00
7F001F00
7FFFFE00
FFFFFE00
FFFFFE00
FFFFFE00
FFFFFC00
00007C00
00007C00
0000FC00
0000F800
0003F800
01FFF000
03FFE000
03FFC000
03FF8000
00FE0000
ENDCHAR
STARTCHAR 0225
ENCODING 549
SWIDTH 600 0
DWIDTH 30 0
BBX 26 32 4 -10
BITMAP
07FFFFC0
07FFFFC0
07FFFF80
07FFFF80
0FFFFF80
0F80FE00
0F81FC00
0703F800
0007F000
001FC000
003F8000
007F0000
00FE0000
03FC0000
07F00000
0FE01E00
1FC03E00
3FFFFE00
7FFFFE00
7FFFFC00
7FFFFC00
FFFFFC00
00007C00
00007C00
0000F800
0001F800
0003F000
01FFF000
03FFE000
03FFC000
03FF0000
01FC0000
ENDCHAR
STARTCHAR 0226
ENCODING 550
SWIDTH 600 0
DWIDTH 30 0
BBX 33 39 -1 0
BITMAP
0000038000
000007C000
00000FC000
00000FC000
00000F8000
0000070000
0000000000
0000000000
0000000000
0000000000
000FFF8000
001FFF8000
003FFF8000
003FFFC000
001FFFC000
0000FFC000
0001FFC000
0001F7C000
0003E7E000
0007E7E000
0007C7E000
000F87E000
001F83E000
001F03F000
003E03F000
003E03F000
007FFFF000
00FFFFF000
00FFFFF800
01FFFFF800
01FFFFF800
03E000F800
07E000F800
07C000FC00
3FF80FFF00
7FFC1FFF80
FFFC1FFF80
FFF81FFF00
7FF00FFE00
ENDCHAR
STARTCHAR 0227
ENCODING 551
SWIDTH 600 0
DWIDTH 30 0
BBX 26 33 3 -1
BITMAP
0000E000
0001F000
0003F000
0003F000
0003E000
0001C000
00000000
00000000
00000000
00000000
007FFC00
01FFFE00
03FFFF00
03FFFF80
03FFFF80
00000F80
00000F80
000F0F80
00FFFF00
07FFFF00
0FFFFF00
1FFFFF00
3F807F00
7E001E00
7C003E00
F8003E00
F800FE00
FC07FF80
FFFFFFC0
7FFFFFC0
7FFFFFC0
3FFE7F80
0FF00000
ENDCHAR
STARTCHAR 0228
ENCODING 552
SWIDTH 600 0
DWIDTH 30 0
BBX 31 39 1 -10
BITMAP
03FFFFFE
07FFFFFE
07FFFFFE
07FFFFFC
07FFFFFC
00F8007C
00F8007C
00F800FC
00F800F8
01F078F8
01F0F870
01F0F800
01FFF800
01FFF000
03FFF000
03FFF000
03FFF000
03E3E000
07C3E000
07C3C1C0
07C003E0
07C003E0
07C003C0
0F8007C0
7FFFFFC0
FFFFFFC0
FFFFFF80
FFFFFF80
FFFFFF80
00780000
007E0000
007E0000
007F0000
000F0000
000E0000
0FFE0000
0FFC0000
0FF80000
03F00000
ENDCHAR
STARTCHAR 0229
ENCODING 553
SWIDTH 600 0
DWIDTH 30 0
BBX 26 32 3 -9
BITMAP
003FF800
00FFFC00
03FFFF00
07FFFF00
0FFFFF80
1FC01F80
3F000FC0
3E000FC0
7C0007C0
7FFFFFC0
FFFFFFC0
FFFFFFC0
FFFFFFC0
FFFFFF80
F8000000
FC000000
FE000F00
7F80FF80
7FFFFF80
3FFFFF00
1FFFFE00
07FFF000
00FE0000
00FC0000
00FC0000
01FE0000
001E0000
001C0000
1FFC0000
1FF80000
1FF00000
07E00000
ENDCHAR
STARTCHAR 022A
ENCODING 554
SWIDTH 600 0
DWIDTH 30 0
BBX 30 40 2 0
BITMAP
0007FFF8
000FFFFC
000FFFFC
0007FFF8
00000000
00000000
000701C0
000F83E0
001F87E0
001F87E0
001F07C0
000E0380
00000000
0000F000
000FFE00
003FFF80
00FFFFC0
01FFFFE0
07FC0FF0
0FE003F0
0FC001F8
1F8001F8
3F0000F8
3E0000F8
7C0000F8
7C0000F8
F80000F8
F80000F8
F80001F0
F80001F0
F80003E0
F80007E0
FC000FC0
7E001F80
7F003F80
3FC1FF00
3FFFFC00
1FFFF800
07FFE000
03FF8000
ENDCHAR
STARTCHAR 022B
ENCODING 555
SWIDTH 600 0
DWIDTH 30 0
BBX 28 39 4 -1
BITMAP
000FFFF0
001FFFF0
003FFFF0
001FFFE0
00000000
00000000
001C0700
003E0F80
007E1F80
007E1F80
007C1F00
00380E00
00000000
00000000
00000000
00000000
003FF800
00FFFC00
03FFFE00
07FFFF00
0FFFFF80
1FC03F80
3F000FC0
3E000FC0
7C0007C0
7C0007C0
F80007C0
F80007C0
F8000FC0
F8000F80
F8001F80
FC003F00
FE007E00
7F81FE00
7FFFFC00
3FFFF000
1FFFE000
0FFF8000
01FE0000
ENDCHAR
STARTCHAR 022C
ENCODING 556
SWIDTH 600 0
DWIDTH 30 0
BBX 29 40 2 0
BITMAP
000FFFF0
001FFFF0
001FFFF0
001FFFE0
00000000
00000000
00000000
000FE070
001FF8F0
003FFFE0
0078FFC0
00701F80
00000000
0000F000
000FFE00
003FFF80
00FFFFC0
01FFFFE0
07F80FF0
0FE007F0
0FC003F8
1F8001F8
3F0000F8
3E0000F8
7C0000F8
7C0000F8
F80000F8
F80000F0
F80001F0
F80001F0
F80003E0
F80007E0
FC000FC0
7E001F80
7F007F00
7FC1FE00
3FFFFC00
1FFFF800
0FFFE000
03FF8000
ENDCHAR
STARTCHAR 022D
ENCODING 557
SWIDTH 600 0
DWIDTH 30 0
BBX 27 39 4 -1
BITMAP
001FFFE0
003FFFE0
007FFFE0
003FFFC0
00000000
00000000
001E0180
007F83C0
00FFEF80
01FFFF80
01C1FE00
01807C00
00000000
00000000
00000000
00000000
003FF800
00FFFC00
03FFFE00
07FFFF00
0FFFFF80
1FC03F80
3F000FC0
3E000FC0
7C0007C0
7C0007C0
F80007C0
F80007C0
F8000FC0
F8000F80
F8001F80
FC003F00
FE007E00
7F81FE00
7FFFFC00
3FFFF000
1FFFE000
0FFF8000
01FE0000
ENDCHAR
STARTCHAR 022E
ENCODING 558
SWIDTH 600 0
DWIDTH 30 0
BBX 28 39 3 0
BITMAP
00003800
00007C00
0000FC00
0000FC00
0000F800
00007000
00000000
00000000
00000000
00000000
000FFC00
003FFE00
00FFFF80
01FFFFC0
03FFFFC0
07F00FE0
0FC007E0
1F8003F0
1F0003F0
3F0001F0
3E0001F0
7C0001F0
7C0001F0
780001F0
F80001F0
F80003E0
F80003E0
F80003E0
F80007C0
F8000FC0
FC000F80
FC001F80
7E003F00
7F00FE00
3FFFFC00
3FFFF800
1FFFF000
0FFFC000
03FF0000
ENDCHAR
STARTCHAR 022F
ENCODING 559
SWIDTH 600 0
DWIDTH 30 0
BBX 26 33 4 -1
BITMAP
0000E000
0001F000
0003F000
0003F000
0003E000
0001C000
00000000
00000000
00000000
00000000
003FF800
00FFFC00
03FFFE00
07FFFF00
0FFFFF80
1FC03F80
3F000FC0
3E000FC0
7C0007C0
7C0007C0
F80007C0
F80007C0
F8000FC0
F8000F80
F8001F80
FC003F00
FE007E00
7F81FE00
7FFFFC00
3FFFF000
1FFFE000
0FFF8000
01FE0000
ENDCHAR
STARTCHAR 0230
ENCODING 560
SWIDTH 600 0
DWIDTH 30 0
BBX 29 40 2 0
BITMAP
0007FFF8
000FFFF8
001FFFF8
000FFFF0
00000000
00000000
00003800
00007C00
0000FC00
0000FC00
0000F800
00007000
00000000
00000000
0000F000
000FFE00
007FFF80
00FFFFC0
03FFFFE0
07FC0FF0
0FE003F0
1FC001F8
3F0001F8
3E0000F8
7E0000F8
7C0000F8
F80000F8
F80000F8
F80000F0
F80001F0
F80001F0
F80003E0
FC0007E0
7E000FC0
7F003F80
3FE0FF00
3FFFFE00
1FFFF800
07FFF000
03FF8000
ENDCHAR
STARTCHAR 0231
ENCODING 561
SWIDTH 600 0
DWIDTH 30 0
BBX 26 38 4 -1
BITMAP
003FFFC0
007FFFC0
007FFFC0
003FFF80
00000000
0000E000
0001F000
0003F000
0003F000
0003E000
0001C000
00000000
00000000
00000000
00000000
003FF800
00FFFC00
03FFFE00
07FFFF00
0FFFFF80
1FC03F80
3F000FC0
3E000FC0
7C0007C0
7C0007C0
F80007C0
F80007C0
F8000FC0
F8000F80
F8001F80
FC003F00
FE007E00
7F81FE00
7FFFFC00
3FFFF000
1FFFE000
0FFF8000
01FE0000
ENDCHAR
STARTCHAR 0232
ENCODING 562
SWIDTH 600 0
DWIDTH 30 0
BBX 28 36 4 0
BITMAP
007FFC00
01FFFF00
03FFFF00
01FFFE00
00000000
00000000
00000000
3FE03FF0
7FE07FF0
FFE07FF0
FFE07FF0
7FC03FE0
1F803F00
0FC07E00
0FC0FC00
07E1F800
07E3F000
03F7E000
03FFC000
01FFC000
01FF8000
01FF0000
00FE0000
00FC0000
00F80000
00F80000
00F80000
00F80000
00F80000
01F00000
01F00000
7FFFC000
FFFFC000
FFFFC000
FFFFC000
7FFF8000
ENDCHAR
STARTCHAR 0233
ENCODING 563
SWIDTH 600 0
DWIDTH 30 0
BBX 34 38 -1 -10
BITMAP
0007FFF800
000FFFFC00
000FFFF800
0007FFF000
0000000000
0000000000
01FF00FF80
03FF81FFC0
03FF83FFC0
03FF03FF80
03FE01FF00
00F8007C00
00FC00F800
00FC01F800
007C03F000
007E03E000
007E07C000
003E0FC000
003F0F8000
003F1F0000
003F3F0000
001FFE0000
001FFC0000
001FF80000
000FF80000
000FF00000
000FE00000
0007C00000
000FC00000
001F800000
001F000000
003E000000
007E000000
7FFF800000
FFFF800000
FFFF800000
FFFF800000
7FFF000000
ENDCHAR
STARTCHAR 0237
ENCODING 567
SWIDTH 600 0
DWIDTH 30 0
BBX 25 32 3 -10
BITMAP
00FFFF80
03FFFF80
03FFFF00
03FFFF00
01FFFF00
00001F00
00001F00
00003E00
00003E00
00003E00
00003E00
00003E00
00007C00
00007C00
00007C00
00007C00
00007C00
0000F800
0000F800
0000F800
0000F800
0001F000
0001F000
0001F000
0001F000
0003E000
000FE000
3FFFC000
7FFF8000
FFFF0000
FFFC0000
7FF00000
ENDCHAR
STARTCHAR 0250
ENCODING 592
SWIDTH 600 0
DWIDTH 30 0
BBX 28 23 3 0
BITMAP
00007F00
07F7FFC0
0FFFFFE0
1FFFFFF0
1FFFFFF0
1FFE07F0
07F003E0
0FC003E0
0F8007C0
0F801FC0
1F807F80
1FFFFF00
3FFFFC00
3FFFF800
7FFFC000
7C7C0000
7C000000
FC000000
FFFFC000
FFFFC000
FFFFC000
7FFF8000
3FFE0000
ENDCHAR
STARTCHAR 0251
ENCODING 593
SWIDTH 600 0
DWIDTH 30 0
BBX 28 23 1 1
BITMAP
000001E0
007FF1E0
01FFFFE0
03FFFFE0
07FFFFE0
0FFFFFE0
1F803FC0
3F001FC0
3E000FC0
7C000FC0
7C000FC0
F8000F80
F8000F80
F8001F80
F8001F80
F8003F00
FC007F00
FE00FF00
7FFFFFE0
7FFFFFF0
3FFFFFE0
1FFFFFE0
07FE3FC0
ENDCHAR
STARTCHAR 0252
ENCODING 594
SWIDTH 600 0
DWIDTH 30 0
BBX 27 24 5 -1
BITMAP
0003F000
FF9FFE00
FFFFFF00
FFFFFF80
FFFFFFC0
3FF81FC0
1FE007E0
1F8007E0
1F0003E0
3F0003E0
3E0003E0
3E0003E0
3E0007E0
7E0007C0
7E000FC0
7F000F80
7F001F80
7FC07F00
FFFFFE00
FFFFFC00
FFFFF800
FBFFE000
F0FF0000
E0000000
ENDCHAR
STARTCHAR 0253
ENCODING 595
SWIDTH 600 0
DWIDTH 30 0
BBX 31 32 0 0
BITMAP
0000FE00
0003FF00
000FFF00
001FFF00
003FFE00
003F0000
007E0000
007C0000
00FC0000
00F80000
00F8FFC0
00FBFFF0
00FFFFF8
01FFFFFC
01FFFFFC
01FE00FE
01FC007E
01F8003E
03F0003E
03F0003E
03E0003E
03E0003E
03E0007C
07E0007C
07E000F8
07F001F8
07F803F0
7FFFFFE0
FFFFFFE0
FFFFFF80
FFFFFF00
7F9FFC00
ENDCHAR
STARTCHAR 0254
ENCODING 596
SWIDTH 600 0
DWIDTH 30 0
BBX 26 23 3 0
BITMAP
073FF800
0FFFFE00
0FFFFF00
0FFFFF80
0FFFFF80
1FC01F80
1F000FC0
1F000FC0
1E0007C0
000007C0
000007C0
000007C0
000007C0
00000F80
00000F80
00001F80
70003F00
FC01FE00
FFFFFC00
FFFFF800
7FFFF000
3FFFC000
07FE0000
ENDCHAR
STARTCHAR 0256
ENCODING 598
SWIDTH 600 0
DWIDTH 30 0
BBX 31 41 1 -10
BITMAP
000003FC
000007FC
00000FF8
00000FF8
000007F8
000000F8
000000F8
000001F0
000001F0
003FF1F0
00FFFDF0
03FFFFE0
07FFFFE0
0FFFFFE0
1FC01FE0
3F000FE0
3E000FC0
7C0007C0
7C0007C0
F80007C0
F8000FC0
F8000F80
F8001F80
F8001F80
FC003F80
FE00FF00
7FFFFF00
7FFFFF00
3FFFFF00
1FFFDF00
07FF3E00
00003E00
00003E00
00003E00
00003E00
00003F00
00003FFC
00001FFE
00001FFE
00000FFC
000003F0
ENDCHAR
STARTCHAR 0257
ENCODING 599
SWIDTH 600 0
DWIDTH 30 0
BBX 39 32 0 0
BITMAP
00000001F8
00000007FE
0000001FFE
0000003FFE
0000007FFC
0000007E00
000000F800
000000F800
000001F000
000001F000
003FF1F000
01FFFDF000
03FFFFE000
07FFFFE000
0FFFFFE000
1F803FE000
3F001FE000
3E000FC000
7C000FC000
7C000FC000
F8000FC000
F8000F8000
F8001F8000
F8001F8000
F8003F8000
FC007F8000
FE00FF0000
7FFFFFE000
7FFFFFF000
3FFFFFF000
1FFFFFF000
07FF3FC000
ENDCHAR
STARTCHAR 0258
ENCODING 600
SWIDTH 600 0
DWIDTH 30 0
BBX 28 23 2 0
BITMAP
000FFC00
007FFF00
00FFFF80
01FFFFC0
03FFFFE0
07F00FE0
0FC007F0
1F8003F0
1F0003F0
3FFFFFF0
3FFFFFF0
3FFFFFF0
3FFFFFE0
7FFFFFE0
000007C0
00000FC0
30001F80
7F007F80
FFFFFF00
FFFFFE00
7FFFF800
1FFFE000
03FF0000
ENDCHAR
STARTCHAR 0259
ENCODING 601
SWIDTH 600 0
DWIDTH 30 0
BBX 26 24 4 -1
BITMAP
000FC000
01FFF800
0FFFFE00
1FFFFF00
3FFFFF80
3FF0FF80
1E001FC0
00000FC0
000007C0
000007C0
7FFFFFC0
FFFFFFC0
FFFFFFC0
FFFFFFC0
F8000F80
FC001F80
FC003F00
7E007E00
7F83FE00
3FFFF800
3FFFF000
1FFFE000
07FF8000
00FC0000
ENDCHAR
STARTCHAR 025B
ENCODING 603
SWIDTH 600 0
DWIDTH 30 0
BBX 25 23 4 0
BITMAP
007FF780
01FFFF80
03FFFF80
07FFFF00
0FFFFF00
1F803F00
1F801E00
1FC00000
1FFF8000
1FFFC000
0FFFC000
1FFF8000
3FFF0000
7F800000
7C001C00
FC003E00
FC007E00
FF01FC00
FFFFFC00
7FFFFC00
3FFFFC00
1FFFF800
07FC0000
ENDCHAR
STARTCHAR 025C
ENCODING 604
SWIDTH 600 0
DWIDTH 30 0
BBX 24 23 4 0
BITMAP
07BFF8
07FFFC
0FFFFE
0FFFFF
0FFFFF
0F803F
0F001F
00007F
007FFE
00FFFC
00FFF8
00FFFC
007FFE
0000FE
38003E
7C003E
7C003E
FF01FC
FFFFFC
FFFFF8
FFFFF0
FFFFC0
03FE00
ENDCHAR
STARTCHAR 025F
ENCODING 607
SWIDTH 600 0
DWIDTH 30 0
BBX 25 32 3 -10
BITMAP
01FFFF80
03FFFF00
03FFFF00
03FFFF00
03FFFF00
00001F00
00003E00
00003E00
00003E00
00003E00
00003C00
00007C00
00007C00
00007C00
00007C00
0000F800
0000F800
0FFFFF00
1FFFFF00
3FFFFF00
3FFFFF00
1FFFFE00
0001F000
0001F000
0003E000
0007E000
000FC000
7FFFC000
FFFF8000
FFFF0000
FFFC0000
7FF00000
ENDCHAR
STARTCHAR 0260
ENCODING 608
SWIDTH 600 0
DWIDTH 30 0
BBX 38 42 1 -10
BITMAP
00000003F0
0000000FFC
0000003FFC
0000007FFC
000000FFF8
000000FC00
000001F800
000001F000
000003E000
000003E000
007FE3E000
01FFFBE000
03FFFFC000
07FFFFC000
0FFFFFC000
1F807FC000
3F003FC000
3E001F8000
7C001F8000
7C001F8000
F8001F8000
F8001F8000
F8001F0000
F8003F0000
F8007F0000
FC00FF0000
FE03FE0000
7FFFFE0000
7FFFFE0000
3FFFFE0000
1FFFBE0000
07FE7C0000
00007C0000
00007C0000
0000FC0000
0000F80000
0003F80000
1FFFF00000
3FFFE00000
3FFFC00000
3FFF000000
3FFC000000
ENDCHAR
STARTCHAR 0261
ENCODING 609
SWIDTH 600 0
DWIDTH 30 0
BBX 26 34 4 -10
BITMAP
00000080
000003C0
007FE3C0
01FFFFC0
03FFFFC0
07FFFFC0
0FFFFFC0
1F807FC0
3F003F80
3E001F80
7C001F80
7C001F80
F8001F80
F8001F00
F8001F00
F8003F00
F8007F00
FC00FE00
FE03FE00
7FFFFE00
7FFFFE00
3FFFFE00
1FFFFC00
07FE7C00
00007C00
00007C00
0000F800
0001F800
0003F000
1FFFF000
3FFFE000
3FFFC000
3FFF0000
3FFC0000
ENDCHAR
STARTCHAR 0265
ENCODING 613
SWIDTH 600 0
DWIDTH 30 0
BBX 28 31 4 -9
BITMAP
3FC03FC0
FFF0FFF0
FFF0FFF0
FFE0FFF0
FFE0FFE0
1F001F00
1E001F00
3E003E00
3E003E00
3E003E00
3E003E00
7C003E00
7C007C00
7C007C00
7C007C00
7C01FC00
7C03F800
7F0FF800
7FFFF800
7FFFF800
3FFEF800
1FF9F000
03C1F000
0001F000
0001F000
0001E000
0003F800
0003FE00
0003FE00
0003FE00
0007FC00
ENDCHAR
STARTCHAR 0266
ENCODING 614
SWIDTH 600 0
DWIDTH 30 0
BBX 28 32 1 0
BITMAP
0000FC00
0007FF00
000FFF00
001FFF00
003FFE00
007F0000
007C0000
00F80000
00F80000
00F80000
01F1FF00
01F7FF80
01FFFFC0
01FFFFE0
01FFFFE0
03FC07E0
03F803E0
03E003E0
03E003E0
07C003E0
07C007C0
07C007C0
07C007C0
07C007C0
0F800F80
0F800F80
0F800F80
7FE07FE0
FFF0FFF0
FFF0FFF0
FFF0FFF0
FFE07FE0
ENDCHAR
STARTCHAR 0267
ENCODING 615
SWIDTH 600 0
DWIDTH 30 0
BBX 27 42 2 -10
BITMAP
0000FC00
0007FF00
000FFF00
001FFF00
003FFE00
007F0000
007C0000
00F80000
00F80000
00F80000
01F1FF00
01F7FF80
01FFFFC0
01FFFFE0
01FFFFE0
03FC07E0
03F803E0
03E003E0
03E003E0
03E003E0
07C007C0
07C007C0
07C007C0
07C007C0
07C00F80
0F800F80
0F800F80
7FE00F80
FFF00F80
FFF01F00
FFF01F00
FFE01F00
00001F00
00001F00
00003E00
00007E00
0000FC00
007FFC00
00FFF800
00FFF000
00FFC000
003F0000
ENDCHAR
STARTCHAR 0268
ENCODING 616
SWIDTH 600 0
DWIDTH 30 0
BBX 24 31 4 0
BITMAP
0003E0
0007E0
0007E0
0007E0
0007E0
000000
000000
000000
000000
01FFC0
03FFC0
03FFC0
03FFC0
03FF80
000F80
000F80
000F80
000F80
07FFFE
0FFFFE
0FFFFE
0FFFFE
0FFFFC
003E00
003E00
003E00
7FFFFE
FFFFFF
FFFFFF
FFFFFE
FFFFFC
ENDCHAR
STARTCHAR 0269
ENCODING 617
SWIDTH 600 0
DWIDTH 30 0
BBX 17 23 8 -1
BITMAP
7FE000
FFE000
FFE000
FFE000
7FC000
03C000
03C000
07C000
07C000
07C000
07C000
078000
0F8000
0F8000
0F8000
0F8000
0F8000
0FC000
0FFF00
07FF80
07FF80
03FF00
00FC00
ENDCHAR
STARTCHAR 026A
ENCODING 618
SWIDTH 600 0
DWIDTH 30 0
BBX 22 22 6 0
BITMAP
07FFFC
0FFFFC
1FFFFC
1FFFFC
0FFFF8
003E00
007C00
007C00
007C00
007C00
007C00
00F800
00F800
00F800
00F800
00F800
01F000
7FFFC0
FFFFE0
FFFFE0
FFFFC0
FFFF80
ENDCHAR
STARTCHAR 026B
ENCODING 619
SWIDTH 600 0
DWIDTH 30 0
BBX 27 31 3 0
BITMAP
007FF800
00FFF000
00FFF000
00FFF000
007FF000
0001F000
0003E000
0003E000
0003E000
0003E000
0003E000
0007C000
007FC000
01FFC1C0
03FFC3E0
07FF87E0
0FFFCFC0
1F9FFFC0
3F0FFF80
3E0FFF00
1C1FFC00
001FF000
001F0000
001F0000
001F0000
003E0000
3FFFFE00
7FFFFF00
FFFFFF00
FFFFFF00
7FFFFE00
ENDCHAR
STARTCHAR 026D
ENCODING 621
SWIDTH 600 0
DWIDTH 30 0
BBX 14 41 11 -10
BITMAP
7FF0
FFF0
FFF0
FFE0
7FE0
01E0
01E0
03E0
03C0
03C0
03C0
03C0
07C0
07C0
0780
0780
0780
0F80
0F80
0F00
0F00
1F00
1F00
1F00
1E00
1E00
3E00
3E00
3E00
3E00
7C00
7C00
7C00
7C00
7C00
7E00
7FF8
3FFC
3FFC
1FF8
07E0
ENDCHAR
STARTCHAR 026F
ENCODING 623
SWIDTH 600 0
DWIDTH 30 0
BBX 33 23 1 -1
BITMAP
3F07F1FE00
7F0FE3FF80
FF1FE3FF80
FF1FE3FF00
7E0FE3FE00
3E03C0F800
3E07C0F800
3E07C0F800
7C07C1F000
7C07C1F000
7C0F81F000
7C0F81F000
7C0F81F000
F80F83E000
F80F83E000
F81F03E000
F83F07E000
FDFF9FF000
FFFFFFF800
7FFFFFF800
7FEFFFF800
3FC7F7F000
0601800000
ENDCHAR
STARTCHAR 0270
ENCODING 624
SWIDTH 600 0
DWIDTH 30 0
BBX 32 32 2 -10
BITMAP
7F0FE3FE
FF1FE7FF
FE3FC7FF
FE3FC7FF
FE1FC3FE
3E07C1F0
3E07C1F0
7C0F81F0
7C0F81F0
7C0F81F0
7C0F83E0
7C0F83E0
F81F03E0
F81F03E0
F81F07C0
F81F07C0
F87F0FC0
FFFFFFC0
FFFFFFC0
FFFFFF80
7FDFFF80
3F8FEF80
00000F80
00000F80
00001F00
00001F00
00001F00
00001FC0
00003FC0
00003FC0
00003FC0
00003F80
ENDCHAR
STARTCHAR 0271
ENCODING 625
SWIDTH 600 0
DWIDTH 30 0
BBX 32 32 0 -9
BITMAP
07F7F1FC
0FFFFFFE
1FFFFFFF
1FFFFFFF
0FFFFFFF
03F0FE1F
03E0F81F
07C0F81F
07C0F83E
07C1F03E
07C1F03E
0F81F03E
0F81F03E
0F81F07C
0F83E07C
0F83E07C
1F03E07C
7FC3F87C
FFE3F8F8
FFE7F8F8
FFC7F8F8
FF87F0F8
000001F0
000001F0
000001F0
000003E0
000007E0
0003FFC0
0007FF80
0007FF00
0007FE00
0001F800
ENDCHAR
STARTCHAR 0272
ENCODING 626
SWIDTH 600 0
DWIDTH 30 0
BBX 36 32 -6 -9
BITMAP
0003F9FF00
0007FBFF80
0007FFFFC0
000FFFFFE0
0007FFFFE0
0001FE07E0
0001F803E0
0003F003E0
0003E003E0
0003E003E0
0003E007C0
0003E007C0
0007C007C0
0007C007C0
0007C007C0
0007C00F80
0007C00F80
000F803FE0
000F807FF0
000F807FF0
000F807FF0
000F003FE0
001F000000
001F000000
001F000000
003E000000
00FE000000
7FFC000000
FFF8000000
FFF0000000
FFE0000000
3F80000000
ENDCHAR
STARTCHAR 0273
ENCODING 627
SWIDTH 600 0
DWIDTH 30 0
BBX 32 32 0 -9
BITMAP
03F8FF00
07FBFF80
07FFFFC0
0FFFFFE0
07FFFFE0
01FE07E0
01F803E0
03F003E0
03E003E0
03E003E0
03E007C0
03E007C0
07C007C0
07C007C0
07C007C0
07C00F80
07C00F80
3FF00F80
7FF80F80
FFF81F00
FFF01F00
7FE01F00
00001F00
00001F00
00001F00
00001F00
00001F80
00001FFE
00000FFF
00000FFF
000007FE
000001F8
ENDCHAR
STARTCHAR 0274
ENCODING 628
SWIDTH 600 0
DWIDTH 30 0
BBX 28 22 3 0
BITMAP
07F03FE0
0FF87FF0
0FF87FF0
0FFC7FE0
07FC3FC0
03FE1F00
03FE1F00
03FE1F00
03FF1F00
07DF1F00
07DFBE00
07CFBE00
07CFFE00
07C7FE00
0F87FE00
0F87FC00
0F83FC00
3FE3FC00
7FE1FC00
FFE1FC00
FFE0F800
7FC0F800
ENDCHAR
STARTCHAR 0275
ENCODING 629
SWIDTH 600 0
DWIDTH 30 0
BBX 26 23 4 0
BITMAP
003FF800
00FFFE00
03FFFF00
07FFFF80
0FFFFF80
1FC01FC0
3F800FC0
3E0007C0
7E0007C0
7FFFFFC0
7FFFFFC0
FFFFFFC0
FFFFFFC0
F8000FC0
FC001F80
FC003F80
7E007F00
7F81FE00
3FFFFC00
3FFFF800
1FFFE000
07FFC000
01FE0000
ENDCHAR
STARTCHAR 0279
ENCODING 633
SWIDTH 600 0
DWIDTH 30 0
BBX 29 23 2 -1
BITMAP
007FFFF0
00FFFFF8
00FFFFF8
00FFFFF8
00FFFFF0
00007C00
00007C00
00007C00
00007C00
0000F800
0000F800
0000F800
0000F800
0003F000
0007F000
001FF000
003FF000
79FFFE00
FFFFFF00
FFFBFF00
FFF3FF00
7FC3FE00
0E000000
ENDCHAR
ENDFONT
